<svg xmlns="http://www.w3.org/2000/svg" xmlns:xlink="http://www.w3.org/1999/xlink" contentStyleType="text/css" data-diagram-type="CLASS" height="566px" preserveAspectRatio="none" style="width:938px;height:566px;background:#FFFFFF;" version="1.1" viewBox="0 0 938 566" width="938px" zoomAndPan="magnify"><defs/><g><!--cluster repository--><g class="cluster" data-entity="repository" data-source-line="3" data-uid="ent0006" id="cluster_repository"><path d="M8.5,6 L247.6025,6 A3.75,3.75 0 0 1 250.1025,8.5 L257.1025,28.2969 L928.5,28.2969 A2.5,2.5 0 0 1 931,30.7969 L931,556.88 A2.5,2.5 0 0 1 928.5,559.38 L8.5,559.38 A2.5,2.5 0 0 1 6,556.88 L6,8.5 A2.5,2.5 0 0 1 8.5,6" fill="none" style="stroke:#000000;stroke-width:1.5;"/><line style="stroke:#000000;stroke-width:1.5;" x1="6" x2="257.1025" y1="28.2969" y2="28.2969"/><text fill="#000000" font-family="sans-serif" font-size="14" font-weight="bold" lengthAdjust="spacing" textLength="238.1025" x="10" y="20.9951">it.unibo.coffebreak.repository</text></g><!--cluster api--><g class="cluster" data-entity="api" data-source-line="3" data-uid="ent0007" id="cluster_api"><path d="M44.5,49 L69.7676,49 A3.75,3.75 0 0 1 72.2676,51.5 L79.2676,71.2969 L556.5,71.2969 A2.5,2.5 0 0 1 559,73.7969 L559,277.69 A2.5,2.5 0 0 1 556.5,280.19 L44.5,280.19 A2.5,2.5 0 0 1 42,277.69 L42,51.5 A2.5,2.5 0 0 1 44.5,49" fill="none" style="stroke:#000000;stroke-width:1.5;"/><line style="stroke:#000000;stroke-width:1.5;" x1="42" x2="79.2676" y1="71.2969" y2="71.2969"/><text fill="#000000" font-family="sans-serif" font-size="14" font-weight="bold" lengthAdjust="spacing" textLength="24.2676" x="46" y="63.9951">api</text></g><!--cluster filemanager--><g class="cluster" data-entity="filemanager" data-source-line="8" data-uid="ent0009" id="cluster_filemanager"><path d="M68.5,92 L164.5537,92 A3.75,3.75 0 0 1 167.0537,94.5 L174.0537,114.2969 L331.5,114.2969 A2.5,2.5 0 0 1 334,116.7969 L334,253.69 A2.5,2.5 0 0 1 331.5,256.19 L68.5,256.19 A2.5,2.5 0 0 1 66,253.69 L66,94.5 A2.5,2.5 0 0 1 68.5,92" fill="none" style="stroke:#000000;stroke-width:1.5;"/><line style="stroke:#000000;stroke-width:1.5;" x1="66" x2="174.0537" y1="114.2969" y2="114.2969"/><text fill="#000000" font-family="sans-serif" font-size="14" font-weight="bold" lengthAdjust="spacing" textLength="95.0537" x="70" y="106.9951">filemanager</text></g><!--cluster impl--><g class="cluster" data-entity="impl" data-source-line="14" data-uid="ent0011" id="cluster_impl"><path d="M32.5,304.19 L67.707,304.19 A3.75,3.75 0 0 1 70.207,306.69 L77.207,326.4869 L904.5,326.4869 A2.5,2.5 0 0 1 907,328.9869 L907,532.88 A2.5,2.5 0 0 1 904.5,535.38 L32.5,535.38 A2.5,2.5 0 0 1 30,532.88 L30,306.69 A2.5,2.5 0 0 1 32.5,304.19" fill="none" style="stroke:#000000;stroke-width:1.5;"/><line style="stroke:#000000;stroke-width:1.5;" x1="30" x2="77.207" y1="326.4869" y2="326.4869"/><text fill="#000000" font-family="sans-serif" font-size="14" font-weight="bold" lengthAdjust="spacing" textLength="34.207" x="34" y="319.1851">impl</text></g><!--cluster filemanager--><g class="cluster" data-entity="filemanager" data-source-line="21" data-uid="ent0014" id="cluster_filemanager"><path d="M56.5,347.19 L152.5537,347.19 A3.75,3.75 0 0 1 155.0537,349.69 L162.0537,369.4869 L319.5,369.4869 A2.5,2.5 0 0 1 322,371.9869 L322,508.88 A2.5,2.5 0 0 1 319.5,511.38 L56.5,511.38 A2.5,2.5 0 0 1 54,508.88 L54,349.69 A2.5,2.5 0 0 1 56.5,347.19" fill="none" style="stroke:#000000;stroke-width:1.5;"/><line style="stroke:#000000;stroke-width:1.5;" x1="54" x2="162.0537" y1="369.4869" y2="369.4869"/><text fill="#000000" font-family="sans-serif" font-size="14" font-weight="bold" lengthAdjust="spacing" textLength="95.0537" x="58" y="362.1851">filemanager</text></g><!--class Repository--><g class="entity" data-entity="Repository" data-source-line="3" data-uid="ent0002" id="entity_Repository"><rect fill="#F1F1F1" height="96.8906" rx="2.5" ry="2.5" style="stroke:#181818;stroke-width:0.5;" width="190.5479" x="352.73" y="135.15"/><ellipse cx="400.5528" cy="151.15" fill="#B4A7E5" rx="11" ry="11" style="stroke:#181818;stroke-width:1;"/><path d="M396.4746,146.9156 L396.4746,144.7594 L403.8653,144.7594 L403.8653,146.9156 L401.3965,146.9156 L401.3965,154.9937 L403.8653,154.9937 L403.8653,157.15 L396.4746,157.15 L396.4746,154.9937 L398.9434,154.9937 L398.9434,146.9156 L396.4746,146.9156 Z " fill="#000000"/><text fill="#000000" font-family="sans-serif" font-size="14" font-style="italic" lengthAdjust="spacing" textLength="75.0723" x="421.0528" y="155.9967">Repository</text><rect fill="#FFFFFF" height="15.9688" style="stroke:#181818;stroke-width:1;stroke-dasharray:2.0,2.0;" width="9.3301" x="536.9478" y="132.15"/><text fill="#000000" font-family="sans-serif" font-size="12" font-style="italic" lengthAdjust="spacing" textLength="7.3301" x="537.9478" y="144.2887">T</text><line style="stroke:#181818;stroke-width:0.5;" x1="353.73" x2="542.2779" y1="167.15" y2="167.15"/><line style="stroke:#181818;stroke-width:0.5;" x1="353.73" x2="542.2779" y1="175.15" y2="175.15"/><ellipse cx="363.73" cy="188.7984" fill="#84BE84" rx="3" ry="3" style="stroke:#038048;stroke-width:1;"/><text fill="#000000" font-family="sans-serif" font-size="14" font-style="italic" lengthAdjust="spacing" textLength="112.6699" x="372.73" y="192.1451">boolean save(T)</text><ellipse cx="363.73" cy="205.0953" fill="#84BE84" rx="3" ry="3" style="stroke:#038048;stroke-width:1;"/><text fill="#000000" font-family="sans-serif" font-size="14" font-style="italic" lengthAdjust="spacing" textLength="53.8467" x="372.73" y="208.442">T load()</text><ellipse cx="363.73" cy="221.3922" fill="#84BE84" rx="3" ry="3" style="stroke:#038048;stroke-width:1;"/><text fill="#000000" font-family="sans-serif" font-size="14" font-style="italic" lengthAdjust="spacing" textLength="164.5479" x="372.73" y="224.7389">boolean deleteAllFiles()</text></g><!--class FileManager--><g class="entity" data-entity="FileManager" data-source-line="8" data-uid="ent0008" id="entity_FileManager"><rect fill="#F1F1F1" height="113.1875" rx="2.5" ry="2.5" style="stroke:#181818;stroke-width:0.5;" width="235.1934" x="82.4" y="127"/><ellipse cx="152.8409" cy="143" fill="#B4A7E5" rx="11" ry="11" style="stroke:#181818;stroke-width:1;"/><path d="M148.7628,138.7656 L148.7628,136.6094 L156.1534,136.6094 L156.1534,138.7656 L153.6847,138.7656 L153.6847,146.8438 L156.1534,146.8438 L156.1534,149 L148.7628,149 L148.7628,146.8438 L151.2315,146.8438 L151.2315,138.7656 L148.7628,138.7656 Z " fill="#000000"/><text fill="#000000" font-family="sans-serif" font-size="14" font-style="italic" lengthAdjust="spacing" textLength="85.8115" x="173.3409" y="147.8467">FileManager</text><line style="stroke:#181818;stroke-width:0.5;" x1="83.4" x2="316.5934" y1="159" y2="159"/><line style="stroke:#181818;stroke-width:0.5;" x1="83.4" x2="316.5934" y1="167" y2="167"/><ellipse cx="93.4" cy="180.6484" fill="#84BE84" rx="3" ry="3" style="stroke:#038048;stroke-width:1;"/><text fill="#000000" font-family="sans-serif" font-size="14" font-style="italic" lengthAdjust="spacing" textLength="127.6201" x="102.4" y="183.9951">Path getDataFile()</text><ellipse cx="93.4" cy="196.9453" fill="#84BE84" rx="3" ry="3" style="stroke:#038048;stroke-width:1;"/><text fill="#000000" font-family="sans-serif" font-size="14" font-style="italic" lengthAdjust="spacing" textLength="141.4971" x="102.4" y="200.292">void createBackup()</text><ellipse cx="93.4" cy="213.2422" fill="#84BE84" rx="3" ry="3" style="stroke:#038048;stroke-width:1;"/><text fill="#000000" font-family="sans-serif" font-size="14" font-style="italic" lengthAdjust="spacing" textLength="209.1934" x="102.4" y="216.5889">boolean restoreFromBackup()</text><ellipse cx="93.4" cy="229.5391" fill="#84BE84" rx="3" ry="3" style="stroke:#038048;stroke-width:1;"/><text fill="#000000" font-family="sans-serif" font-size="14" font-style="italic" lengthAdjust="spacing" textLength="132.8086" x="102.4" y="232.8857">boolean deleteAll()</text></g><!--class ScoreRepository--><g class="entity" data-entity="ScoreRepository" data-source-line="14" data-uid="ent0010" id="entity_ScoreRepository"><rect fill="#F1F1F1" height="96.8906" rx="2.5" ry="2.5" style="stroke:#181818;stroke-width:0.5;" width="215.3008" x="340.35" y="390.34"/><ellipse cx="386.455" cy="406.34" fill="#ADD1B2" rx="11" ry="11" style="stroke:#181818;stroke-width:1;"/><path d="M389.4237,411.9806 Q388.8456,412.2775 388.205,412.4181 Q387.5644,412.5744 386.8612,412.5744 Q384.3612,412.5744 383.0331,410.9338 Q381.7206,409.2775 381.7206,406.1525 Q381.7206,403.0275 383.0331,401.3713 Q384.3612,399.715 386.8612,399.715 Q387.5644,399.715 388.205,399.8713 Q388.8612,400.0275 389.4237,400.3244 L389.4237,403.0431 Q388.7987,402.465 388.205,402.1994 Q387.6112,401.9181 386.9862,401.9181 Q385.6425,401.9181 384.955,402.9963 Q384.2675,404.0588 384.2675,406.1525 Q384.2675,408.2463 384.955,409.3244 Q385.6425,410.3869 386.9862,410.3869 Q387.6112,410.3869 388.205,410.1213 Q388.7987,409.84 389.4237,409.2619 L389.4237,411.9806 Z " fill="#000000"/><text fill="#000000" font-family="sans-serif" font-size="14" lengthAdjust="spacing" textLength="114.5908" x="406.955" y="411.1867">ScoreRepository</text><line style="stroke:#181818;stroke-width:0.5;" x1="341.35" x2="554.6508" y1="422.34" y2="422.34"/><line style="stroke:#181818;stroke-width:0.5;" x1="341.35" x2="554.6508" y1="430.34" y2="430.34"/><ellipse cx="351.35" cy="443.9884" fill="#84BE84" rx="3" ry="3" style="stroke:#038048;stroke-width:1;"/><text fill="#000000" font-family="sans-serif" font-size="14" lengthAdjust="spacing" textLength="189.3008" x="360.35" y="447.3351">boolean save(List&lt;Entry&gt;)</text><ellipse cx="351.35" cy="460.2853" fill="#84BE84" rx="3" ry="3" style="stroke:#038048;stroke-width:1;"/><text fill="#000000" font-family="sans-serif" font-size="14" lengthAdjust="spacing" textLength="130.4775" x="360.35" y="463.632">List&lt;Entry&gt; load()</text><ellipse cx="351.35" cy="476.5822" fill="#84BE84" rx="3" ry="3" style="stroke:#038048;stroke-width:1;"/><text fill="#000000" font-family="sans-serif" font-size="14" lengthAdjust="spacing" textLength="164.5479" x="360.35" y="479.9289">boolean deleteAllFiles()</text></g><!--class ScoreRepository$RepositoryException--><g class="entity" data-entity="ScoreRepository$RepositoryException" data-source-line="19" data-uid="ent0012" id="entity_ScoreRepository$RepositoryException"><rect fill="#F1F1F1" height="48" rx="2.5" ry="2.5" style="stroke:#181818;stroke-width:0.5;" width="299.7158" x="591.14" y="414.79"/><ellipse cx="606.14" cy="430.79" fill="#ADD1B2" rx="11" ry="11" style="stroke:#181818;stroke-width:1;"/><path d="M609.1088,436.4306 Q608.5306,436.7275 607.89,436.8681 Q607.2494,437.0244 606.5463,437.0244 Q604.0463,437.0244 602.7181,435.3837 Q601.4056,433.7275 601.4056,430.6025 Q601.4056,427.4775 602.7181,425.8212 Q604.0463,424.165 606.5463,424.165 Q607.2494,424.165 607.89,424.3212 Q608.5463,424.4775 609.1088,424.7744 L609.1088,427.4931 Q608.4838,426.915 607.89,426.6494 Q607.2963,426.3681 606.6713,426.3681 Q605.3275,426.3681 604.64,427.4462 Q603.9525,428.5087 603.9525,430.6025 Q603.9525,432.6962 604.64,433.7744 Q605.3275,434.8369 606.6713,434.8369 Q607.2963,434.8369 607.89,434.5712 Q608.4838,434.29 609.1088,433.7119 L609.1088,436.4306 Z " fill="#000000"/><text fill="#000000" font-family="sans-serif" font-size="14" lengthAdjust="spacing" textLength="267.7158" x="620.14" y="435.6367">ScoreRepository$RepositoryException</text><line style="stroke:#181818;stroke-width:0.5;" x1="592.14" x2="889.8558" y1="446.79" y2="446.79"/><line style="stroke:#181818;stroke-width:0.5;" x1="592.14" x2="889.8558" y1="454.79" y2="454.79"/></g><!--class GameFileManager--><g class="entity" data-entity="GameFileManager" data-source-line="21" data-uid="ent0013" id="entity_GameFileManager"><rect fill="#F1F1F1" height="113.1875" rx="2.5" ry="2.5" style="stroke:#181818;stroke-width:0.5;" width="235.1934" x="70.4" y="382.19"/><ellipse cx="120.0016" cy="398.19" fill="#ADD1B2" rx="11" ry="11" style="stroke:#181818;stroke-width:1;"/><path d="M122.9703,403.8306 Q122.3922,404.1275 121.7516,404.2681 Q121.1109,404.4244 120.4078,404.4244 Q117.9078,404.4244 116.5797,402.7838 Q115.2672,401.1275 115.2672,398.0025 Q115.2672,394.8775 116.5797,393.2213 Q117.9078,391.565 120.4078,391.565 Q121.1109,391.565 121.7516,391.7213 Q122.4078,391.8775 122.9703,392.1744 L122.9703,394.8931 Q122.3453,394.315 121.7516,394.0494 Q121.1578,393.7681 120.5328,393.7681 Q119.1891,393.7681 118.5016,394.8463 Q117.8141,395.9088 117.8141,398.0025 Q117.8141,400.0963 118.5016,401.1744 Q119.1891,402.2369 120.5328,402.2369 Q121.1578,402.2369 121.7516,401.9713 Q122.3453,401.69 122.9703,401.1119 L122.9703,403.8306 Z " fill="#000000"/><text fill="#000000" font-family="sans-serif" font-size="14" lengthAdjust="spacing" textLength="127.4902" x="140.5016" y="403.0367">GameFileManager</text><line style="stroke:#181818;stroke-width:0.5;" x1="71.4" x2="304.5934" y1="414.19" y2="414.19"/><line style="stroke:#181818;stroke-width:0.5;" x1="71.4" x2="304.5934" y1="422.19" y2="422.19"/><ellipse cx="81.4" cy="435.8384" fill="#84BE84" rx="3" ry="3" style="stroke:#038048;stroke-width:1;"/><text fill="#000000" font-family="sans-serif" font-size="14" lengthAdjust="spacing" textLength="127.6201" x="90.4" y="439.1851">Path getDataFile()</text><ellipse cx="81.4" cy="452.1353" fill="#84BE84" rx="3" ry="3" style="stroke:#038048;stroke-width:1;"/><text fill="#000000" font-family="sans-serif" font-size="14" lengthAdjust="spacing" textLength="141.4971" x="90.4" y="455.482">void createBackup()</text><ellipse cx="81.4" cy="468.4322" fill="#84BE84" rx="3" ry="3" style="stroke:#038048;stroke-width:1;"/><text fill="#000000" font-family="sans-serif" font-size="14" lengthAdjust="spacing" textLength="209.1934" x="90.4" y="471.7789">boolean restoreFromBackup()</text><ellipse cx="81.4" cy="484.7291" fill="#84BE84" rx="3" ry="3" style="stroke:#038048;stroke-width:1;"/><text fill="#000000" font-family="sans-serif" font-size="14" lengthAdjust="spacing" textLength="132.8086" x="90.4" y="488.0757">boolean deleteAll()</text></g><!--reverse link Repository to ScoreRepository--><g class="link" data-entity-1="Repository" data-entity-2="ScoreRepository" data-source-line="27" data-uid="lnk16" id="link_Repository_ScoreRepository"><path codeLine="27" d="M448,250.52 C448,295.68 448,344.97 448,390.06" fill="none" id="Repository-backto-ScoreRepository" style="stroke:#181818;stroke-width:1;stroke-dasharray:7.0,7.0;"/><polygon fill="none" points="448,232.52,442,250.52,454,250.52,448,232.52" style="stroke:#181818;stroke-width:1;"/></g><!--link ScoreRepository to FileManager--><g class="link" data-entity-1="ScoreRepository" data-entity-2="FileManager" data-source-line="28" data-uid="lnk17" id="link_ScoreRepository_FileManager"><path codeLine="28" d="M407.75,390.13 C383.57,362.13 351.81,326.41 322,296.19 C303.56,277.49 287.1459,261.9502 267.9759,244.4902" fill="none" id="ScoreRepository-to-FileManager" style="stroke:#181818;stroke-width:1;"/><polygon fill="#181818" points="263.54,240.45,267.5003,249.4675,267.2366,243.8168,272.8873,243.553,263.54,240.45" style="stroke:#181818;stroke-width:1;"/></g><!--reverse link FileManager to GameFileManager--><g class="link" data-entity-1="FileManager" data-entity-2="GameFileManager" data-source-line="29" data-uid="lnk19" id="link_FileManager_GameFileManager"><path codeLine="29" d="M196.4997,258.4599 C194.5097,300.5399 192.63,340 190.64,382.05" fill="none" id="FileManager-backto-GameFileManager" style="stroke:#181818;stroke-width:1;stroke-dasharray:7.0,7.0;"/><polygon fill="none" points="197.35,240.48,190.5064,258.1765,202.493,258.7433,197.35,240.48" style="stroke:#181818;stroke-width:1;"/></g><!--SRC=[fPFVQi8m5CRl-nHdiWjbc2UGmiPq33QGpHSuJKzTC6rASYeJvxilLQXTRQVLk_mvNyxtvPVSvHQNAKBXw3LZiYd52fdcA5Uu90S9QaT1eCgz12N1u8DounGRkna0Eb0iYan5HaYJ91HPmfMmLOd0N8cZOh88OHi0FC0M8ySM9UyYOpHX1WxND5oC6hiBq0RZuQX359CcfaUjPqgJysMxkjLoyHqp7yHUwZNnalGW4JNvYUivyXSiYP-HiQmxSRWsAWRfMp0z-SiiyiuCbfnlJpDhqZELLTfzKAdHEHXyIY_k1qMbkHODtI7X7nXlol5ach7TX7j7jNcDoZyesXtU7uVJRqavAvDTwxhjB9-aQls2AVLy1ViszMVGEEDmKUtyEw2V8TsEzng6eX0_ORylULMVyJYyuJC5jnAuE6Q7WLy0]--></g></svg>