<svg xmlns="http://www.w3.org/2000/svg" xmlns:xlink="http://www.w3.org/1999/xlink" contentStyleType="text/css" data-diagram-type="CLASS" height="710px" preserveAspectRatio="none" style="width:3088px;height:710px;background:#FFFFFF;" version="1.1" viewBox="0 0 3088 710" width="3088px" zoomAndPan="magnify"><defs/><g><!--cluster entities--><g class="cluster" data-entity="entities" data-source-line="3" data-uid="ent0008" id="cluster_entities"><path d="M8.5,6 L309.7891,6 A3.75,3.75 0 0 1 312.2891,8.5 L319.2891,28.2969 L3078.5,28.2969 A2.5,2.5 0 0 1 3081,30.7969 L3081,700.7 A2.5,2.5 0 0 1 3078.5,703.2 L8.5,703.2 A2.5,2.5 0 0 1 6,700.7 L6,8.5 A2.5,2.5 0 0 1 8.5,6" fill="none" style="stroke:#000000;stroke-width:1.5;"/><line style="stroke:#000000;stroke-width:1.5;" x1="6" x2="319.2891" y1="28.2969" y2="28.2969"/><text fill="#000000" font-family="sans-serif" font-size="14" font-weight="bold" lengthAdjust="spacing" textLength="300.2891" x="10" y="20.9951">it.unibo.coffebreak.model.api.entities</text></g><!--cluster character--><g class="cluster" data-entity="character" data-source-line="24" data-uid="ent0012" id="cluster_character"><path d="M32.5,267.97 L108.9551,267.97 A3.75,3.75 0 0 1 111.4551,270.47 L118.4551,290.2669 L761.5,290.2669 A2.5,2.5 0 0 1 764,292.7669 L764,513.4 A2.5,2.5 0 0 1 761.5,515.9 L32.5,515.9 A2.5,2.5 0 0 1 30,513.4 L30,270.47 A2.5,2.5 0 0 1 32.5,267.97" fill="none" style="stroke:#000000;stroke-width:1.5;"/><line style="stroke:#000000;stroke-width:1.5;" x1="30" x2="118.4551" y1="290.2669" y2="290.2669"/><text fill="#000000" font-family="sans-serif" font-size="14" font-weight="bold" lengthAdjust="spacing" textLength="75.4551" x="34" y="282.9651">character</text></g><!--cluster states--><g class="cluster" data-entity="states" data-source-line="34" data-uid="ent0014" id="cluster_states"><path d="M56.5,310.97 L106.4932,310.97 A3.75,3.75 0 0 1 108.9932,313.47 L115.9932,333.2669 L379.5,333.2669 A2.5,2.5 0 0 1 382,335.7669 L382,488.96 A2.5,2.5 0 0 1 379.5,491.46 L56.5,491.46 A2.5,2.5 0 0 1 54,488.96 L54,313.47 A2.5,2.5 0 0 1 56.5,310.97" fill="none" style="stroke:#000000;stroke-width:1.5;"/><line style="stroke:#000000;stroke-width:1.5;" x1="54" x2="115.9932" y1="333.2669" y2="333.2669"/><text fill="#000000" font-family="sans-serif" font-size="14" font-weight="bold" lengthAdjust="spacing" textLength="48.9932" x="58" y="325.9651">states</text></g><!--cluster collectible--><g class="cluster" data-entity="collectible" data-source-line="41" data-uid="ent0016" id="cluster_collectible"><path d="M790.5,335.42 L872.6152,335.42 A3.75,3.75 0 0 1 875.1152,337.92 L882.1152,357.7169 L1003.5,357.7169 A2.5,2.5 0 0 1 1006,360.2169 L1006,464.51 A2.5,2.5 0 0 1 1003.5,467.01 L790.5,467.01 A2.5,2.5 0 0 1 788,464.51 L788,337.92 A2.5,2.5 0 0 1 790.5,335.42" fill="none" style="stroke:#000000;stroke-width:1.5;"/><line style="stroke:#000000;stroke-width:1.5;" x1="788" x2="882.1152" y1="357.7169" y2="357.7169"/><text fill="#000000" font-family="sans-serif" font-size="14" font-weight="bold" lengthAdjust="spacing" textLength="81.1152" x="792" y="350.4151">collectible</text></g><!--cluster enemy--><g class="cluster" data-entity="enemy" data-source-line="45" data-uid="ent0018" id="cluster_enemy"><path d="M1032.5,335.42 L1086.1709,335.42 A3.75,3.75 0 0 1 1088.6709,337.92 L1095.6709,357.7169 L1820.5,357.7169 A2.5,2.5 0 0 1 1823,360.2169 L1823,676.7 A2.5,2.5 0 0 1 1820.5,679.2 L1032.5,679.2 A2.5,2.5 0 0 1 1030,676.7 L1030,337.92 A2.5,2.5 0 0 1 1032.5,335.42" fill="none" style="stroke:#000000;stroke-width:1.5;"/><line style="stroke:#000000;stroke-width:1.5;" x1="1030" x2="1095.6709" y1="357.7169" y2="357.7169"/><text fill="#000000" font-family="sans-serif" font-size="14" font-weight="bold" lengthAdjust="spacing" textLength="52.6709" x="1034" y="350.4151">enemy</text></g><!--cluster barrel--><g class="cluster" data-entity="barrel" data-source-line="49" data-uid="ent0020" id="cluster_barrel"><path d="M1056.5,539.9 L1105.0713,539.9 A3.75,3.75 0 0 1 1107.5713,542.4 L1114.5713,562.1969 L1682.5,562.1969 A2.5,2.5 0 0 1 1685,564.6969 L1685,652.7 A2.5,2.5 0 0 1 1682.5,655.2 L1056.5,655.2 A2.5,2.5 0 0 1 1054,652.7 L1054,542.4 A2.5,2.5 0 0 1 1056.5,539.9" fill="none" style="stroke:#000000;stroke-width:1.5;"/><line style="stroke:#000000;stroke-width:1.5;" x1="1054" x2="1114.5713" y1="562.1969" y2="562.1969"/><text fill="#000000" font-family="sans-serif" font-size="14" font-weight="bold" lengthAdjust="spacing" textLength="47.5713" x="1058" y="554.8951">barrel</text></g><!--cluster fire--><g class="cluster" data-entity="fire" data-source-line="55" data-uid="ent0023" id="cluster_fire"><path d="M1711.5,548.05 L1739.7891,548.05 A3.75,3.75 0 0 1 1742.2891,550.55 L1749.2891,570.3469 L1796.5,570.3469 A2.5,2.5 0 0 1 1799,572.8469 L1799,644.55 A2.5,2.5 0 0 1 1796.5,647.05 L1711.5,647.05 A2.5,2.5 0 0 1 1709,644.55 L1709,550.55 A2.5,2.5 0 0 1 1711.5,548.05" fill="none" style="stroke:#000000;stroke-width:1.5;"/><line style="stroke:#000000;stroke-width:1.5;" x1="1709" x2="1749.2891" y1="570.3469" y2="570.3469"/><text fill="#000000" font-family="sans-serif" font-size="14" font-weight="bold" lengthAdjust="spacing" textLength="27.2891" x="1713" y="563.0451">fire</text></g><!--cluster npc--><g class="cluster" data-entity="npc" data-source-line="57" data-uid="ent0025" id="cluster_npc"><path d="M1849.5,335.42 L1878.7871,335.42 A3.75,3.75 0 0 1 1881.2871,337.92 L1888.2871,357.7169 L2381.5,357.7169 A2.5,2.5 0 0 1 2384,360.2169 L2384,464.51 A2.5,2.5 0 0 1 2381.5,467.01 L1849.5,467.01 A2.5,2.5 0 0 1 1847,464.51 L1847,337.92 A2.5,2.5 0 0 1 1849.5,335.42" fill="none" style="stroke:#000000;stroke-width:1.5;"/><line style="stroke:#000000;stroke-width:1.5;" x1="1847" x2="1888.2871" y1="357.7169" y2="357.7169"/><text fill="#000000" font-family="sans-serif" font-size="14" font-weight="bold" lengthAdjust="spacing" textLength="28.2871" x="1851" y="350.4151">npc</text></g><!--cluster structure--><g class="cluster" data-entity="structure" data-source-line="65" data-uid="ent0028" id="cluster_structure"><path d="M2410.5,327.27 L2484.7539,327.27 A3.75,3.75 0 0 1 2487.2539,329.77 L2494.2539,349.5669 L3054.5,349.5669 A2.5,2.5 0 0 1 3057,352.0669 L3057,472.66 A2.5,2.5 0 0 1 3054.5,475.16 L2410.5,475.16 A2.5,2.5 0 0 1 2408,472.66 L2408,329.77 A2.5,2.5 0 0 1 2410.5,327.27" fill="none" style="stroke:#000000;stroke-width:1.5;"/><line style="stroke:#000000;stroke-width:1.5;" x1="2408" x2="2494.2539" y1="349.5669" y2="349.5669"/><text fill="#000000" font-family="sans-serif" font-size="14" font-weight="bold" lengthAdjust="spacing" textLength="73.2539" x="2412" y="342.2651">structure</text></g><!--class Entity--><g class="entity" data-entity="Entity" data-source-line="3" data-uid="ent0002" id="entity_Entity"><rect fill="#F1F1F1" height="210.9688" rx="2.5" ry="2.5" style="stroke:#181818;stroke-width:0.5;" width="251.374" x="1794.31" y="41"/><ellipse cx="1895.311" cy="57" fill="#B4A7E5" rx="11" ry="11" style="stroke:#181818;stroke-width:1;"/><path d="M1891.2329,52.7656 L1891.2329,50.6094 L1898.6235,50.6094 L1898.6235,52.7656 L1896.1547,52.7656 L1896.1547,60.8438 L1898.6235,60.8438 L1898.6235,63 L1891.2329,63 L1891.2329,60.8438 L1893.7016,60.8438 L1893.7016,52.7656 L1891.2329,52.7656 Z " fill="#000000"/><text fill="#000000" font-family="sans-serif" font-size="14" font-style="italic" lengthAdjust="spacing" textLength="40.8721" x="1915.811" y="61.8467">Entity</text><line style="stroke:#181818;stroke-width:0.5;" x1="1795.31" x2="2044.684" y1="73" y2="73"/><line style="stroke:#181818;stroke-width:0.5;" x1="1795.31" x2="2044.684" y1="81" y2="81"/><ellipse cx="1805.31" cy="94.6484" fill="#84BE84" rx="3" ry="3" style="stroke:#038048;stroke-width:1;"/><text fill="#000000" font-family="sans-serif" font-size="14" font-style="italic" lengthAdjust="spacing" textLength="168.0684" x="1814.31" y="97.9951">Position2D getPosition()</text><ellipse cx="1805.31" cy="110.9453" fill="#84BE84" rx="3" ry="3" style="stroke:#038048;stroke-width:1;"/><text fill="#000000" font-family="sans-serif" font-size="14" font-style="italic" lengthAdjust="spacing" textLength="196.1025" x="1814.31" y="114.292">void setPosition(Position2D)</text><ellipse cx="1805.31" cy="127.2422" fill="#84BE84" rx="3" ry="3" style="stroke:#038048;stroke-width:1;"/><text fill="#000000" font-family="sans-serif" font-size="14" font-style="italic" lengthAdjust="spacing" textLength="225.374" x="1814.31" y="130.5889">BoundingBox2D getDimension()</text><ellipse cx="1805.31" cy="143.5391" fill="#84BE84" rx="3" ry="3" style="stroke:#038048;stroke-width:1;"/><text fill="#000000" font-family="sans-serif" font-size="14" font-style="italic" lengthAdjust="spacing" textLength="159.7559" x="1814.31" y="146.8857">Vector2D getVelocity()</text><ellipse cx="1805.31" cy="159.8359" fill="#84BE84" rx="3" ry="3" style="stroke:#038048;stroke-width:1;"/><text fill="#000000" font-family="sans-serif" font-size="14" font-style="italic" lengthAdjust="spacing" textLength="187.79" x="1814.31" y="163.1826">void setVelocity(Vector2D)</text><ellipse cx="1805.31" cy="176.1328" fill="#84BE84" rx="3" ry="3" style="stroke:#038048;stroke-width:1;"/><text fill="#000000" font-family="sans-serif" font-size="14" font-style="italic" lengthAdjust="spacing" textLength="205.2148" x="1814.31" y="179.4795">void setFacingRight(boolean)</text><ellipse cx="1805.31" cy="192.4297" fill="#84BE84" rx="3" ry="3" style="stroke:#038048;stroke-width:1;"/><text fill="#000000" font-family="sans-serif" font-size="14" font-style="italic" lengthAdjust="spacing" textLength="165.375" x="1814.31" y="195.7764">boolean isFacingRight()</text><ellipse cx="1805.31" cy="208.7266" fill="#84BE84" rx="3" ry="3" style="stroke:#038048;stroke-width:1;"/><text fill="#000000" font-family="sans-serif" font-size="14" font-style="italic" lengthAdjust="spacing" textLength="173.9336" x="1814.31" y="212.0732">boolean intersect(Entity)</text><ellipse cx="1805.31" cy="225.0234" fill="#84BE84" rx="3" ry="3" style="stroke:#038048;stroke-width:1;"/><text fill="#000000" font-family="sans-serif" font-size="14" font-style="italic" lengthAdjust="spacing" textLength="161.9434" x="1814.31" y="228.3701">void onCollision(Entity)</text><ellipse cx="1805.31" cy="241.3203" fill="#84BE84" rx="3" ry="3" style="stroke:#038048;stroke-width:1;"/><text fill="#000000" font-family="sans-serif" font-size="14" font-style="italic" lengthAdjust="spacing" textLength="125.7813" x="1814.31" y="244.667">void update(float)</text></g><!--class LivesManager--><g class="entity" data-entity="LivesManager" data-source-line="15" data-uid="ent0009" id="entity_LivesManager"><rect fill="#F1F1F1" height="113.1875" rx="2.5" ry="2.5" style="stroke:#181818;stroke-width:0.5;" width="142.7852" x="2459.61" y="89.9"/><ellipse cx="2480.7017" cy="105.9" fill="#B4A7E5" rx="11" ry="11" style="stroke:#181818;stroke-width:1;"/><path d="M2476.6236,101.6656 L2476.6236,99.5094 L2484.0142,99.5094 L2484.0142,101.6656 L2481.5454,101.6656 L2481.5454,109.7438 L2484.0142,109.7438 L2484.0142,111.9 L2476.6236,111.9 L2476.6236,109.7438 L2479.0923,109.7438 L2479.0923,101.6656 L2476.6236,101.6656 Z " fill="#000000"/><text fill="#000000" font-family="sans-serif" font-size="14" font-style="italic" lengthAdjust="spacing" textLength="97.248" x="2496.0554" y="110.7467">LivesManager</text><line style="stroke:#181818;stroke-width:0.5;" x1="2460.61" x2="2601.3952" y1="121.9" y2="121.9"/><line style="stroke:#181818;stroke-width:0.5;" x1="2460.61" x2="2601.3952" y1="129.9" y2="129.9"/><ellipse cx="2470.61" cy="143.5484" fill="#84BE84" rx="3" ry="3" style="stroke:#038048;stroke-width:1;"/><text fill="#000000" font-family="sans-serif" font-size="14" font-style="italic" lengthAdjust="spacing" textLength="92.4971" x="2479.61" y="146.8951">int getLives()</text><ellipse cx="2470.61" cy="159.8453" fill="#84BE84" rx="3" ry="3" style="stroke:#038048;stroke-width:1;"/><text fill="#000000" font-family="sans-serif" font-size="14" font-style="italic" lengthAdjust="spacing" textLength="98.5947" x="2479.61" y="163.192">void loseLife()</text><ellipse cx="2470.61" cy="176.1422" fill="#84BE84" rx="3" ry="3" style="stroke:#038048;stroke-width:1;"/><text fill="#000000" font-family="sans-serif" font-size="14" font-style="italic" lengthAdjust="spacing" textLength="116.6484" x="2479.61" y="179.4889">void resetLives()</text><ellipse cx="2470.61" cy="192.4391" fill="#84BE84" rx="3" ry="3" style="stroke:#038048;stroke-width:1;"/><text fill="#000000" font-family="sans-serif" font-size="14" font-style="italic" lengthAdjust="spacing" textLength="116.7852" x="2479.61" y="195.7857">boolean isAlive()</text></g><!--class Movable--><g class="entity" data-entity="Movable" data-source-line="21" data-uid="ent0010" id="entity_Movable"><rect fill="#F1F1F1" height="64.2969" rx="2.5" ry="2.5" style="stroke:#181818;stroke-width:0.5;" width="141.5547" x="2826.22" y="114.34"/><ellipse cx="2864.0153" cy="130.34" fill="#B4A7E5" rx="11" ry="11" style="stroke:#181818;stroke-width:1;"/><path d="M2859.9372,126.1056 L2859.9372,123.9494 L2867.3278,123.9494 L2867.3278,126.1056 L2864.8591,126.1056 L2864.8591,134.1838 L2867.3278,134.1838 L2867.3278,136.34 L2859.9372,136.34 L2859.9372,134.1838 L2862.4059,134.1838 L2862.4059,126.1056 L2859.9372,126.1056 Z " fill="#000000"/><text fill="#000000" font-family="sans-serif" font-size="14" font-style="italic" lengthAdjust="spacing" textLength="58.8984" x="2883.0809" y="135.1867">Movable</text><line style="stroke:#181818;stroke-width:0.5;" x1="2827.22" x2="2966.7747" y1="146.34" y2="146.34"/><line style="stroke:#181818;stroke-width:0.5;" x1="2827.22" x2="2966.7747" y1="154.34" y2="154.34"/><ellipse cx="2837.22" cy="167.9884" fill="#84BE84" rx="3" ry="3" style="stroke:#038048;stroke-width:1;"/><text fill="#000000" font-family="sans-serif" font-size="14" font-style="italic" lengthAdjust="spacing" textLength="115.5547" x="2846.22" y="171.3351">void move(float)</text></g><!--class Character--><g class="entity" data-entity="Character" data-source-line="24" data-uid="ent0011" id="entity_Character"><rect fill="#F1F1F1" height="178.375" rx="2.5" ry="2.5" style="stroke:#181818;stroke-width:0.5;" width="346.8994" x="401.55" y="321.53"/><ellipse cx="536.1906" cy="337.53" fill="#B4A7E5" rx="11" ry="11" style="stroke:#181818;stroke-width:1;"/><path d="M532.1125,333.2956 L532.1125,331.1394 L539.5031,331.1394 L539.5031,333.2956 L537.0344,333.2956 L537.0344,341.3738 L539.5031,341.3738 L539.5031,343.53 L532.1125,343.53 L532.1125,341.3738 L534.5813,341.3738 L534.5813,333.2956 L532.1125,333.2956 Z " fill="#000000"/><text fill="#000000" font-family="sans-serif" font-size="14" font-style="italic" lengthAdjust="spacing" textLength="69.1182" x="556.6906" y="342.3767">Character</text><line style="stroke:#181818;stroke-width:0.5;" x1="402.55" x2="747.4494" y1="353.53" y2="353.53"/><line style="stroke:#181818;stroke-width:0.5;" x1="402.55" x2="747.4494" y1="361.53" y2="361.53"/><ellipse cx="412.55" cy="375.1784" fill="#84BE84" rx="3" ry="3" style="stroke:#038048;stroke-width:1;"/><text fill="#000000" font-family="sans-serif" font-size="14" font-style="italic" lengthAdjust="spacing" textLength="320.8994" x="421.55" y="378.5251">void changeState(Supplier&lt;CharacterState&gt;)</text><ellipse cx="412.55" cy="391.4753" fill="#84BE84" rx="3" ry="3" style="stroke:#038048;stroke-width:1;"/><text fill="#000000" font-family="sans-serif" font-size="14" font-style="italic" lengthAdjust="spacing" textLength="98.5947" x="421.55" y="394.822">void loseLife()</text><ellipse cx="412.55" cy="407.7722" fill="#84BE84" rx="3" ry="3" style="stroke:#038048;stroke-width:1;"/><text fill="#000000" font-family="sans-serif" font-size="14" font-style="italic" lengthAdjust="spacing" textLength="154.2256" x="421.55" y="411.1189">boolean isOnGround()</text><ellipse cx="412.55" cy="424.0691" fill="#84BE84" rx="3" ry="3" style="stroke:#038048;stroke-width:1;"/><text fill="#000000" font-family="sans-serif" font-size="14" font-style="italic" lengthAdjust="spacing" textLength="157.8828" x="421.55" y="427.4157">boolean isGameOver()</text><ellipse cx="412.55" cy="440.3659" fill="#84BE84" rx="3" ry="3" style="stroke:#038048;stroke-width:1;"/><text fill="#000000" font-family="sans-serif" font-size="14" font-style="italic" lengthAdjust="spacing" textLength="240.1328" x="421.55" y="443.7126">ScoreManager getScoreManager()</text><ellipse cx="412.55" cy="456.6628" fill="#84BE84" rx="3" ry="3" style="stroke:#038048;stroke-width:1;"/><text fill="#000000" font-family="sans-serif" font-size="14" font-style="italic" lengthAdjust="spacing" textLength="92.4971" x="421.55" y="460.0095">int getLives()</text><ellipse cx="412.55" cy="472.9597" fill="#84BE84" rx="3" ry="3" style="stroke:#038048;stroke-width:1;"/><text fill="#000000" font-family="sans-serif" font-size="14" font-style="italic" lengthAdjust="spacing" textLength="96.1338" x="421.55" y="476.3064">int getScore()</text><ellipse cx="412.55" cy="489.2566" fill="#84BE84" rx="3" ry="3" style="stroke:#038048;stroke-width:1;"/><text fill="#000000" font-family="sans-serif" font-size="14" font-style="italic" lengthAdjust="spacing" textLength="210.3076" x="421.55" y="492.6032">void setCommand(Command)</text></g><!--class CharacterState--><g class="entity" data-entity="CharacterState" data-source-line="34" data-uid="ent0013" id="entity_CharacterState"><rect fill="#F1F1F1" height="129.4844" rx="2.5" ry="2.5" style="stroke:#181818;stroke-width:0.5;" width="296.2383" x="69.88" y="345.97"/><ellipse cx="160.6613" cy="361.97" fill="#B4A7E5" rx="11" ry="11" style="stroke:#181818;stroke-width:1;"/><path d="M156.5831,357.7356 L156.5831,355.5794 L163.9738,355.5794 L163.9738,357.7356 L161.505,357.7356 L161.505,365.8138 L163.9738,365.8138 L163.9738,367.97 L156.5831,367.97 L156.5831,365.8138 L159.0519,365.8138 L159.0519,357.7356 L156.5831,357.7356 Z " fill="#000000"/><text fill="#000000" font-family="sans-serif" font-size="14" font-style="italic" lengthAdjust="spacing" textLength="106.1758" x="181.1613" y="366.8167">CharacterState</text><line style="stroke:#181818;stroke-width:0.5;" x1="70.88" x2="365.1183" y1="377.97" y2="377.97"/><line style="stroke:#181818;stroke-width:0.5;" x1="70.88" x2="365.1183" y1="385.97" y2="385.97"/><ellipse cx="80.88" cy="399.6184" fill="#84BE84" rx="3" ry="3" style="stroke:#038048;stroke-width:1;"/><text fill="#000000" font-family="sans-serif" font-size="14" font-style="italic" lengthAdjust="spacing" textLength="169.1348" x="89.88" y="402.9651">void onEnter(Character)</text><ellipse cx="80.88" cy="415.9153" fill="#84BE84" rx="3" ry="3" style="stroke:#038048;stroke-width:1;"/><text fill="#000000" font-family="sans-serif" font-size="14" font-style="italic" lengthAdjust="spacing" textLength="158.0674" x="89.88" y="419.262">void onExit(Character)</text><ellipse cx="80.88" cy="432.2122" fill="#84BE84" rx="3" ry="3" style="stroke:#038048;stroke-width:1;"/><text fill="#000000" font-family="sans-serif" font-size="14" font-style="italic" lengthAdjust="spacing" textLength="203.7998" x="89.88" y="435.5589">void update(Character, float)</text><ellipse cx="80.88" cy="448.5091" fill="#84BE84" rx="3" ry="3" style="stroke:#038048;stroke-width:1;"/><text fill="#000000" font-family="sans-serif" font-size="14" font-style="italic" lengthAdjust="spacing" textLength="270.2383" x="89.88" y="451.8557">void handleCollision(Character, Entity)</text><ellipse cx="80.88" cy="464.8059" fill="#84BE84" rx="3" ry="3" style="stroke:#038048;stroke-width:1;"/><text fill="#000000" font-family="sans-serif" font-size="14" font-style="italic" lengthAdjust="spacing" textLength="136.5752" x="89.88" y="468.1526">boolean canClimb()</text></g><!--class Collectible--><g class="entity" data-entity="Collectible" data-source-line="41" data-uid="ent0015" id="entity_Collectible"><rect fill="#F1F1F1" height="80.5938" rx="2.5" ry="2.5" style="stroke:#181818;stroke-width:0.5;" width="185.9609" x="804.02" y="370.42"/><ellipse cx="856.1509" cy="386.42" fill="#B4A7E5" rx="11" ry="11" style="stroke:#181818;stroke-width:1;"/><path d="M852.0727,382.1856 L852.0727,380.0294 L859.4634,380.0294 L859.4634,382.1856 L856.9946,382.1856 L856.9946,390.2638 L859.4634,390.2638 L859.4634,392.42 L852.0727,392.42 L852.0727,390.2638 L854.5415,390.2638 L854.5415,382.1856 L852.0727,382.1856 Z " fill="#000000"/><text fill="#000000" font-family="sans-serif" font-size="14" font-style="italic" lengthAdjust="spacing" textLength="73.1992" x="876.6509" y="391.2667">Collectible</text><line style="stroke:#181818;stroke-width:0.5;" x1="805.02" x2="988.9809" y1="402.42" y2="402.42"/><line style="stroke:#181818;stroke-width:0.5;" x1="805.02" x2="988.9809" y1="410.42" y2="410.42"/><ellipse cx="815.02" cy="424.0684" fill="#84BE84" rx="3" ry="3" style="stroke:#038048;stroke-width:1;"/><text fill="#000000" font-family="sans-serif" font-size="14" font-style="italic" lengthAdjust="spacing" textLength="159.9609" x="824.02" y="427.4151">void collect(Character)</text><ellipse cx="815.02" cy="440.3653" fill="#84BE84" rx="3" ry="3" style="stroke:#038048;stroke-width:1;"/><text fill="#000000" font-family="sans-serif" font-size="14" font-style="italic" lengthAdjust="spacing" textLength="147.9502" x="824.02" y="443.712">boolean isCollected()</text></g><!--class Enemy--><g class="entity" data-entity="Enemy" data-source-line="45" data-uid="ent0017" id="entity_Enemy"><rect fill="#F1F1F1" height="80.5938" rx="2.5" ry="2.5" style="stroke:#181818;stroke-width:0.5;" width="180.8135" x="1573.59" y="370.42"/><ellipse cx="1635.6193" cy="386.42" fill="#B4A7E5" rx="11" ry="11" style="stroke:#181818;stroke-width:1;"/><path d="M1631.5412,382.1856 L1631.5412,380.0294 L1638.9318,380.0294 L1638.9318,382.1856 L1636.463,382.1856 L1636.463,390.2638 L1638.9318,390.2638 L1638.9318,392.42 L1631.5412,392.42 L1631.5412,390.2638 L1634.0099,390.2638 L1634.0099,382.1856 L1631.5412,382.1856 Z " fill="#000000"/><text fill="#000000" font-family="sans-serif" font-size="14" font-style="italic" lengthAdjust="spacing" textLength="48.2549" x="1656.1193" y="391.2667">Enemy</text><line style="stroke:#181818;stroke-width:0.5;" x1="1574.59" x2="1753.4035" y1="402.42" y2="402.42"/><line style="stroke:#181818;stroke-width:0.5;" x1="1574.59" x2="1753.4035" y1="410.42" y2="410.42"/><ellipse cx="1584.59" cy="424.0684" fill="#84BE84" rx="3" ry="3" style="stroke:#038048;stroke-width:1;"/><text fill="#000000" font-family="sans-serif" font-size="14" font-style="italic" lengthAdjust="spacing" textLength="97.8906" x="1593.59" y="427.4151">void destroy()</text><ellipse cx="1584.59" cy="440.3653" fill="#84BE84" rx="3" ry="3" style="stroke:#038048;stroke-width:1;"/><text fill="#000000" font-family="sans-serif" font-size="14" font-style="italic" lengthAdjust="spacing" textLength="154.8135" x="1593.59" y="443.712">boolean isDestroyed()</text></g><!--class Barrel--><g class="entity" data-entity="Barrel" data-source-line="49" data-uid="ent0019" id="entity_Barrel"><rect fill="#F1F1F1" height="64.2969" rx="2.5" ry="2.5" style="stroke:#181818;stroke-width:0.5;" width="237.8662" x="1070.07" y="574.9"/><ellipse cx="1163.654" cy="590.9" fill="#B4A7E5" rx="11" ry="11" style="stroke:#181818;stroke-width:1;"/><path d="M1159.5759,586.6656 L1159.5759,584.5094 L1166.9665,584.5094 L1166.9665,586.6656 L1164.4977,586.6656 L1164.4977,594.7438 L1166.9665,594.7438 L1166.9665,596.9 L1159.5759,596.9 L1159.5759,594.7438 L1162.0446,594.7438 L1162.0446,586.6656 L1159.5759,586.6656 Z " fill="#000000"/><text fill="#000000" font-family="sans-serif" font-size="14" font-style="italic" lengthAdjust="spacing" textLength="42.1982" x="1184.154" y="595.7467">Barrel</text><line style="stroke:#181818;stroke-width:0.5;" x1="1071.07" x2="1306.9362" y1="606.9" y2="606.9"/><line style="stroke:#181818;stroke-width:0.5;" x1="1071.07" x2="1306.9362" y1="614.9" y2="614.9"/><ellipse cx="1081.07" cy="628.5484" fill="#84BE84" rx="3" ry="3" style="stroke:#038048;stroke-width:1;"/><text fill="#000000" font-family="sans-serif" font-size="14" font-style="italic" lengthAdjust="spacing" textLength="211.8662" x="1090.07" y="631.8951">boolean canTransformToFire()</text></g><!--class BarrelFactory--><g class="entity" data-entity="BarrelFactory" data-source-line="52" data-uid="ent0021" id="entity_BarrelFactory"><rect fill="#F1F1F1" height="64.2969" rx="2.5" ry="2.5" style="stroke:#181818;stroke-width:0.5;" width="326.0703" x="1342.96" y="574.9"/><ellipse cx="1454.4336" cy="590.9" fill="#B4A7E5" rx="11" ry="11" style="stroke:#181818;stroke-width:1;"/><path d="M1450.3555,586.6656 L1450.3555,584.5094 L1457.7461,584.5094 L1457.7461,586.6656 L1455.2774,586.6656 L1455.2774,594.7438 L1457.7461,594.7438 L1457.7461,596.9 L1450.3555,596.9 L1450.3555,594.7438 L1452.8243,594.7438 L1452.8243,586.6656 L1450.3555,586.6656 Z " fill="#000000"/><text fill="#000000" font-family="sans-serif" font-size="14" font-style="italic" lengthAdjust="spacing" textLength="94.623" x="1474.9336" y="595.7467">BarrelFactory</text><line style="stroke:#181818;stroke-width:0.5;" x1="1343.96" x2="1668.0303" y1="606.9" y2="606.9"/><line style="stroke:#181818;stroke-width:0.5;" x1="1343.96" x2="1668.0303" y1="614.9" y2="614.9"/><ellipse cx="1353.96" cy="628.5484" fill="#84BE84" rx="3" ry="3" style="stroke:#038048;stroke-width:1;"/><text fill="#000000" font-family="sans-serif" font-size="14" font-style="italic" lengthAdjust="spacing" textLength="300.0703" x="1362.96" y="631.8951">Barrel createBarrel(Position2D, Command)</text></g><!--class Fire--><g class="entity" data-entity="Fire" data-source-line="55" data-uid="ent0022" id="entity_Fire"><rect fill="#F1F1F1" height="48" rx="2.5" ry="2.5" style="stroke:#181818;stroke-width:0.5;" width="58.3115" x="1724.84" y="583.05"/><ellipse cx="1739.84" cy="599.05" fill="#B4A7E5" rx="11" ry="11" style="stroke:#181818;stroke-width:1;"/><path d="M1735.7619,594.8156 L1735.7619,592.6594 L1743.1525,592.6594 L1743.1525,594.8156 L1740.6838,594.8156 L1740.6838,602.8938 L1743.1525,602.8938 L1743.1525,605.05 L1735.7619,605.05 L1735.7619,602.8938 L1738.2306,602.8938 L1738.2306,594.8156 L1735.7619,594.8156 Z " fill="#000000"/><text fill="#000000" font-family="sans-serif" font-size="14" font-style="italic" lengthAdjust="spacing" textLength="26.3115" x="1753.84" y="603.8967">Fire</text><line style="stroke:#181818;stroke-width:0.5;" x1="1725.84" x2="1782.1515" y1="615.05" y2="615.05"/><line style="stroke:#181818;stroke-width:0.5;" x1="1725.84" x2="1782.1515" y1="623.05" y2="623.05"/></g><!--class Antagonist--><g class="entity" data-entity="Antagonist" data-source-line="57" data-uid="ent0024" id="entity_Antagonist"><rect fill="#F1F1F1" height="80.5938" rx="2.5" ry="2.5" style="stroke:#181818;stroke-width:0.5;" width="302.6025" x="1862.7" y="370.42"/><ellipse cx="1971.993" cy="386.42" fill="#B4A7E5" rx="11" ry="11" style="stroke:#181818;stroke-width:1;"/><path d="M1967.9148,382.1856 L1967.9148,380.0294 L1975.3055,380.0294 L1975.3055,382.1856 L1972.8367,382.1856 L1972.8367,390.2638 L1975.3055,390.2638 L1975.3055,392.42 L1967.9148,392.42 L1967.9148,390.2638 L1970.3836,390.2638 L1970.3836,382.1856 L1967.9148,382.1856 Z " fill="#000000"/><text fill="#000000" font-family="sans-serif" font-size="14" font-style="italic" lengthAdjust="spacing" textLength="75.5166" x="1992.493" y="391.2667">Antagonist</text><line style="stroke:#181818;stroke-width:0.5;" x1="1863.7" x2="2164.3025" y1="402.42" y2="402.42"/><line style="stroke:#181818;stroke-width:0.5;" x1="1863.7" x2="2164.3025" y1="410.42" y2="410.42"/><ellipse cx="1873.7" cy="424.0684" fill="#84BE84" rx="3" ry="3" style="stroke:#038048;stroke-width:1;"/><text fill="#000000" font-family="sans-serif" font-size="14" font-style="italic" lengthAdjust="spacing" textLength="139.9043" x="1882.7" y="427.4151">Barrel throwBarrel()</text><ellipse cx="1873.7" cy="440.3653" fill="#84BE84" rx="3" ry="3" style="stroke:#038048;stroke-width:1;"/><text fill="#000000" font-family="sans-serif" font-size="14" font-style="italic" lengthAdjust="spacing" textLength="276.6025" x="1882.7" y="443.712">Optional&lt;Barrel&gt; tryThrowBarrel(float)</text></g><!--class Target--><g class="entity" data-entity="Target" data-source-line="61" data-uid="ent0026" id="entity_Target"><rect fill="#F1F1F1" height="80.5938" rx="2.5" ry="2.5" style="stroke:#181818;stroke-width:0.5;" width="168.2354" x="2199.88" y="370.42"/><ellipse cx="2256.8097" cy="386.42" fill="#B4A7E5" rx="11" ry="11" style="stroke:#181818;stroke-width:1;"/><path d="M2252.7316,382.1856 L2252.7316,380.0294 L2260.1222,380.0294 L2260.1222,382.1856 L2257.6534,382.1856 L2257.6534,390.2638 L2260.1222,390.2638 L2260.1222,392.42 L2252.7316,392.42 L2252.7316,390.2638 L2255.2003,390.2638 L2255.2003,382.1856 L2252.7316,382.1856 Z " fill="#000000"/><text fill="#000000" font-family="sans-serif" font-size="14" font-style="italic" lengthAdjust="spacing" textLength="45.876" x="2277.3097" y="391.2667">Target</text><line style="stroke:#181818;stroke-width:0.5;" x1="2200.88" x2="2367.1154" y1="402.42" y2="402.42"/><line style="stroke:#181818;stroke-width:0.5;" x1="2200.88" x2="2367.1154" y1="410.42" y2="410.42"/><ellipse cx="2210.88" cy="424.0684" fill="#84BE84" rx="3" ry="3" style="stroke:#038048;stroke-width:1;"/><text fill="#000000" font-family="sans-serif" font-size="14" font-style="italic" lengthAdjust="spacing" textLength="91.8477" x="2219.88" y="427.4151">void rescue()</text><ellipse cx="2210.88" cy="440.3653" fill="#84BE84" rx="3" ry="3" style="stroke:#038048;stroke-width:1;"/><text fill="#000000" font-family="sans-serif" font-size="14" font-style="italic" lengthAdjust="spacing" textLength="142.2354" x="2219.88" y="443.712">boolean isRescued()</text></g><!--class Ladder--><g class="entity" data-entity="Ladder" data-source-line="65" data-uid="ent0027" id="entity_Ladder"><rect fill="#F1F1F1" height="48" rx="2.5" ry="2.5" style="stroke:#181818;stroke-width:0.5;" width="80.5215" x="2524.74" y="386.72"/><ellipse cx="2539.74" cy="402.72" fill="#B4A7E5" rx="11" ry="11" style="stroke:#181818;stroke-width:1;"/><path d="M2535.6619,398.4856 L2535.6619,396.3294 L2543.0525,396.3294 L2543.0525,398.4856 L2540.5838,398.4856 L2540.5838,406.5638 L2543.0525,406.5638 L2543.0525,408.72 L2535.6619,408.72 L2535.6619,406.5638 L2538.1306,406.5638 L2538.1306,398.4856 L2535.6619,398.4856 Z " fill="#000000"/><text fill="#000000" font-family="sans-serif" font-size="14" font-style="italic" lengthAdjust="spacing" textLength="48.5215" x="2553.74" y="407.5667">Ladder</text><line style="stroke:#181818;stroke-width:0.5;" x1="2525.74" x2="2604.2615" y1="418.72" y2="418.72"/><line style="stroke:#181818;stroke-width:0.5;" x1="2525.74" x2="2604.2615" y1="426.72" y2="426.72"/></g><!--class Platform--><g class="entity" data-entity="Platform" data-source-line="67" data-uid="ent0029" id="entity_Platform"><rect fill="#F1F1F1" height="96.8906" rx="2.5" ry="2.5" style="stroke:#181818;stroke-width:0.5;" width="226.3955" x="2814.8" y="362.27"/><ellipse cx="2894.1037" cy="378.27" fill="#B4A7E5" rx="11" ry="11" style="stroke:#181818;stroke-width:1;"/><path d="M2890.0256,374.0356 L2890.0256,371.8794 L2897.4162,371.8794 L2897.4162,374.0356 L2894.9475,374.0356 L2894.9475,382.1138 L2897.4162,382.1138 L2897.4162,384.27 L2890.0256,384.27 L2890.0256,382.1138 L2892.4943,382.1138 L2892.4943,374.0356 L2890.0256,374.0356 Z " fill="#000000"/><text fill="#000000" font-family="sans-serif" font-size="14" font-style="italic" lengthAdjust="spacing" textLength="59.2881" x="2914.6037" y="383.1167">Platform</text><line style="stroke:#181818;stroke-width:0.5;" x1="2815.8" x2="3040.1955" y1="394.27" y2="394.27"/><line style="stroke:#181818;stroke-width:0.5;" x1="2815.8" x2="3040.1955" y1="402.27" y2="402.27"/><ellipse cx="2825.8" cy="415.9184" fill="#84BE84" rx="3" ry="3" style="stroke:#038048;stroke-width:1;"/><text fill="#000000" font-family="sans-serif" font-size="14" font-style="italic" lengthAdjust="spacing" textLength="116.0469" x="2834.8" y="419.2651">Slope getSlope()</text><ellipse cx="2825.8" cy="432.2153" fill="#84BE84" rx="3" ry="3" style="stroke:#038048;stroke-width:1;"/><text fill="#000000" font-family="sans-serif" font-size="14" font-style="italic" lengthAdjust="spacing" textLength="200.3955" x="2834.8" y="435.562">boolean isSupporting(Entity)</text><ellipse cx="2825.8" cy="448.5122" fill="#84BE84" rx="3" ry="3" style="stroke:#038048;stroke-width:1;"/><text fill="#000000" font-family="sans-serif" font-size="14" font-style="italic" lengthAdjust="spacing" textLength="137.1563" x="2834.8" y="451.8589">boolean canBreak()</text></g><!--class Platform$Slope--><g class="entity" data-entity="Platform$Slope" data-source-line="72" data-uid="ent0030" id="entity_Platform$Slope"><rect fill="#F1F1F1" height="96.8906" rx="2.5" ry="2.5" style="stroke:#181818;stroke-width:0.5;" width="139.0371" x="2640.48" y="362.27"/><ellipse cx="2655.48" cy="378.27" fill="#EB937F" rx="11" ry="11" style="stroke:#181818;stroke-width:1;"/><path d="M2659.5894,384.27 L2651.8706,384.27 L2651.8706,371.8794 L2659.5894,371.8794 L2659.5894,374.0356 L2654.3238,374.0356 L2654.3238,376.7075 L2659.0894,376.7075 L2659.0894,378.8638 L2654.3238,378.8638 L2654.3238,382.1138 L2659.5894,382.1138 L2659.5894,384.27 Z " fill="#000000"/><text fill="#000000" font-family="sans-serif" font-size="14" lengthAdjust="spacing" textLength="107.0371" x="2669.48" y="383.1167">Platform$Slope</text><line style="stroke:#181818;stroke-width:0.5;" x1="2641.48" x2="2778.5171" y1="394.27" y2="394.27"/><text fill="#000000" font-family="sans-serif" font-size="14" lengthAdjust="spacing" textLength="33.25" x="2646.48" y="411.2651">LEFT</text><text fill="#000000" font-family="sans-serif" font-size="14" lengthAdjust="spacing" textLength="43.7842" x="2646.48" y="427.562">RIGHT</text><text fill="#000000" font-family="sans-serif" font-size="14" lengthAdjust="spacing" textLength="33.9814" x="2646.48" y="443.8589">FLAT</text><line style="stroke:#181818;stroke-width:0.5;" x1="2641.48" x2="2778.5171" y1="451.1606" y2="451.1606"/></g><!--class Tank--><g class="entity" data-entity="Tank" data-source-line="77" data-uid="ent0031" id="entity_Tank"><rect fill="#F1F1F1" height="48" rx="2.5" ry="2.5" style="stroke:#181818;stroke-width:0.5;" width="66.1113" x="2423.94" y="386.72"/><ellipse cx="2438.94" cy="402.72" fill="#B4A7E5" rx="11" ry="11" style="stroke:#181818;stroke-width:1;"/><path d="M2434.8619,398.4856 L2434.8619,396.3294 L2442.2525,396.3294 L2442.2525,398.4856 L2439.7838,398.4856 L2439.7838,406.5638 L2442.2525,406.5638 L2442.2525,408.72 L2434.8619,408.72 L2434.8619,406.5638 L2437.3306,406.5638 L2437.3306,398.4856 L2434.8619,398.4856 Z " fill="#000000"/><text fill="#000000" font-family="sans-serif" font-size="14" font-style="italic" lengthAdjust="spacing" textLength="34.1113" x="2452.94" y="407.5667">Tank</text><line style="stroke:#181818;stroke-width:0.5;" x1="2424.94" x2="2489.0513" y1="418.72" y2="418.72"/><line style="stroke:#181818;stroke-width:0.5;" x1="2424.94" x2="2489.0513" y1="426.72" y2="426.72"/></g><!--reverse link Entity to Character--><g class="link" data-entity-1="Entity" data-entity-2="Character" data-source-line="79" data-uid="lnk33" id="link_Entity_Character"><path codeLine="79" d="M1775.9748,152.6894 C1520.7848,163.0394 969.76,192.41 788,259.97 C749.44,274.31 711.38,297.37 678.34,321.15" fill="none" id="Entity-backto-Character" style="stroke:#181818;stroke-width:1;stroke-dasharray:7.0,7.0;"/><polygon fill="none" points="1793.96,151.96,1775.7316,146.6944,1776.2179,158.6845,1793.96,151.96" style="stroke:#181818;stroke-width:1;"/></g><!--reverse link Entity to Collectible--><g class="link" data-entity-1="Entity" data-entity-2="Collectible" data-source-line="80" data-uid="lnk35" id="link_Entity_Collectible"><path codeLine="80" d="M1776.1112,153.4225 C1563.0412,163.7625 1159.85,191.52 1030,259.97 C982.32,285.11 943.62,334.7 920.51,369.92" fill="none" id="Entity-backto-Collectible" style="stroke:#181818;stroke-width:1;stroke-dasharray:7.0,7.0;"/><polygon fill="none" points="1794.09,152.55,1775.8203,147.4295,1776.402,159.4154,1794.09,152.55" style="stroke:#181818;stroke-width:1;"/></g><!--reverse link Entity to Enemy--><g class="link" data-entity-1="Entity" data-entity-2="Enemy" data-source-line="81" data-uid="lnk37" id="link_Entity_Enemy"><path codeLine="81" d="M1780.1713,238.353 C1767.3313,248.713 1768.99,248.46 1758,259.97 C1726.52,292.94 1699.94,338.05 1683.15,370.12" fill="none" id="Entity-backto-Enemy" style="stroke:#181818;stroke-width:1;stroke-dasharray:7.0,7.0;"/><polygon fill="none" points="1794.18,227.05,1776.4037,233.6834,1783.939,243.0225,1794.18,227.05" style="stroke:#181818;stroke-width:1;"/></g><!--reverse link Enemy to Barrel--><g class="link" data-entity-1="Enemy" data-entity-2="Barrel" data-source-line="82" data-uid="lnk39" id="link_Enemy_Barrel"><path codeLine="82" d="M1556.1249,445.0627 C1486.9649,467.3127 1407.11,495.24 1325,531.9 C1297.01,544.4 1266.98,560.47 1242.27,574.46" fill="none" id="Enemy-backto-Barrel" style="stroke:#181818;stroke-width:1;stroke-dasharray:7.0,7.0;"/><polygon fill="none" points="1573.26,439.55,1554.2874,439.351,1557.9625,450.7743,1573.26,439.55" style="stroke:#181818;stroke-width:1;"/></g><!--reverse link Entity to Barrel--><g class="link" data-entity-1="Entity" data-entity-2="Barrel" data-source-line="83" data-uid="lnk41" id="link_Entity_Barrel"><path codeLine="83" d="M1790.2849,267.905 C1777.8349,294.485 1805.96,503.37 1785,523.9 C1775.87,532.85 1337.36,528.64 1325,531.9 C1292.5,540.49 1259.31,558.37 1233.86,574.42" fill="none" id="Entity-backto-Barrel" style="stroke:#181818;stroke-width:1;stroke-dasharray:7.0,7.0;"/><polygon fill="none" points="1798.99,252.15,1785.0332,265.0033,1795.5366,270.8067,1798.99,252.15" style="stroke:#181818;stroke-width:1;"/></g><!--reverse link Enemy to Fire--><g class="link" data-entity-1="Enemy" data-entity-2="Fire" data-source-line="84" data-uid="lnk43" id="link_Enemy_Fire"><path codeLine="84" d="M1689.9953,467.843 C1708.3053,507.373 1728.19,550.32 1743.22,582.76" fill="none" id="Enemy-backto-Fire" style="stroke:#181818;stroke-width:1;stroke-dasharray:7.0,7.0;"/><polygon fill="none" points="1682.43,451.51,1684.551,470.3647,1695.4396,465.3212,1682.43,451.51" style="stroke:#181818;stroke-width:1;"/></g><!--reverse link Entity to Fire--><g class="link" data-entity-1="Entity" data-entity-2="Fire" data-source-line="85" data-uid="lnk45" id="link_Entity_Fire"><path codeLine="85" d="M1842.9889,268.6416 C1799.0089,379.4616 1838.82,411.52 1799,523.9 C1791.61,544.75 1779.38,566.63 1769.52,582.56" fill="none" id="Entity-backto-Fire" style="stroke:#181818;stroke-width:1;stroke-dasharray:7.0,7.0;"/><polygon fill="none" points="1850.27,252.18,1837.5017,266.2146,1848.4761,271.0687,1850.27,252.18" style="stroke:#181818;stroke-width:1;"/></g><!--reverse link Entity to Antagonist--><g class="link" data-entity-1="Entity" data-entity-2="Antagonist" data-source-line="86" data-uid="lnk47" id="link_Entity_Antagonist"><path codeLine="86" d="M1963.634,269.2042 C1978.514,310.7142 1988.64,338.96 1999.85,370.24" fill="none" id="Entity-backto-Antagonist" style="stroke:#181818;stroke-width:1;stroke-dasharray:7.0,7.0;"/><polygon fill="none" points="1957.56,252.26,1957.9859,271.2289,1969.282,267.1796,1957.56,252.26" style="stroke:#181818;stroke-width:1;"/></g><!--reverse link Entity to Target--><g class="link" data-entity-1="Entity" data-entity-2="Target" data-source-line="87" data-uid="lnk49" id="link_Entity_Target"><path codeLine="87" d="M2062.7581,191.0012 C2109.1281,208.7712 2143.19,227.07 2183,259.97 C2219.5,290.14 2248.08,336.82 2265.38,370.03" fill="none" id="Entity-backto-Target" style="stroke:#181818;stroke-width:1;stroke-dasharray:7.0,7.0;"/><polygon fill="none" points="2045.95,184.56,2060.611,196.6039,2064.9051,185.3985,2045.95,184.56" style="stroke:#181818;stroke-width:1;"/></g><!--reverse link Entity to Ladder--><g class="link" data-entity-1="Entity" data-entity-2="Ladder" data-source-line="88" data-uid="lnk51" id="link_Entity_Ladder"><path codeLine="88" d="M2063.6739,179.3618 C2169.0939,202.1418 2306.03,230.16 2442,251.97 C2456.59,254.31 2496.36,250.87 2508,259.97 C2547.55,290.91 2559.66,352.66 2563.37,386.4" fill="none" id="Entity-backto-Ladder" style="stroke:#181818;stroke-width:1;stroke-dasharray:7.0,7.0;"/><polygon fill="none" points="2046.08,175.56,2062.4066,185.2265,2064.9412,173.4972,2046.08,175.56" style="stroke:#181818;stroke-width:1;"/></g><!--reverse link Entity to Platform--><g class="link" data-entity-1="Entity" data-entity-2="Platform" data-source-line="89" data-uid="lnk53" id="link_Entity_Platform"><path codeLine="89" d="M2063.6568,183.3326 C2168.7768,208.1926 2305.35,236.88 2442,251.97 C2461.61,254.14 2779.13,251.62 2797,259.97 C2842.53,281.26 2878.62,326.72 2901.3,362" fill="none" id="Entity-backto-Platform" style="stroke:#181818;stroke-width:1;stroke-dasharray:7.0,7.0;"/><polygon fill="none" points="2046.14,179.19,2062.276,189.1715,2065.0377,177.4936,2046.14,179.19" style="stroke:#181818;stroke-width:1;"/></g><!--reverse link Entity to Tank--><g class="link" data-entity-1="Entity" data-entity-2="Tank" data-source-line="90" data-uid="lnk55" id="link_Entity_Tank"><path codeLine="90" d="M2063.8963,168.6108 C2182.8163,187.9608 2332.5,218.54 2384,259.97 C2424.45,292.52 2444.06,353.04 2452.18,386.31" fill="none" id="Entity-backto-Tank" style="stroke:#181818;stroke-width:1;stroke-dasharray:7.0,7.0;"/><polygon fill="none" points="2046.13,165.72,2062.9327,174.533,2064.86,162.6887,2046.13,165.72" style="stroke:#181818;stroke-width:1;"/></g><!--SRC=[lLRBJkCm5DttApne5a63l9WrGgAbPP2AGBHYxpWtmSAn8zlfK37y-zX9seJ4AKfGkqfJdtFFVJi_CaMIbA1Smvqme5A8637mIEWhIK2Zc70DambpPp6XWCxcmZ2pFKD48sPmBbWeCPLn3A42yefJ6G7796CO7921nYK3lKyG-eNUIQYD8jHyF4fjpwNuVOCICBktuBm5sqWM8Tq0rBmsT2fp4J6HJELRQVI6fI2qp-epK2DLYNe6Bgdri5Tw3zYn-e0BGgty4qjUJ11AoO68DhJw6p7T1FUYNDwrLGtA97g5fPX9pbaHvm5OdaMsia7C9J7dauzcJPTi0_gU25joDQIoJLwdljQ-osw1yQUMImrB5eF_L87kOzT9lEOM4BJ2kPSR4d8O4ab5wGHHU9BAZJzlinVYKCEIHdSalAVxPIrG9B0ohcghFCiu0tMvvnJ_NmtBQvst1t6htBGSWDoI51use3gG5PKATbMt5Mw-Ty07kw0wB0pqJjzCfYcndbRFlX8K-HXN1-se6dysvQ-957Ed7UonFHCvVsFc2r0rZtlG1QfQp8ErdH1ngCUyGV9F_AwCb8WPPsdO7X5doguLDd1CQ4t33HCz_Li2-jDGzrfb2wAsdtC1wQ3B1Xm15pI_Ln7ODxazqFWt9QBhp9Ge1NouDs71moMzurMZL6j5X8wbIjTomHJuzUszOI-XxJVTgAnqlAcSfDQKWVAbSUDU8FyKEc-7EnHR5dPKwyKdSzV2a4GAfiqGeoAZk6RsHMPUbFnR1TRkWOVCXKduPNb-XOpQhXjutnsm9igkiA5-bYn_XzgBZ-Q7blTJ0UYqvv94qR2ho5hEgSbj5KfkkmwFd1ZNZkDixjYTA5TSPb0iVlVZGA3krfFAsC-auCirDtKE5Ia1aQUrxpyBaUz5KDeeubZE5slxUBgx_UEUY-NrkjqFudMSccEM5HZ_8O5p_Ezgs8Vvv9kx_uYIpML-T9dFMtgGNCFFascE2R5UkAS9RwJUiD1QQ__8IjNYFg9APocVH6k_h4-YLgow4Kh_0G00]--></g></svg>