<svg xmlns="http://www.w3.org/2000/svg" xmlns:xlink="http://www.w3.org/1999/xlink" contentStyleType="text/css" data-diagram-type="CLASS" height="613px" preserveAspectRatio="none" style="width:1565px;height:613px;background:#FFFFFF;" version="1.1" viewBox="0 0 1565 613" width="1565px" zoomAndPan="magnify"><defs/><g><!--cluster model--><g class="cluster" data-entity="model" data-source-line="3" data-uid="ent0006" id="cluster_model"><path d="M8.5,6 L214.6123,6 A3.75,3.75 0 0 1 217.1123,8.5 L224.1123,28.2969 L1555.5,28.2969 A2.5,2.5 0 0 1 1558,30.7969 L1558,603.77 A2.5,2.5 0 0 1 1555.5,606.27 L8.5,606.27 A2.5,2.5 0 0 1 6,603.77 L6,8.5 A2.5,2.5 0 0 1 8.5,6" fill="none" style="stroke:#000000;stroke-width:1.5;"/><line style="stroke:#000000;stroke-width:1.5;" x1="6" x2="224.1123" y1="28.2969" y2="28.2969"/><text fill="#000000" font-family="sans-serif" font-size="14" font-weight="bold" lengthAdjust="spacing" textLength="205.1123" x="10" y="20.9951">it.unibo.coffebreak.model</text></g><!--cluster phases--><g class="cluster" data-entity="phases" data-source-line="3" data-uid="ent0008" id="cluster_phases"><path d="M611.5,49 L697.6826,49 A3.75,3.75 0 0 1 700.1826,51.5 L707.1826,71.2969 L952.5,71.2969 A2.5,2.5 0 0 1 955,73.7969 L955,210.69 A2.5,2.5 0 0 1 952.5,213.19 L611.5,213.19 A2.5,2.5 0 0 1 609,210.69 L609,51.5 A2.5,2.5 0 0 1 611.5,49" fill="none" style="stroke:#000000;stroke-width:1.5;"/><line style="stroke:#000000;stroke-width:1.5;" x1="609" x2="707.1826" y1="71.2969" y2="71.2969"/><text fill="#000000" font-family="sans-serif" font-size="14" font-weight="bold" lengthAdjust="spacing" textLength="85.1826" x="613" y="63.9951">api.phases</text></g><!--cluster phases--><g class="cluster" data-entity="phases" data-source-line="9" data-uid="ent0011" id="cluster_phases"><path d="M32.5,237.19 L128.6221,237.19 A3.75,3.75 0 0 1 131.1221,239.69 L138.1221,259.4869 L1531.5,259.4869 A2.5,2.5 0 0 1 1534,261.9869 L1534,579.77 A2.5,2.5 0 0 1 1531.5,582.27 L32.5,582.27 A2.5,2.5 0 0 1 30,579.77 L30,239.69 A2.5,2.5 0 0 1 32.5,237.19" fill="none" style="stroke:#000000;stroke-width:1.5;"/><line style="stroke:#000000;stroke-width:1.5;" x1="30" x2="138.1221" y1="259.4869" y2="259.4869"/><text fill="#000000" font-family="sans-serif" font-size="14" font-weight="bold" lengthAdjust="spacing" textLength="95.1221" x="34" y="252.1851">impl.phases</text></g><!--cluster gameover--><g class="cluster" data-entity="gameover" data-source-line="15" data-uid="ent0013" id="cluster_gameover"><path d="M56.5,426.68 L136.1953,426.68 A3.75,3.75 0 0 1 138.6953,429.18 L145.6953,448.9769 L397.5,448.9769 A2.5,2.5 0 0 1 400,451.4769 L400,539.47 A2.5,2.5 0 0 1 397.5,541.97 L56.5,541.97 A2.5,2.5 0 0 1 54,539.47 L54,429.18 A2.5,2.5 0 0 1 56.5,426.68" fill="none" style="stroke:#000000;stroke-width:1.5;"/><line style="stroke:#000000;stroke-width:1.5;" x1="54" x2="145.6953" y1="448.9769" y2="448.9769"/><text fill="#000000" font-family="sans-serif" font-size="14" font-weight="bold" lengthAdjust="spacing" textLength="78.6953" x="58" y="441.6751">gameover</text></g><!--cluster ingame--><g class="cluster" data-entity="ingame" data-source-line="18" data-uid="ent0015" id="cluster_ingame"><path d="M426.5,410.38 L485.8174,410.38 A3.75,3.75 0 0 1 488.3174,412.88 L495.3174,432.6769 L767.5,432.6769 A2.5,2.5 0 0 1 770,435.1769 L770,555.77 A2.5,2.5 0 0 1 767.5,558.27 L426.5,558.27 A2.5,2.5 0 0 1 424,555.77 L424,412.88 A2.5,2.5 0 0 1 426.5,410.38" fill="none" style="stroke:#000000;stroke-width:1.5;"/><line style="stroke:#000000;stroke-width:1.5;" x1="424" x2="495.3174" y1="432.6769" y2="432.6769"/><text fill="#000000" font-family="sans-serif" font-size="14" font-weight="bold" lengthAdjust="spacing" textLength="58.3174" x="428" y="425.3751">ingame</text></g><!--cluster menu--><g class="cluster" data-entity="menu" data-source-line="23" data-uid="ent0017" id="cluster_menu"><path d="M796.5,426.68 L841.5166,426.68 A3.75,3.75 0 0 1 844.0166,429.18 L851.0166,448.9769 L1137.5,448.9769 A2.5,2.5 0 0 1 1140,451.4769 L1140,539.47 A2.5,2.5 0 0 1 1137.5,541.97 L796.5,541.97 A2.5,2.5 0 0 1 794,539.47 L794,429.18 A2.5,2.5 0 0 1 796.5,426.68" fill="none" style="stroke:#000000;stroke-width:1.5;"/><line style="stroke:#000000;stroke-width:1.5;" x1="794" x2="851.0166" y1="448.9769" y2="448.9769"/><text fill="#000000" font-family="sans-serif" font-size="14" font-weight="bold" lengthAdjust="spacing" textLength="44.0166" x="798" y="441.6751">menu</text></g><!--cluster pause--><g class="cluster" data-entity="pause" data-source-line="26" data-uid="ent0019" id="cluster_pause"><path d="M1166.5,426.68 L1214.7637,426.68 A3.75,3.75 0 0 1 1217.2637,429.18 L1224.2637,448.9769 L1507.5,448.9769 A2.5,2.5 0 0 1 1510,451.4769 L1510,539.47 A2.5,2.5 0 0 1 1507.5,541.97 L1166.5,541.97 A2.5,2.5 0 0 1 1164,539.47 L1164,429.18 A2.5,2.5 0 0 1 1166.5,426.68" fill="none" style="stroke:#000000;stroke-width:1.5;"/><line style="stroke:#000000;stroke-width:1.5;" x1="1164" x2="1224.2637" y1="448.9769" y2="448.9769"/><text fill="#000000" font-family="sans-serif" font-size="14" font-weight="bold" lengthAdjust="spacing" textLength="47.2637" x="1168" y="441.6751">pause</text></g><!--class Phases--><g class="entity" data-entity="Phases" data-source-line="3" data-uid="ent0002" id="entity_Phases"><rect fill="#F1F1F1" height="113.1875" rx="2.5" ry="2.5" style="stroke:#181818;stroke-width:0.5;" width="313.5605" x="625.22" y="84"/><ellipse cx="753.2024" cy="100" fill="#B4A7E5" rx="11" ry="11" style="stroke:#181818;stroke-width:1;"/><path d="M749.1243,95.7656 L749.1243,93.6094 L756.5149,93.6094 L756.5149,95.7656 L754.0462,95.7656 L754.0462,103.8438 L756.5149,103.8438 L756.5149,106 L749.1243,106 L749.1243,103.8438 L751.593,103.8438 L751.593,95.7656 L749.1243,95.7656 Z " fill="#000000"/><text fill="#000000" font-family="sans-serif" font-size="14" font-style="italic" lengthAdjust="spacing" textLength="49.0957" x="773.7024" y="104.8467">Phases</text><line style="stroke:#181818;stroke-width:0.5;" x1="626.22" x2="937.7805" y1="116" y2="116"/><line style="stroke:#181818;stroke-width:0.5;" x1="626.22" x2="937.7805" y1="124" y2="124"/><ellipse cx="636.22" cy="137.6484" fill="#84BE84" rx="3" ry="3" style="stroke:#038048;stroke-width:1;"/><text fill="#000000" font-family="sans-serif" font-size="14" font-style="italic" lengthAdjust="spacing" textLength="166.1816" x="645.22" y="140.9951">void enterPhase(Model)</text><ellipse cx="636.22" cy="153.9453" fill="#84BE84" rx="3" ry="3" style="stroke:#038048;stroke-width:1;"/><text fill="#000000" font-family="sans-serif" font-size="14" font-style="italic" lengthAdjust="spacing" textLength="155.1143" x="645.22" y="157.292">void exitPhase(Model)</text><ellipse cx="636.22" cy="170.2422" fill="#84BE84" rx="3" ry="3" style="stroke:#038048;stroke-width:1;"/><text fill="#000000" font-family="sans-serif" font-size="14" font-style="italic" lengthAdjust="spacing" textLength="287.5605" x="645.22" y="173.5889">void handleCommand(Model, Command)</text><ellipse cx="636.22" cy="186.5391" fill="#84BE84" rx="3" ry="3" style="stroke:#038048;stroke-width:1;"/><text fill="#000000" font-family="sans-serif" font-size="14" font-style="italic" lengthAdjust="spacing" textLength="176.7158" x="645.22" y="189.8857">void update(Model, float)</text></g><!--class AbstractPhases--><g class="entity" data-entity="AbstractPhases" data-source-line="9" data-uid="ent0009" id="entity_AbstractPhases"><rect fill="#F1F1F1" height="113.1875" rx="2.5" ry="2.5" style="stroke:#181818;stroke-width:0.5;" width="313.5605" x="625.22" y="272.19"/><ellipse cx="723.8181" cy="288.19" fill="#A9DCDF" rx="11" ry="11" style="stroke:#181818;stroke-width:1;"/><path d="M723.9275,283.5338 L722.7713,288.6119 L725.0994,288.6119 L723.9275,283.5338 Z M722.4431,281.2994 L725.4275,281.2994 L728.7869,293.69 L726.3338,293.69 L725.5681,290.6275 L722.2869,290.6275 L721.5369,293.69 L719.0994,293.69 L722.4431,281.2994 Z " fill="#000000"/><text fill="#000000" font-family="sans-serif" font-size="14" font-style="italic" lengthAdjust="spacing" textLength="107.8643" x="744.3181" y="293.0367">AbstractPhases</text><line style="stroke:#181818;stroke-width:0.5;" x1="626.22" x2="937.7805" y1="304.19" y2="304.19"/><line style="stroke:#181818;stroke-width:0.5;" x1="626.22" x2="937.7805" y1="312.19" y2="312.19"/><ellipse cx="636.22" cy="325.8384" fill="#84BE84" rx="3" ry="3" style="stroke:#038048;stroke-width:1;"/><text fill="#000000" font-family="sans-serif" font-size="14" lengthAdjust="spacing" textLength="166.1816" x="645.22" y="329.1851">void enterPhase(Model)</text><ellipse cx="636.22" cy="342.1353" fill="#84BE84" rx="3" ry="3" style="stroke:#038048;stroke-width:1;"/><text fill="#000000" font-family="sans-serif" font-size="14" lengthAdjust="spacing" textLength="155.1143" x="645.22" y="345.482">void exitPhase(Model)</text><ellipse cx="636.22" cy="358.4322" fill="#84BE84" rx="3" ry="3" style="stroke:#038048;stroke-width:1;"/><text fill="#000000" font-family="sans-serif" font-size="14" lengthAdjust="spacing" textLength="176.7158" x="645.22" y="361.7789">void update(Model, float)</text><ellipse cx="636.22" cy="374.7291" fill="#84BE84" rx="3" ry="3" style="stroke:#038048;stroke-width:1;"/><text fill="#000000" font-family="sans-serif" font-size="14" font-style="italic" lengthAdjust="spacing" textLength="287.5605" x="645.22" y="378.0757">void handleCommand(Model, Command)</text></g><!--class GameOverPhase--><g class="entity" data-entity="GameOverPhase" data-source-line="15" data-uid="ent0012" id="entity_GameOverPhase"><rect fill="#F1F1F1" height="64.2969" rx="2.5" ry="2.5" style="stroke:#181818;stroke-width:0.5;" width="313.5605" x="70.22" y="461.68"/><ellipse cx="164.1731" cy="477.68" fill="#ADD1B2" rx="11" ry="11" style="stroke:#181818;stroke-width:1;"/><path d="M167.1419,483.3206 Q166.5638,483.6175 165.9231,483.7581 Q165.2825,483.9144 164.5794,483.9144 Q162.0794,483.9144 160.7513,482.2737 Q159.4388,480.6175 159.4388,477.4925 Q159.4388,474.3675 160.7513,472.7112 Q162.0794,471.055 164.5794,471.055 Q165.2825,471.055 165.9231,471.2112 Q166.5794,471.3675 167.1419,471.6644 L167.1419,474.3831 Q166.5169,473.805 165.9231,473.5394 Q165.3294,473.2581 164.7044,473.2581 Q163.3606,473.2581 162.6731,474.3362 Q161.9856,475.3987 161.9856,477.4925 Q161.9856,479.5862 162.6731,480.6644 Q163.3606,481.7269 164.7044,481.7269 Q165.3294,481.7269 165.9231,481.4612 Q166.5169,481.18 167.1419,480.6019 L167.1419,483.3206 Z " fill="#000000"/><text fill="#000000" font-family="sans-serif" font-size="14" lengthAdjust="spacing" textLength="117.1543" x="184.6731" y="482.5267">GameOverPhase</text><line style="stroke:#181818;stroke-width:0.5;" x1="71.22" x2="382.7805" y1="493.68" y2="493.68"/><line style="stroke:#181818;stroke-width:0.5;" x1="71.22" x2="382.7805" y1="501.68" y2="501.68"/><ellipse cx="81.22" cy="515.3284" fill="#84BE84" rx="3" ry="3" style="stroke:#038048;stroke-width:1;"/><text fill="#000000" font-family="sans-serif" font-size="14" lengthAdjust="spacing" textLength="287.5605" x="90.22" y="518.6751">void handleCommand(Model, Command)</text></g><!--class InGamePhase--><g class="entity" data-entity="InGamePhase" data-source-line="18" data-uid="ent0014" id="entity_InGamePhase"><rect fill="#F1F1F1" height="96.8906" rx="2.5" ry="2.5" style="stroke:#181818;stroke-width:0.5;" width="313.5605" x="440.22" y="445.38"/><ellipse cx="544.5091" cy="461.38" fill="#ADD1B2" rx="11" ry="11" style="stroke:#181818;stroke-width:1;"/><path d="M547.4778,467.0206 Q546.8997,467.3175 546.2591,467.4581 Q545.6184,467.6144 544.9153,467.6144 Q542.4153,467.6144 541.0872,465.9738 Q539.7747,464.3175 539.7747,461.1925 Q539.7747,458.0675 541.0872,456.4113 Q542.4153,454.755 544.9153,454.755 Q545.6184,454.755 546.2591,454.9113 Q546.9153,455.0675 547.4778,455.3644 L547.4778,458.0831 Q546.8528,457.505 546.2591,457.2394 Q545.6653,456.9581 545.0403,456.9581 Q543.6966,456.9581 543.0091,458.0363 Q542.3216,459.0988 542.3216,461.1925 Q542.3216,463.2863 543.0091,464.3644 Q543.6966,465.4269 545.0403,465.4269 Q545.6653,465.4269 546.2591,465.1613 Q546.8528,464.88 547.4778,464.3019 L547.4778,467.0206 Z " fill="#000000"/><text fill="#000000" font-family="sans-serif" font-size="14" lengthAdjust="spacing" textLength="96.4824" x="565.0091" y="466.2267">InGamePhase</text><line style="stroke:#181818;stroke-width:0.5;" x1="441.22" x2="752.7805" y1="477.38" y2="477.38"/><line style="stroke:#181818;stroke-width:0.5;" x1="441.22" x2="752.7805" y1="485.38" y2="485.38"/><ellipse cx="451.22" cy="499.0284" fill="#84BE84" rx="3" ry="3" style="stroke:#038048;stroke-width:1;"/><text fill="#000000" font-family="sans-serif" font-size="14" lengthAdjust="spacing" textLength="287.5605" x="460.22" y="502.3751">void handleCommand(Model, Command)</text><ellipse cx="451.22" cy="515.3253" fill="#84BE84" rx="3" ry="3" style="stroke:#038048;stroke-width:1;"/><text fill="#000000" font-family="sans-serif" font-size="14" lengthAdjust="spacing" textLength="176.7158" x="460.22" y="518.672">void update(Model, float)</text><ellipse cx="451.22" cy="531.6222" fill="#84BE84" rx="3" ry="3" style="stroke:#038048;stroke-width:1;"/><text fill="#000000" font-family="sans-serif" font-size="14" lengthAdjust="spacing" textLength="155.1143" x="460.22" y="534.9689">void exitPhase(Model)</text></g><!--class MenuPhase--><g class="entity" data-entity="MenuPhase" data-source-line="23" data-uid="ent0016" id="entity_MenuPhase"><rect fill="#F1F1F1" height="64.2969" rx="2.5" ry="2.5" style="stroke:#181818;stroke-width:0.5;" width="313.5605" x="810.22" y="461.68"/><ellipse cx="922.6302" cy="477.68" fill="#ADD1B2" rx="11" ry="11" style="stroke:#181818;stroke-width:1;"/><path d="M925.5989,483.3206 Q925.0208,483.6175 924.3802,483.7581 Q923.7395,483.9144 923.0364,483.9144 Q920.5364,483.9144 919.2083,482.2737 Q917.8958,480.6175 917.8958,477.4925 Q917.8958,474.3675 919.2083,472.7112 Q920.5364,471.055 923.0364,471.055 Q923.7395,471.055 924.3802,471.2112 Q925.0364,471.3675 925.5989,471.6644 L925.5989,474.3831 Q924.9739,473.805 924.3802,473.5394 Q923.7864,473.2581 923.1614,473.2581 Q921.8177,473.2581 921.1302,474.3362 Q920.4427,475.3987 920.4427,477.4925 Q920.4427,479.5862 921.1302,480.6644 Q921.8177,481.7269 923.1614,481.7269 Q923.7864,481.7269 924.3802,481.4612 Q924.9739,481.18 925.5989,480.6019 L925.5989,483.3206 Z " fill="#000000"/><text fill="#000000" font-family="sans-serif" font-size="14" lengthAdjust="spacing" textLength="80.2402" x="943.1302" y="482.5267">MenuPhase</text><line style="stroke:#181818;stroke-width:0.5;" x1="811.22" x2="1122.7805" y1="493.68" y2="493.68"/><line style="stroke:#181818;stroke-width:0.5;" x1="811.22" x2="1122.7805" y1="501.68" y2="501.68"/><ellipse cx="821.22" cy="515.3284" fill="#84BE84" rx="3" ry="3" style="stroke:#038048;stroke-width:1;"/><text fill="#000000" font-family="sans-serif" font-size="14" lengthAdjust="spacing" textLength="287.5605" x="830.22" y="518.6751">void handleCommand(Model, Command)</text></g><!--class PausePhase--><g class="entity" data-entity="PausePhase" data-source-line="26" data-uid="ent0018" id="entity_PausePhase"><rect fill="#F1F1F1" height="64.2969" rx="2.5" ry="2.5" style="stroke:#181818;stroke-width:0.5;" width="313.5605" x="1180.22" y="461.68"/><ellipse cx="1290.9485" cy="477.68" fill="#ADD1B2" rx="11" ry="11" style="stroke:#181818;stroke-width:1;"/><path d="M1293.9173,483.3206 Q1293.3391,483.6175 1292.6985,483.7581 Q1292.0579,483.9144 1291.3548,483.9144 Q1288.8548,483.9144 1287.5266,482.2737 Q1286.2141,480.6175 1286.2141,477.4925 Q1286.2141,474.3675 1287.5266,472.7112 Q1288.8548,471.055 1291.3548,471.055 Q1292.0579,471.055 1292.6985,471.2112 Q1293.3548,471.3675 1293.9173,471.6644 L1293.9173,474.3831 Q1293.2923,473.805 1292.6985,473.5394 Q1292.1048,473.2581 1291.4798,473.2581 Q1290.136,473.2581 1289.4485,474.3362 Q1288.761,475.3987 1288.761,477.4925 Q1288.761,479.5862 1289.4485,480.6644 Q1290.136,481.7269 1291.4798,481.7269 Q1292.1048,481.7269 1292.6985,481.4612 Q1293.2923,481.18 1293.9173,480.6019 L1293.9173,483.3206 Z " fill="#000000"/><text fill="#000000" font-family="sans-serif" font-size="14" lengthAdjust="spacing" textLength="83.6035" x="1311.4485" y="482.5267">PausePhase</text><line style="stroke:#181818;stroke-width:0.5;" x1="1181.22" x2="1492.7805" y1="493.68" y2="493.68"/><line style="stroke:#181818;stroke-width:0.5;" x1="1181.22" x2="1492.7805" y1="501.68" y2="501.68"/><ellipse cx="1191.22" cy="515.3284" fill="#84BE84" rx="3" ry="3" style="stroke:#038048;stroke-width:1;"/><text fill="#000000" font-family="sans-serif" font-size="14" lengthAdjust="spacing" textLength="287.5605" x="1200.22" y="518.6751">void handleCommand(Model, Command)</text></g><!--reverse link Phases to AbstractPhases--><g class="link" data-entity-1="Phases" data-entity-2="AbstractPhases" data-source-line="29" data-uid="lnk21" id="link_Phases_AbstractPhases"><path codeLine="29" d="M782,215.46 C782,239.03 782,248.4 782,271.96" fill="none" id="Phases-backto-AbstractPhases" style="stroke:#181818;stroke-width:1;stroke-dasharray:7.0,7.0;"/><polygon fill="none" points="782,197.46,776,215.46,788,215.46,782,197.46" style="stroke:#181818;stroke-width:1;"/></g><!--reverse link AbstractPhases to GameOverPhase--><g class="link" data-entity-1="AbstractPhases" data-entity-2="GameOverPhase" data-source-line="30" data-uid="lnk23" id="link_AbstractPhases_GameOverPhase"><path codeLine="30" d="M607.2081,356.8123 C543.9381,368.4723 488.51,381.34 424,402.38 C376.23,417.96 324.71,441.88 286.34,461.22" fill="none" id="AbstractPhases-backto-GameOverPhase" style="stroke:#181818;stroke-width:1;"/><polygon fill="none" points="624.91,353.55,606.1207,350.9116,608.2955,362.7129,624.91,353.55" style="stroke:#181818;stroke-width:1;"/></g><!--reverse link AbstractPhases to InGamePhase--><g class="link" data-entity-1="AbstractPhases" data-entity-2="InGamePhase" data-source-line="31" data-uid="lnk25" id="link_AbstractPhases_InGamePhase"><path codeLine="31" d="M705.0843,397.5694 C683.2243,416.8294 672.46,426.32 651.38,444.9" fill="none" id="AbstractPhases-backto-InGamePhase" style="stroke:#181818;stroke-width:1;"/><polygon fill="none" points="718.59,385.67,701.1178,393.0675,709.0507,402.0713,718.59,385.67" style="stroke:#181818;stroke-width:1;"/></g><!--reverse link AbstractPhases to MenuPhase--><g class="link" data-entity-1="AbstractPhases" data-entity-2="MenuPhase" data-source-line="32" data-uid="lnk27" id="link_AbstractPhases_MenuPhase"><path codeLine="32" d="M858.916,397.5691 C887.576,422.8191 906.88,439.84 931.18,461.26" fill="none" id="AbstractPhases-backto-MenuPhase" style="stroke:#181818;stroke-width:1;"/><polygon fill="none" points="845.41,385.67,854.9497,402.0711,862.8824,393.067,845.41,385.67" style="stroke:#181818;stroke-width:1;"/></g><!--reverse link AbstractPhases to PausePhase--><g class="link" data-entity-1="AbstractPhases" data-entity-2="PausePhase" data-source-line="33" data-uid="lnk29" id="link_AbstractPhases_PausePhase"><path codeLine="33" d="M956.7919,356.8123 C1020.0619,368.4723 1075.49,381.34 1140,402.38 C1187.77,417.96 1239.29,441.88 1277.66,461.22" fill="none" id="AbstractPhases-backto-PausePhase" style="stroke:#181818;stroke-width:1;"/><polygon fill="none" points="939.09,353.55,955.7045,362.7129,957.8793,350.9116,939.09,353.55" style="stroke:#181818;stroke-width:1;"/></g><!--SRC=[jLH1ReCm4Bpx5LjEZThu2PMg7geSel251HPY1MCBcwXIojzh1qYJ5XgSAZSiPdPcLcC_w1eBYT0OMbMMQacPG4infZiio42EfI76XF-NOqeGnLiqP2900yBofXA9ugdASqfgmXsNAgEIenPS7u6ymyE10Jp10HDZQqnjkrSY0_9ZZu37jUSjHa4Vmbx3RB7AIdfJKhgF3lSC_N6KqEZCnHoGUQdGBbZB1X2a9He3qMj_dXLQI5qEgI-9NVhfo9Cvfxq6Bw5bVQPtbBJPzoO28XMEfnoFNmmuYpPJVrNv0Q7gelBw_8myM_dQ7iUtV_Axfge9TIiTXv-8uJkAqLt8K57jIVoR6Y1xKwbvmpzVGXu1zg-YBPlbdtBJJjdD5Rkxve-Yt5tlLqTkL_m2]--></g></svg>