<svg xmlns="http://www.w3.org/2000/svg" xmlns:xlink="http://www.w3.org/1999/xlink" contentStyleType="text/css" data-diagram-type="CLASS" height="416px" preserveAspectRatio="none" style="width:632px;height:416px;background:#FFFFFF;" version="1.1" viewBox="0 0 632 416" width="632px" zoomAndPan="magnify"><defs/><g><!--cluster model--><g class="cluster" data-entity="model" data-source-line="3" data-uid="ent0006" id="cluster_model"><path d="M8.5,6 L214.6123,6 A3.75,3.75 0 0 1 217.1123,8.5 L224.1123,28.2969 L622.5,28.2969 A2.5,2.5 0 0 1 625,30.7969 L625,406.58 A2.5,2.5 0 0 1 622.5,409.08 L8.5,409.08 A2.5,2.5 0 0 1 6,406.58 L6,8.5 A2.5,2.5 0 0 1 8.5,6" fill="none" style="stroke:#000000;stroke-width:1.5;"/><line style="stroke:#000000;stroke-width:1.5;" x1="6" x2="224.1123" y1="28.2969" y2="28.2969"/><text fill="#000000" font-family="sans-serif" font-size="14" font-weight="bold" lengthAdjust="spacing" textLength="205.1123" x="10" y="20.9951">it.unibo.coffebreak.model</text></g><!--cluster physics--><g class="cluster" data-entity="physics" data-source-line="3" data-uid="ent0008" id="cluster_physics"><path d="M62.5,49 L151.9639,49 A3.75,3.75 0 0 1 154.4639,51.5 L161.4639,71.2969 L506.5,71.2969 A2.5,2.5 0 0 1 509,73.7969 L509,178.1 A2.5,2.5 0 0 1 506.5,180.6 L62.5,180.6 A2.5,2.5 0 0 1 60,178.1 L60,51.5 A2.5,2.5 0 0 1 62.5,49" fill="none" style="stroke:#000000;stroke-width:1.5;"/><line style="stroke:#000000;stroke-width:1.5;" x1="60" x2="161.4639" y1="71.2969" y2="71.2969"/><text fill="#000000" font-family="sans-serif" font-size="14" font-weight="bold" lengthAdjust="spacing" textLength="88.4639" x="64" y="63.9951">api.physics</text></g><!--cluster physics--><g class="cluster" data-entity="physics" data-source-line="9" data-uid="ent0012" id="cluster_physics"><path d="M32.5,204.6 L131.9033,204.6 A3.75,3.75 0 0 1 134.4033,207.1 L141.4033,226.8969 L598.5,226.8969 A2.5,2.5 0 0 1 601,229.3969 L601,382.58 A2.5,2.5 0 0 1 598.5,385.08 L32.5,385.08 A2.5,2.5 0 0 1 30,382.58 L30,207.1 A2.5,2.5 0 0 1 32.5,204.6" fill="none" style="stroke:#000000;stroke-width:1.5;"/><line style="stroke:#000000;stroke-width:1.5;" x1="30" x2="141.4033" y1="226.8969" y2="226.8969"/><text fill="#000000" font-family="sans-serif" font-size="14" font-weight="bold" lengthAdjust="spacing" textLength="98.4033" x="34" y="219.5951">impl.physics</text></g><!--class Collision--><g class="entity" data-entity="Collision" data-source-line="3" data-uid="ent0002" id="entity_Collision"><rect fill="#F1F1F1" height="48" rx="2.5" ry="2.5" style="stroke:#181818;stroke-width:0.5;" width="90.6318" x="402.68" y="100.3"/><ellipse cx="417.68" cy="116.3" fill="#B4A7E5" rx="11" ry="11" style="stroke:#181818;stroke-width:1;"/><path d="M413.6019,112.0656 L413.6019,109.9094 L420.9925,109.9094 L420.9925,112.0656 L418.5238,112.0656 L418.5238,120.1438 L420.9925,120.1438 L420.9925,122.3 L413.6019,122.3 L413.6019,120.1438 L416.0706,120.1438 L416.0706,112.0656 L413.6019,112.0656 Z " fill="#000000"/><text fill="#000000" font-family="sans-serif" font-size="14" font-style="italic" lengthAdjust="spacing" textLength="58.6318" x="431.68" y="121.1467">Collision</text><line style="stroke:#181818;stroke-width:0.5;" x1="403.68" x2="492.3118" y1="132.3" y2="132.3"/><line style="stroke:#181818;stroke-width:0.5;" x1="403.68" x2="492.3118" y1="140.3" y2="140.3"/></g><!--class Physics--><g class="entity" data-entity="Physics" data-source-line="5" data-uid="ent0009" id="entity_Physics"><rect fill="#F1F1F1" height="80.5938" rx="2.5" ry="2.5" style="stroke:#181818;stroke-width:0.5;" width="291.9658" x="76.02" y="84"/><ellipse cx="191.8652" cy="100" fill="#B4A7E5" rx="11" ry="11" style="stroke:#181818;stroke-width:1;"/><path d="M187.7871,95.7656 L187.7871,93.6094 L195.1777,93.6094 L195.1777,95.7656 L192.709,95.7656 L192.709,103.8438 L195.1777,103.8438 L195.1777,106 L187.7871,106 L187.7871,103.8438 L190.2558,103.8438 L190.2558,95.7656 L187.7871,95.7656 Z " fill="#000000"/><text fill="#000000" font-family="sans-serif" font-size="14" font-style="italic" lengthAdjust="spacing" textLength="51.7754" x="212.3652" y="104.8467">Physics</text><line style="stroke:#181818;stroke-width:0.5;" x1="77.02" x2="366.9858" y1="116" y2="116"/><line style="stroke:#181818;stroke-width:0.5;" x1="77.02" x2="366.9858" y1="124" y2="124"/><ellipse cx="87.02" cy="137.6484" fill="#84BE84" rx="3" ry="3" style="stroke:#038048;stroke-width:1;"/><text fill="#000000" font-family="sans-serif" font-size="14" font-style="italic" lengthAdjust="spacing" textLength="265.9658" x="96.02" y="140.9951">Vector2D calculateX(float, Command)</text><ellipse cx="87.02" cy="153.9453" fill="#84BE84" rx="3" ry="3" style="stroke:#038048;stroke-width:1;"/><text fill="#000000" font-family="sans-serif" font-size="14" font-style="italic" lengthAdjust="spacing" textLength="264.9268" x="96.02" y="157.292">Vector2D calculateY(float, Command)</text></g><!--class GameCollision--><g class="entity" data-entity="GameCollision" data-source-line="9" data-uid="ent0010" id="entity_GameCollision"><rect fill="#F1F1F1" height="64.2969" rx="2.5" ry="2.5" style="stroke:#181818;stroke-width:0.5;" width="212.6553" x="372.67" y="272.19"/><ellipse cx="424.5924" cy="288.19" fill="#ADD1B2" rx="11" ry="11" style="stroke:#181818;stroke-width:1;"/><path d="M427.5611,293.8306 Q426.983,294.1275 426.3424,294.2681 Q425.7017,294.4244 424.9986,294.4244 Q422.4986,294.4244 421.1705,292.7838 Q419.858,291.1275 419.858,288.0025 Q419.858,284.8775 421.1705,283.2213 Q422.4986,281.565 424.9986,281.565 Q425.7017,281.565 426.3424,281.7213 Q426.9986,281.8775 427.5611,282.1744 L427.5611,284.8931 Q426.9361,284.315 426.3424,284.0494 Q425.7486,283.7681 425.1236,283.7681 Q423.7799,283.7681 423.0924,284.8463 Q422.4049,285.9088 422.4049,288.0025 Q422.4049,290.0963 423.0924,291.1744 Q423.7799,292.2369 425.1236,292.2369 Q425.7486,292.2369 426.3424,291.9713 Q426.9361,291.69 427.5611,291.1119 L427.5611,293.8306 Z " fill="#000000"/><text fill="#000000" font-family="sans-serif" font-size="14" lengthAdjust="spacing" textLength="100.3105" x="445.0924" y="293.0367">GameCollision</text><line style="stroke:#181818;stroke-width:0.5;" x1="373.67" x2="584.3253" y1="304.19" y2="304.19"/><line style="stroke:#181818;stroke-width:0.5;" x1="373.67" x2="584.3253" y1="312.19" y2="312.19"/><ellipse cx="383.67" cy="325.8384" fill="#84BE84" rx="3" ry="3" style="stroke:#038048;stroke-width:1;"/><text fill="#000000" font-family="sans-serif" font-size="14" lengthAdjust="spacing" text-decoration="underline" textLength="186.6553" x="392.67" y="329.1851">void checkCollision(Model)</text></g><!--class GamePhysics--><g class="entity" data-entity="GamePhysics" data-source-line="12" data-uid="ent0013" id="entity_GamePhysics"><rect fill="#F1F1F1" height="129.4844" rx="2.5" ry="2.5" style="stroke:#181818;stroke-width:0.5;" width="291.9658" x="46.02" y="239.6"/><ellipse cx="141.0259" cy="255.6" fill="#ADD1B2" rx="11" ry="11" style="stroke:#181818;stroke-width:1;"/><path d="M143.9946,261.2406 Q143.4165,261.5375 142.7759,261.6781 Q142.1352,261.8344 141.4321,261.8344 Q138.9321,261.8344 137.604,260.1937 Q136.2915,258.5375 136.2915,255.4125 Q136.2915,252.2875 137.604,250.6312 Q138.9321,248.975 141.4321,248.975 Q142.1352,248.975 142.7759,249.1312 Q143.4321,249.2875 143.9946,249.5844 L143.9946,252.3031 Q143.3696,251.725 142.7759,251.4594 Q142.1821,251.1781 141.5571,251.1781 Q140.2134,251.1781 139.5259,252.2562 Q138.8384,253.3187 138.8384,255.4125 Q138.8384,257.5062 139.5259,258.5844 Q140.2134,259.6469 141.5571,259.6469 Q142.1821,259.6469 142.7759,259.3812 Q143.3696,259.1 143.9946,258.5219 L143.9946,261.2406 Z " fill="#000000"/><text fill="#000000" font-family="sans-serif" font-size="14" lengthAdjust="spacing" textLength="93.4541" x="161.5259" y="260.4467">GamePhysics</text><line style="stroke:#181818;stroke-width:0.5;" x1="47.02" x2="336.9858" y1="271.6" y2="271.6"/><ellipse cx="57.02" cy="285.2484" fill="none" rx="3" ry="3" style="stroke:#038048;stroke-width:1;"/><text fill="#000000" font-family="sans-serif" font-size="14" lengthAdjust="spacing" text-decoration="underline" textLength="125.6172" x="66.02" y="288.5951">float BASE_SPEED</text><ellipse cx="57.02" cy="301.5453" fill="none" rx="3" ry="3" style="stroke:#038048;stroke-width:1;"/><text fill="#000000" font-family="sans-serif" font-size="14" lengthAdjust="spacing" text-decoration="underline" textLength="125.2207" x="66.02" y="304.892">float JUMP_FORCE</text><ellipse cx="57.02" cy="317.8422" fill="none" rx="3" ry="3" style="stroke:#038048;stroke-width:1;"/><text fill="#000000" font-family="sans-serif" font-size="14" lengthAdjust="spacing" text-decoration="underline" textLength="173.5166" x="66.02" y="321.1889">Vector2D ZERO_VECTOR</text><line style="stroke:#181818;stroke-width:0.5;" x1="47.02" x2="336.9858" y1="328.4906" y2="328.4906"/><ellipse cx="57.02" cy="342.1391" fill="#84BE84" rx="3" ry="3" style="stroke:#038048;stroke-width:1;"/><text fill="#000000" font-family="sans-serif" font-size="14" lengthAdjust="spacing" textLength="265.9658" x="66.02" y="345.4857">Vector2D calculateX(float, Command)</text><ellipse cx="57.02" cy="358.4359" fill="#84BE84" rx="3" ry="3" style="stroke:#038048;stroke-width:1;"/><text fill="#000000" font-family="sans-serif" font-size="14" lengthAdjust="spacing" textLength="264.9268" x="66.02" y="361.7826">Vector2D calculateY(float, Command)</text></g><!--reverse link Collision to GameCollision--><g class="link" data-entity-1="Collision" data-entity-2="GameCollision" data-source-line="20" data-uid="lnk15" id="link_Collision_GameCollision"><path codeLine="20" d="M455.1384,166.3031 C460.6384,197.8831 467.39,236.66 473.54,271.96" fill="none" id="Collision-backto-GameCollision" style="stroke:#181818;stroke-width:1;stroke-dasharray:7.0,7.0;"/><polygon fill="none" points="452.05,148.57,449.2274,167.3325,461.0494,165.2736,452.05,148.57" style="stroke:#181818;stroke-width:1;"/></g><!--reverse link Physics to GamePhysics--><g class="link" data-entity-1="Physics" data-entity-2="GamePhysics" data-source-line="21" data-uid="lnk17" id="link_Physics_GamePhysics"><path codeLine="21" d="M212.3544,182.5607 C208.6844,204.3807 207.01,214.27 202.82,239.11" fill="none" id="Physics-backto-GamePhysics" style="stroke:#181818;stroke-width:1;stroke-dasharray:7.0,7.0;"/><polygon fill="none" points="215.34,164.81,206.4375,181.5655,218.2713,183.5559,215.34,164.81" style="stroke:#181818;stroke-width:1;"/></g><!--SRC=[dPBDJeD04CVlFCN8gKQp1n_0H2aQJHe8rKQza64PsWsxB64N4rDvTq6HzCD4w7d-7pE_p5bPuLeXr8OU2akLebIWfH1vZcioaA4qv3YYcsN82LnFIocCq8KBQ41OLXSYqOphBAEa8ioPqYb9XgLWvUR326xOu86jq-o6XJ-22L6zemq2k80j9iPMo6sp8cvrTJK7ZfBNihtXPPP9ZVOIFAqK5kdvluxN8qVZS8d6W7kFYiPUBbGfXtttZBzR6ujMyEPTYnJuXdW-A6QBBkAWU1obeze3L7tfzubmUxFqusNe-_C_Xe_FYp2-2oBFtniEmDxyA8XNllSKHAqWZZlLIFxZe9_4bjNiythgGpedy9nIr7k-0000]--></g></svg>