<svg xmlns="http://www.w3.org/2000/svg" xmlns:xlink="http://www.w3.org/1999/xlink" contentStyleType="text/css" data-diagram-type="CLASS" height="627px" preserveAspectRatio="none" style="width:1251px;height:627px;background:#FFFFFF;" version="1.1" viewBox="0 0 1251 627" width="1251px" zoomAndPan="magnify"><defs/><g><!--cluster model--><g class="cluster" data-entity="model" data-source-line="3" data-uid="ent0006" id="cluster_model"><path d="M8.5,6 L214.6123,6 A3.75,3.75 0 0 1 217.1123,8.5 L224.1123,28.2969 L1241.5,28.2969 A2.5,2.5 0 0 1 1244,30.7969 L1244,618.44 A2.5,2.5 0 0 1 1241.5,620.94 L8.5,620.94 A2.5,2.5 0 0 1 6,618.44 L6,8.5 A2.5,2.5 0 0 1 8.5,6" fill="none" style="stroke:#000000;stroke-width:1.5;"/><line style="stroke:#000000;stroke-width:1.5;" x1="6" x2="224.1123" y1="28.2969" y2="28.2969"/><text fill="#000000" font-family="sans-serif" font-size="14" font-weight="bold" lengthAdjust="spacing" textLength="205.1123" x="10" y="20.9951">it.unibo.coffebreak.model</text></g><!--cluster score--><g class="cluster" data-entity="score" data-source-line="3" data-uid="ent0008" id="cluster_score"><path d="M32.5,49 L105.7354,49 A3.75,3.75 0 0 1 108.2354,51.5 L115.2354,71.2969 L1217.5,71.2969 A2.5,2.5 0 0 1 1220,73.7969 L1220,308.47 A2.5,2.5 0 0 1 1217.5,310.97 L32.5,310.97 A2.5,2.5 0 0 1 30,308.47 L30,51.5 A2.5,2.5 0 0 1 32.5,49" fill="none" style="stroke:#000000;stroke-width:1.5;"/><line style="stroke:#000000;stroke-width:1.5;" x1="30" x2="115.2354" y1="71.2969" y2="71.2969"/><text fill="#000000" font-family="sans-serif" font-size="14" font-weight="bold" lengthAdjust="spacing" textLength="72.2354" x="34" y="63.9951">api.score</text></g><!--cluster bonus--><g class="cluster" data-entity="bonus" data-source-line="20" data-uid="ent0011" id="cluster_bonus"><path d="M56.5,106.04 L105.4063,106.04 A3.75,3.75 0 0 1 107.9063,108.54 L114.9063,128.3369 L237.5,128.3369 A2.5,2.5 0 0 1 240,130.8369 L240,251.43 A2.5,2.5 0 0 1 237.5,253.93 L56.5,253.93 A2.5,2.5 0 0 1 54,251.43 L54,108.54 A2.5,2.5 0 0 1 56.5,106.04" fill="none" style="stroke:#000000;stroke-width:1.5;"/><line style="stroke:#000000;stroke-width:1.5;" x1="54" x2="114.9063" y1="128.3369" y2="128.3369"/><text fill="#000000" font-family="sans-serif" font-size="14" font-weight="bold" lengthAdjust="spacing" textLength="47.9063" x="58" y="121.0351">bonus</text></g><!--cluster entry--><g class="cluster" data-entity="entry" data-source-line="25" data-uid="ent0013" id="cluster_entry"><path d="M266.5,114.19 L309.6846,114.19 A3.75,3.75 0 0 1 312.1846,116.69 L319.1846,136.4869 L441.5,136.4869 A2.5,2.5 0 0 1 444,138.9869 L444,243.28 A2.5,2.5 0 0 1 441.5,245.78 L266.5,245.78 A2.5,2.5 0 0 1 264,243.28 L264,116.69 A2.5,2.5 0 0 1 266.5,114.19" fill="none" style="stroke:#000000;stroke-width:1.5;"/><line style="stroke:#000000;stroke-width:1.5;" x1="264" x2="319.1846" y1="136.4869" y2="136.4869"/><text fill="#000000" font-family="sans-serif" font-size="14" font-weight="bold" lengthAdjust="spacing" textLength="42.1846" x="268" y="129.1851">entry</text></g><!--cluster leaderboard--><g class="cluster" data-entity="leaderboard" data-source-line="29" data-uid="ent0015" id="cluster_leaderboard"><path d="M470.5,114.19 L567.6748,114.19 A3.75,3.75 0 0 1 570.1748,116.69 L577.1748,136.4869 L719.5,136.4869 A2.5,2.5 0 0 1 722,138.9869 L722,243.28 A2.5,2.5 0 0 1 719.5,245.78 L470.5,245.78 A2.5,2.5 0 0 1 468,243.28 L468,116.69 A2.5,2.5 0 0 1 470.5,114.19" fill="none" style="stroke:#000000;stroke-width:1.5;"/><line style="stroke:#000000;stroke-width:1.5;" x1="468" x2="577.1748" y1="136.4869" y2="136.4869"/><text fill="#000000" font-family="sans-serif" font-size="14" font-weight="bold" lengthAdjust="spacing" textLength="96.1748" x="472" y="129.1851">leaderboard</text></g><!--cluster score--><g class="cluster" data-entity="score" data-source-line="33" data-uid="ent0018" id="cluster_score"><path d="M32.5,334.97 L115.6748,334.97 A3.75,3.75 0 0 1 118.1748,337.47 L125.1748,357.2669 L1217.5,357.2669 A2.5,2.5 0 0 1 1220,359.7669 L1220,594.44 A2.5,2.5 0 0 1 1217.5,596.94 L32.5,596.94 A2.5,2.5 0 0 1 30,594.44 L30,337.47 A2.5,2.5 0 0 1 32.5,334.97" fill="none" style="stroke:#000000;stroke-width:1.5;"/><line style="stroke:#000000;stroke-width:1.5;" x1="30" x2="125.1748" y1="357.2669" y2="357.2669"/><text fill="#000000" font-family="sans-serif" font-size="14" font-weight="bold" lengthAdjust="spacing" textLength="82.1748" x="34" y="349.9651">impl.score</text></g><!--cluster bonus--><g class="cluster" data-entity="bonus" data-source-line="50" data-uid="ent0021" id="cluster_bonus"><path d="M56.5,383.86 L105.4063,383.86 A3.75,3.75 0 0 1 107.9063,386.36 L114.9063,406.1569 L237.5,406.1569 A2.5,2.5 0 0 1 240,408.6569 L240,545.55 A2.5,2.5 0 0 1 237.5,548.05 L56.5,548.05 A2.5,2.5 0 0 1 54,545.55 L54,386.36 A2.5,2.5 0 0 1 56.5,383.86" fill="none" style="stroke:#000000;stroke-width:1.5;"/><line style="stroke:#000000;stroke-width:1.5;" x1="54" x2="114.9063" y1="406.1569" y2="406.1569"/><text fill="#000000" font-family="sans-serif" font-size="14" font-weight="bold" lengthAdjust="spacing" textLength="47.9063" x="58" y="398.8551">bonus</text></g><!--cluster entry--><g class="cluster" data-entity="entry" data-source-line="57" data-uid="ent0023" id="cluster_entry"><path d="M266.5,383.86 L309.6846,383.86 A3.75,3.75 0 0 1 312.1846,386.36 L319.1846,406.1569 L441.5,406.1569 A2.5,2.5 0 0 1 444,408.6569 L444,545.55 A2.5,2.5 0 0 1 441.5,548.05 L266.5,548.05 A2.5,2.5 0 0 1 264,545.55 L264,386.36 A2.5,2.5 0 0 1 266.5,383.86" fill="none" style="stroke:#000000;stroke-width:1.5;"/><line style="stroke:#000000;stroke-width:1.5;" x1="264" x2="319.1846" y1="406.1569" y2="406.1569"/><text fill="#000000" font-family="sans-serif" font-size="14" font-weight="bold" lengthAdjust="spacing" textLength="42.1846" x="268" y="398.8551">entry</text></g><!--cluster leaderboard--><g class="cluster" data-entity="leaderboard" data-source-line="63" data-uid="ent0025" id="cluster_leaderboard"><path d="M470.5,392.01 L567.6748,392.01 A3.75,3.75 0 0 1 570.1748,394.51 L577.1748,414.3069 L719.5,414.3069 A2.5,2.5 0 0 1 722,416.8069 L722,537.4 A2.5,2.5 0 0 1 719.5,539.9 L470.5,539.9 A2.5,2.5 0 0 1 468,537.4 L468,394.51 A2.5,2.5 0 0 1 470.5,392.01" fill="none" style="stroke:#000000;stroke-width:1.5;"/><line style="stroke:#000000;stroke-width:1.5;" x1="468" x2="577.1748" y1="414.3069" y2="414.3069"/><text fill="#000000" font-family="sans-serif" font-size="14" font-weight="bold" lengthAdjust="spacing" textLength="96.1748" x="472" y="407.0051">leaderboard</text></g><!--class Score--><g class="entity" data-entity="Score" data-source-line="3" data-uid="ent0002" id="entity_Score"><rect fill="#F1F1F1" height="96.8906" rx="2.5" ry="2.5" style="stroke:#181818;stroke-width:0.5;" width="148.5684" x="1055.72" y="141.04"/><ellipse cx="1105.9949" cy="157.04" fill="#B4A7E5" rx="11" ry="11" style="stroke:#181818;stroke-width:1;"/><path d="M1101.9168,152.8056 L1101.9168,150.6494 L1109.3074,150.6494 L1109.3074,152.8056 L1106.8387,152.8056 L1106.8387,160.8838 L1109.3074,160.8838 L1109.3074,163.04 L1101.9168,163.04 L1101.9168,160.8838 L1104.3855,160.8838 L1104.3855,152.8056 L1101.9168,152.8056 Z " fill="#000000"/><text fill="#000000" font-family="sans-serif" font-size="14" font-style="italic" lengthAdjust="spacing" textLength="39.5186" x="1126.4949" y="161.8867">Score</text><line style="stroke:#181818;stroke-width:0.5;" x1="1056.72" x2="1203.2884" y1="173.04" y2="173.04"/><line style="stroke:#181818;stroke-width:0.5;" x1="1056.72" x2="1203.2884" y1="181.04" y2="181.04"/><ellipse cx="1066.72" cy="194.6884" fill="#84BE84" rx="3" ry="3" style="stroke:#038048;stroke-width:1;"/><text fill="#000000" font-family="sans-serif" font-size="14" font-style="italic" lengthAdjust="spacing" textLength="96.1338" x="1075.72" y="198.0351">int getScore()</text><ellipse cx="1066.72" cy="210.9853" fill="#84BE84" rx="3" ry="3" style="stroke:#038048;stroke-width:1;"/><text fill="#000000" font-family="sans-serif" font-size="14" font-style="italic" lengthAdjust="spacing" textLength="122.5684" x="1075.72" y="214.332">void increase(int)</text><ellipse cx="1066.72" cy="227.2822" fill="#84BE84" rx="3" ry="3" style="stroke:#038048;stroke-width:1;"/><text fill="#000000" font-family="sans-serif" font-size="14" font-style="italic" lengthAdjust="spacing" textLength="80.7666" x="1075.72" y="230.6289">void reset()</text></g><!--class ScoreManager--><g class="entity" data-entity="ScoreManager" data-source-line="8" data-uid="ent0009" id="entity_ScoreManager"><rect fill="#F1F1F1" height="210.9688" rx="2.5" ry="2.5" style="stroke:#181818;stroke-width:0.5;" width="279.0254" x="741.49" y="84"/><ellipse cx="826.3103" cy="100" fill="#B4A7E5" rx="11" ry="11" style="stroke:#181818;stroke-width:1;"/><path d="M822.2322,95.7656 L822.2322,93.6094 L829.6228,93.6094 L829.6228,95.7656 L827.1541,95.7656 L827.1541,103.8438 L829.6228,103.8438 L829.6228,106 L822.2322,106 L822.2322,103.8438 L824.7009,103.8438 L824.7009,95.7656 L822.2322,95.7656 Z " fill="#000000"/><text fill="#000000" font-family="sans-serif" font-size="14" font-style="italic" lengthAdjust="spacing" textLength="100.8848" x="846.8103" y="104.8467">ScoreManager</text><line style="stroke:#181818;stroke-width:0.5;" x1="742.49" x2="1019.5154" y1="116" y2="116"/><line style="stroke:#181818;stroke-width:0.5;" x1="742.49" x2="1019.5154" y1="124" y2="124"/><ellipse cx="752.49" cy="137.6484" fill="#84BE84" rx="3" ry="3" style="stroke:#038048;stroke-width:1;"/><text fill="#000000" font-family="sans-serif" font-size="14" font-style="italic" lengthAdjust="spacing" textLength="149.2695" x="761.49" y="140.9951">int getCurrentScore()</text><ellipse cx="752.49" cy="153.9453" fill="#84BE84" rx="3" ry="3" style="stroke:#038048;stroke-width:1;"/><text fill="#000000" font-family="sans-serif" font-size="14" font-style="italic" lengthAdjust="spacing" textLength="152.9609" x="761.49" y="157.292">int getCurrentBonus()</text><ellipse cx="752.49" cy="170.2422" fill="#84BE84" rx="3" ry="3" style="stroke:#038048;stroke-width:1;"/><text fill="#000000" font-family="sans-serif" font-size="14" font-style="italic" lengthAdjust="spacing" textLength="213.1855" x="761.49" y="173.5889">List&lt;Entry&gt; getLeaderBoard()</text><ellipse cx="752.49" cy="186.5391" fill="#84BE84" rx="3" ry="3" style="stroke:#038048;stroke-width:1;"/><text fill="#000000" font-family="sans-serif" font-size="14" font-style="italic" lengthAdjust="spacing" textLength="149.707" x="761.49" y="189.8857">int getHighestScore()</text><ellipse cx="752.49" cy="202.8359" fill="#84BE84" rx="3" ry="3" style="stroke:#038048;stroke-width:1;"/><text fill="#000000" font-family="sans-serif" font-size="14" font-style="italic" lengthAdjust="spacing" textLength="182.9707" x="761.49" y="206.1826">void calculateBonus(float)</text><ellipse cx="752.49" cy="219.1328" fill="#84BE84" rx="3" ry="3" style="stroke:#038048;stroke-width:1;"/><text fill="#000000" font-family="sans-serif" font-size="14" font-style="italic" lengthAdjust="spacing" textLength="137.6279" x="761.49" y="222.4795">void earnPoints(int)</text><ellipse cx="752.49" cy="235.4297" fill="#84BE84" rx="3" ry="3" style="stroke:#038048;stroke-width:1;"/><text fill="#000000" font-family="sans-serif" font-size="14" font-style="italic" lengthAdjust="spacing" textLength="125.4053" x="761.49" y="238.7764">void startMap(int)</text><ellipse cx="752.49" cy="251.7266" fill="#84BE84" rx="3" ry="3" style="stroke:#038048;stroke-width:1;"/><text fill="#000000" font-family="sans-serif" font-size="14" font-style="italic" lengthAdjust="spacing" textLength="100.9189" x="761.49" y="255.0732">void endMap()</text><ellipse cx="752.49" cy="268.0234" fill="#84BE84" rx="3" ry="3" style="stroke:#038048;stroke-width:1;"/><text fill="#000000" font-family="sans-serif" font-size="14" font-style="italic" lengthAdjust="spacing" textLength="253.0254" x="761.49" y="271.3701">void addEntryInLeaderBoard(String)</text><ellipse cx="752.49" cy="284.3203" fill="#84BE84" rx="3" ry="3" style="stroke:#038048;stroke-width:1;"/><text fill="#000000" font-family="sans-serif" font-size="14" font-style="italic" lengthAdjust="spacing" textLength="150.9307" x="761.49" y="287.667">boolean saveScores()</text></g><!--class Bonus--><g class="entity" data-entity="Bonus" data-source-line="20" data-uid="ent0010" id="entity_Bonus"><rect fill="#F1F1F1" height="96.8906" rx="2.5" ry="2.5" style="stroke:#181818;stroke-width:0.5;" width="153.8594" x="70.07" y="141.04"/><ellipse cx="121.1447" cy="157.04" fill="#B4A7E5" rx="11" ry="11" style="stroke:#181818;stroke-width:1;"/><path d="M117.0666,152.8056 L117.0666,150.6494 L124.4572,150.6494 L124.4572,152.8056 L121.9885,152.8056 L121.9885,160.8838 L124.4572,160.8838 L124.4572,163.04 L117.0666,163.04 L117.0666,160.8838 L119.5353,160.8838 L119.5353,152.8056 L117.0666,152.8056 Z " fill="#000000"/><text fill="#000000" font-family="sans-serif" font-size="14" font-style="italic" lengthAdjust="spacing" textLength="43.21" x="141.6447" y="161.8867">Bonus</text><line style="stroke:#181818;stroke-width:0.5;" x1="71.07" x2="222.9294" y1="173.04" y2="173.04"/><line style="stroke:#181818;stroke-width:0.5;" x1="71.07" x2="222.9294" y1="181.04" y2="181.04"/><ellipse cx="81.07" cy="194.6884" fill="#84BE84" rx="3" ry="3" style="stroke:#038048;stroke-width:1;"/><text fill="#000000" font-family="sans-serif" font-size="14" font-style="italic" lengthAdjust="spacing" textLength="99.8252" x="90.07" y="198.0351">int getBonus()</text><ellipse cx="81.07" cy="210.9853" fill="#84BE84" rx="3" ry="3" style="stroke:#038048;stroke-width:1;"/><text fill="#000000" font-family="sans-serif" font-size="14" font-style="italic" lengthAdjust="spacing" textLength="127.8594" x="90.07" y="214.332">void setBonus(int)</text><ellipse cx="81.07" cy="227.2822" fill="#84BE84" rx="3" ry="3" style="stroke:#038048;stroke-width:1;"/><text fill="#000000" font-family="sans-serif" font-size="14" font-style="italic" lengthAdjust="spacing" textLength="108.3086" x="90.07" y="230.6289">void calculate()</text></g><!--class Entry--><g class="entity" data-entity="Entry" data-source-line="25" data-uid="ent0012" id="entity_Entry"><rect fill="#F1F1F1" height="80.5938" rx="2.5" ry="2.5" style="stroke:#181818;stroke-width:0.5;" width="147.4473" x="280.28" y="149.19"/><ellipse cx="331.1291" cy="165.19" fill="#B4A7E5" rx="11" ry="11" style="stroke:#181818;stroke-width:1;"/><path d="M327.051,160.9556 L327.051,158.7994 L334.4416,158.7994 L334.4416,160.9556 L331.9729,160.9556 L331.9729,169.0338 L334.4416,169.0338 L334.4416,171.19 L327.051,171.19 L327.051,169.0338 L329.5197,169.0338 L329.5197,160.9556 L327.051,160.9556 Z " fill="#000000"/><text fill="#000000" font-family="sans-serif" font-size="14" font-style="italic" lengthAdjust="spacing" textLength="37.249" x="351.6291" y="170.0367">Entry</text><line style="stroke:#181818;stroke-width:0.5;" x1="281.28" x2="426.7273" y1="181.19" y2="181.19"/><line style="stroke:#181818;stroke-width:0.5;" x1="281.28" x2="426.7273" y1="189.19" y2="189.19"/><ellipse cx="291.28" cy="202.8384" fill="#84BE84" rx="3" ry="3" style="stroke:#038048;stroke-width:1;"/><text fill="#000000" font-family="sans-serif" font-size="14" font-style="italic" lengthAdjust="spacing" textLength="121.4473" x="300.28" y="206.1851">String getName()</text><ellipse cx="291.28" cy="219.1353" fill="#84BE84" rx="3" ry="3" style="stroke:#038048;stroke-width:1;"/><text fill="#000000" font-family="sans-serif" font-size="14" font-style="italic" lengthAdjust="spacing" textLength="96.1338" x="300.28" y="222.482">int getScore()</text></g><!--class Leaderboard--><g class="entity" data-entity="Leaderboard" data-source-line="29" data-uid="ent0014" id="entity_Leaderboard"><rect fill="#F1F1F1" height="80.5938" rx="2.5" ry="2.5" style="stroke:#181818;stroke-width:0.5;" width="222.3623" x="483.82" y="149.19"/><ellipse cx="546.2902" cy="165.19" fill="#B4A7E5" rx="11" ry="11" style="stroke:#181818;stroke-width:1;"/><path d="M542.2121,160.9556 L542.2121,158.7994 L549.6027,158.7994 L549.6027,160.9556 L547.134,160.9556 L547.134,169.0338 L549.6027,169.0338 L549.6027,171.19 L542.2121,171.19 L542.2121,169.0338 L544.6808,169.0338 L544.6808,160.9556 L542.2121,160.9556 Z " fill="#000000"/><text fill="#000000" font-family="sans-serif" font-size="14" font-style="italic" lengthAdjust="spacing" textLength="88.9219" x="566.7902" y="170.0367">Leaderboard</text><line style="stroke:#181818;stroke-width:0.5;" x1="484.82" x2="705.1823" y1="181.19" y2="181.19"/><line style="stroke:#181818;stroke-width:0.5;" x1="484.82" x2="705.1823" y1="189.19" y2="189.19"/><ellipse cx="494.82" cy="202.8384" fill="#84BE84" rx="3" ry="3" style="stroke:#038048;stroke-width:1;"/><text fill="#000000" font-family="sans-serif" font-size="14" font-style="italic" lengthAdjust="spacing" textLength="196.3623" x="503.82" y="206.1851">List&lt;Entry&gt; getTopScores()</text><ellipse cx="494.82" cy="219.1353" fill="#84BE84" rx="3" ry="3" style="stroke:#038048;stroke-width:1;"/><text fill="#000000" font-family="sans-serif" font-size="14" font-style="italic" lengthAdjust="spacing" textLength="172.1973" x="503.82" y="222.482">boolean addEntry(Entry)</text></g><!--class GameScore--><g class="entity" data-entity="GameScore" data-source-line="33" data-uid="ent0016" id="entity_GameScore"><rect fill="#F1F1F1" height="96.8906" rx="2.5" ry="2.5" style="stroke:#181818;stroke-width:0.5;" width="148.5684" x="1055.72" y="427.01"/><ellipse cx="1086.637" cy="443.01" fill="#ADD1B2" rx="11" ry="11" style="stroke:#181818;stroke-width:1;"/><path d="M1089.6057,448.6506 Q1089.0276,448.9475 1088.387,449.0881 Q1087.7464,449.2444 1087.0432,449.2444 Q1084.5432,449.2444 1083.2151,447.6038 Q1081.9026,445.9475 1081.9026,442.8225 Q1081.9026,439.6975 1083.2151,438.0413 Q1084.5432,436.385 1087.0432,436.385 Q1087.7464,436.385 1088.387,436.5413 Q1089.0432,436.6975 1089.6057,436.9944 L1089.6057,439.7131 Q1088.9807,439.135 1088.387,438.8694 Q1087.7932,438.5881 1087.1682,438.5881 Q1085.8245,438.5881 1085.137,439.6663 Q1084.4495,440.7288 1084.4495,442.8225 Q1084.4495,444.9163 1085.137,445.9944 Q1085.8245,447.0569 1087.1682,447.0569 Q1087.7932,447.0569 1088.387,446.7913 Q1088.9807,446.51 1089.6057,445.9319 L1089.6057,448.6506 Z " fill="#000000"/><text fill="#000000" font-family="sans-serif" font-size="14" lengthAdjust="spacing" textLength="81.1973" x="1104.1741" y="447.8567">GameScore</text><line style="stroke:#181818;stroke-width:0.5;" x1="1056.72" x2="1203.2884" y1="459.01" y2="459.01"/><line style="stroke:#181818;stroke-width:0.5;" x1="1056.72" x2="1203.2884" y1="467.01" y2="467.01"/><ellipse cx="1066.72" cy="480.6584" fill="#84BE84" rx="3" ry="3" style="stroke:#038048;stroke-width:1;"/><text fill="#000000" font-family="sans-serif" font-size="14" lengthAdjust="spacing" textLength="96.1338" x="1075.72" y="484.0051">int getScore()</text><ellipse cx="1066.72" cy="496.9553" fill="#84BE84" rx="3" ry="3" style="stroke:#038048;stroke-width:1;"/><text fill="#000000" font-family="sans-serif" font-size="14" lengthAdjust="spacing" textLength="122.5684" x="1075.72" y="500.302">void increase(int)</text><ellipse cx="1066.72" cy="513.2522" fill="#84BE84" rx="3" ry="3" style="stroke:#038048;stroke-width:1;"/><text fill="#000000" font-family="sans-serif" font-size="14" lengthAdjust="spacing" textLength="80.7666" x="1075.72" y="516.5989">void reset()</text></g><!--class GameScoreManager--><g class="entity" data-entity="GameScoreManager" data-source-line="38" data-uid="ent0019" id="entity_GameScoreManager"><rect fill="#F1F1F1" height="210.9688" rx="2.5" ry="2.5" style="stroke:#181818;stroke-width:0.5;" width="279.0254" x="741.49" y="369.97"/><ellipse cx="805.471" cy="385.97" fill="#ADD1B2" rx="11" ry="11" style="stroke:#181818;stroke-width:1;"/><path d="M808.4397,391.6106 Q807.8616,391.9075 807.221,392.0481 Q806.5803,392.2044 805.8772,392.2044 Q803.3772,392.2044 802.0491,390.5638 Q800.7366,388.9075 800.7366,385.7825 Q800.7366,382.6575 802.0491,381.0013 Q803.3772,379.345 805.8772,379.345 Q806.5803,379.345 807.221,379.5013 Q807.8772,379.6575 808.4397,379.9544 L808.4397,382.6731 Q807.8147,382.095 807.221,381.8294 Q806.6272,381.5481 806.0022,381.5481 Q804.6585,381.5481 803.971,382.6263 Q803.2835,383.6888 803.2835,385.7825 Q803.2835,387.8763 803.971,388.9544 Q804.6585,390.0169 806.0022,390.0169 Q806.6272,390.0169 807.221,389.7513 Q807.8147,389.47 808.4397,388.8919 L808.4397,391.6106 Z " fill="#000000"/><text fill="#000000" font-family="sans-serif" font-size="14" lengthAdjust="spacing" textLength="142.5635" x="825.971" y="390.8167">GameScoreManager</text><line style="stroke:#181818;stroke-width:0.5;" x1="742.49" x2="1019.5154" y1="401.97" y2="401.97"/><line style="stroke:#181818;stroke-width:0.5;" x1="742.49" x2="1019.5154" y1="409.97" y2="409.97"/><ellipse cx="752.49" cy="423.6184" fill="#84BE84" rx="3" ry="3" style="stroke:#038048;stroke-width:1;"/><text fill="#000000" font-family="sans-serif" font-size="14" lengthAdjust="spacing" textLength="149.2695" x="761.49" y="426.9651">int getCurrentScore()</text><ellipse cx="752.49" cy="439.9153" fill="#84BE84" rx="3" ry="3" style="stroke:#038048;stroke-width:1;"/><text fill="#000000" font-family="sans-serif" font-size="14" lengthAdjust="spacing" textLength="152.9609" x="761.49" y="443.262">int getCurrentBonus()</text><ellipse cx="752.49" cy="456.2122" fill="#84BE84" rx="3" ry="3" style="stroke:#038048;stroke-width:1;"/><text fill="#000000" font-family="sans-serif" font-size="14" lengthAdjust="spacing" textLength="213.1855" x="761.49" y="459.5589">List&lt;Entry&gt; getLeaderBoard()</text><ellipse cx="752.49" cy="472.5091" fill="#84BE84" rx="3" ry="3" style="stroke:#038048;stroke-width:1;"/><text fill="#000000" font-family="sans-serif" font-size="14" lengthAdjust="spacing" textLength="149.707" x="761.49" y="475.8557">int getHighestScore()</text><ellipse cx="752.49" cy="488.8059" fill="#84BE84" rx="3" ry="3" style="stroke:#038048;stroke-width:1;"/><text fill="#000000" font-family="sans-serif" font-size="14" lengthAdjust="spacing" textLength="182.9707" x="761.49" y="492.1526">void calculateBonus(float)</text><ellipse cx="752.49" cy="505.1028" fill="#84BE84" rx="3" ry="3" style="stroke:#038048;stroke-width:1;"/><text fill="#000000" font-family="sans-serif" font-size="14" lengthAdjust="spacing" textLength="137.6279" x="761.49" y="508.4495">void earnPoints(int)</text><ellipse cx="752.49" cy="521.3997" fill="#84BE84" rx="3" ry="3" style="stroke:#038048;stroke-width:1;"/><text fill="#000000" font-family="sans-serif" font-size="14" lengthAdjust="spacing" textLength="125.4053" x="761.49" y="524.7464">void startMap(int)</text><ellipse cx="752.49" cy="537.6966" fill="#84BE84" rx="3" ry="3" style="stroke:#038048;stroke-width:1;"/><text fill="#000000" font-family="sans-serif" font-size="14" lengthAdjust="spacing" textLength="100.9189" x="761.49" y="541.0432">void endMap()</text><ellipse cx="752.49" cy="553.9934" fill="#84BE84" rx="3" ry="3" style="stroke:#038048;stroke-width:1;"/><text fill="#000000" font-family="sans-serif" font-size="14" lengthAdjust="spacing" textLength="253.0254" x="761.49" y="557.3401">void addEntryInLeaderBoard(String)</text><ellipse cx="752.49" cy="570.2903" fill="#84BE84" rx="3" ry="3" style="stroke:#038048;stroke-width:1;"/><text fill="#000000" font-family="sans-serif" font-size="14" lengthAdjust="spacing" textLength="150.9307" x="761.49" y="573.637">boolean saveScores()</text></g><!--class GameBonus--><g class="entity" data-entity="GameBonus" data-source-line="50" data-uid="ent0020" id="entity_GameBonus"><rect fill="#F1F1F1" height="113.1875" rx="2.5" ry="2.5" style="stroke:#181818;stroke-width:0.5;" width="153.8594" x="70.07" y="418.86"/><ellipse cx="101.7068" cy="434.86" fill="#ADD1B2" rx="11" ry="11" style="stroke:#181818;stroke-width:1;"/><path d="M104.6756,440.5006 Q104.0974,440.7975 103.4568,440.9381 Q102.8162,441.0944 102.1131,441.0944 Q99.6131,441.0944 98.2849,439.4538 Q96.9724,437.7975 96.9724,434.6725 Q96.9724,431.5475 98.2849,429.8913 Q99.6131,428.235 102.1131,428.235 Q102.8162,428.235 103.4568,428.3913 Q104.1131,428.5475 104.6756,428.8444 L104.6756,431.5631 Q104.0506,430.985 103.4568,430.7194 Q102.8631,430.4381 102.2381,430.4381 Q100.8943,430.4381 100.2068,431.5163 Q99.5193,432.5788 99.5193,434.6725 Q99.5193,436.7663 100.2068,437.8444 Q100.8943,438.9069 102.2381,438.9069 Q102.8631,438.9069 103.4568,438.6413 Q104.0506,438.36 104.6756,437.7819 L104.6756,440.5006 Z " fill="#000000"/><text fill="#000000" font-family="sans-serif" font-size="14" lengthAdjust="spacing" textLength="84.8887" x="119.4039" y="439.7067">GameBonus</text><line style="stroke:#181818;stroke-width:0.5;" x1="71.07" x2="222.9294" y1="450.86" y2="450.86"/><ellipse cx="81.07" cy="464.5084" fill="none" rx="3" ry="3" style="stroke:#038048;stroke-width:1;"/><text fill="#000000" font-family="sans-serif" font-size="14" lengthAdjust="spacing" text-decoration="underline" textLength="84.6494" x="90.07" y="467.8551">int AMOUNT</text><line style="stroke:#181818;stroke-width:0.5;" x1="71.07" x2="222.9294" y1="475.1569" y2="475.1569"/><ellipse cx="81.07" cy="488.8053" fill="#84BE84" rx="3" ry="3" style="stroke:#038048;stroke-width:1;"/><text fill="#000000" font-family="sans-serif" font-size="14" lengthAdjust="spacing" textLength="99.8252" x="90.07" y="492.152">int getBonus()</text><ellipse cx="81.07" cy="505.1022" fill="#84BE84" rx="3" ry="3" style="stroke:#038048;stroke-width:1;"/><text fill="#000000" font-family="sans-serif" font-size="14" lengthAdjust="spacing" textLength="127.8594" x="90.07" y="508.4489">void setBonus(int)</text><ellipse cx="81.07" cy="521.3991" fill="#84BE84" rx="3" ry="3" style="stroke:#038048;stroke-width:1;"/><text fill="#000000" font-family="sans-serif" font-size="14" lengthAdjust="spacing" textLength="108.3086" x="90.07" y="524.7457">void calculate()</text></g><!--class ScoreEntry--><g class="entity" data-entity="ScoreEntry" data-source-line="57" data-uid="ent0022" id="entity_ScoreEntry"><rect fill="#F1F1F1" height="113.1875" rx="2.5" ry="2.5" style="stroke:#181818;stroke-width:0.5;" width="147.4473" x="280.28" y="418.86"/><ellipse cx="312.6859" cy="434.86" fill="#ADD1B2" rx="11" ry="11" style="stroke:#181818;stroke-width:1;"/><path d="M315.6546,440.5006 Q315.0765,440.7975 314.4359,440.9381 Q313.7952,441.0944 313.0921,441.0944 Q310.5921,441.0944 309.264,439.4538 Q307.9515,437.7975 307.9515,434.6725 Q307.9515,431.5475 309.264,429.8913 Q310.5921,428.235 313.0921,428.235 Q313.7952,428.235 314.4359,428.3913 Q315.0921,428.5475 315.6546,428.8444 L315.6546,431.5631 Q315.0296,430.985 314.4359,430.7194 Q313.8421,430.4381 313.2171,430.4381 Q311.8734,430.4381 311.1859,431.5163 Q310.4984,432.5788 310.4984,434.6725 Q310.4984,436.7663 311.1859,437.8444 Q311.8734,438.9069 313.2171,438.9069 Q313.8421,438.9069 314.4359,438.6413 Q315.0296,438.36 315.6546,437.7819 L315.6546,440.5006 Z " fill="#000000"/><text fill="#000000" font-family="sans-serif" font-size="14" lengthAdjust="spacing" textLength="76.7676" x="330.5538" y="439.7067">ScoreEntry</text><line style="stroke:#181818;stroke-width:0.5;" x1="281.28" x2="426.7273" y1="450.86" y2="450.86"/><line style="stroke:#181818;stroke-width:0.5;" x1="281.28" x2="426.7273" y1="458.86" y2="458.86"/><ellipse cx="291.28" cy="472.5084" fill="#84BE84" rx="3" ry="3" style="stroke:#038048;stroke-width:1;"/><text fill="#000000" font-family="sans-serif" font-size="14" lengthAdjust="spacing" textLength="121.4473" x="300.28" y="475.8551">String getName()</text><ellipse cx="291.28" cy="488.8053" fill="#84BE84" rx="3" ry="3" style="stroke:#038048;stroke-width:1;"/><text fill="#000000" font-family="sans-serif" font-size="14" lengthAdjust="spacing" textLength="96.1338" x="300.28" y="492.152">int getScore()</text><ellipse cx="291.28" cy="505.1022" fill="#84BE84" rx="3" ry="3" style="stroke:#038048;stroke-width:1;"/><text fill="#000000" font-family="sans-serif" font-size="14" lengthAdjust="spacing" textLength="96.8584" x="300.28" y="508.4489">String name()</text><ellipse cx="291.28" cy="521.3991" fill="#84BE84" rx="3" ry="3" style="stroke:#038048;stroke-width:1;"/><text fill="#000000" font-family="sans-serif" font-size="14" lengthAdjust="spacing" textLength="71.5518" x="300.28" y="524.7457">int score()</text></g><!--class GameLeaderboard--><g class="entity" data-entity="GameLeaderboard" data-source-line="63" data-uid="ent0024" id="entity_GameLeaderboard"><rect fill="#F1F1F1" height="96.8906" rx="2.5" ry="2.5" style="stroke:#181818;stroke-width:0.5;" width="222.3623" x="483.82" y="427.01"/><ellipse cx="525.7128" cy="443.01" fill="#ADD1B2" rx="11" ry="11" style="stroke:#181818;stroke-width:1;"/><path d="M528.6815,448.6506 Q528.1034,448.9475 527.4628,449.0881 Q526.8221,449.2444 526.119,449.2444 Q523.619,449.2444 522.2909,447.6038 Q520.9784,445.9475 520.9784,442.8225 Q520.9784,439.6975 522.2909,438.0413 Q523.619,436.385 526.119,436.385 Q526.8221,436.385 527.4628,436.5413 Q528.119,436.6975 528.6815,436.9944 L528.6815,439.7131 Q528.0565,439.135 527.4628,438.8694 Q526.869,438.5881 526.244,438.5881 Q524.9003,438.5881 524.2128,439.6663 Q523.5253,440.7288 523.5253,442.8225 Q523.5253,444.9163 524.2128,445.9944 Q524.9003,447.0569 526.244,447.0569 Q526.869,447.0569 527.4628,446.7913 Q528.0565,446.51 528.6815,445.9319 L528.6815,448.6506 Z " fill="#000000"/><text fill="#000000" font-family="sans-serif" font-size="14" lengthAdjust="spacing" textLength="130.6006" x="545.6889" y="447.8567">GameLeaderboard</text><line style="stroke:#181818;stroke-width:0.5;" x1="484.82" x2="705.1823" y1="459.01" y2="459.01"/><ellipse cx="494.82" cy="472.6584" fill="none" rx="3" ry="3" style="stroke:#038048;stroke-width:1;"/><text fill="#000000" font-family="sans-serif" font-size="14" lengthAdjust="spacing" text-decoration="underline" textLength="120.4082" x="503.82" y="476.0051">int MAX_ENTRIES</text><line style="stroke:#181818;stroke-width:0.5;" x1="484.82" x2="705.1823" y1="483.3069" y2="483.3069"/><ellipse cx="494.82" cy="496.9553" fill="#84BE84" rx="3" ry="3" style="stroke:#038048;stroke-width:1;"/><text fill="#000000" font-family="sans-serif" font-size="14" lengthAdjust="spacing" textLength="196.3623" x="503.82" y="500.302">List&lt;Entry&gt; getTopScores()</text><ellipse cx="494.82" cy="513.2522" fill="#84BE84" rx="3" ry="3" style="stroke:#038048;stroke-width:1;"/><text fill="#000000" font-family="sans-serif" font-size="14" lengthAdjust="spacing" textLength="172.1973" x="503.82" y="516.5989">boolean addEntry(Entry)</text></g><!--reverse link Score to GameScore--><g class="link" data-entity-1="Score" data-entity-2="GameScore" data-source-line="69" data-uid="lnk27" id="link_Score_GameScore"><path codeLine="69" d="M1130,256.34 C1130,308.81 1130,374.52 1130,426.88" fill="none" id="Score-backto-GameScore" style="stroke:#181818;stroke-width:1;stroke-dasharray:7.0,7.0;"/><polygon fill="none" points="1130,238.34,1124,256.34,1136,256.34,1130,238.34" style="stroke:#181818;stroke-width:1;"/></g><!--reverse link ScoreManager to GameScoreManager--><g class="link" data-entity-1="ScoreManager" data-entity-2="GameScoreManager" data-source-line="70" data-uid="lnk29" id="link_ScoreManager_GameScoreManager"><path codeLine="70" d="M881,313.42 C881,337.59 881,345.31 881,369.48" fill="none" id="ScoreManager-backto-GameScoreManager" style="stroke:#181818;stroke-width:1;stroke-dasharray:7.0,7.0;"/><polygon fill="none" points="881,295.42,875,313.42,887,313.42,881,295.42" style="stroke:#181818;stroke-width:1;"/></g><!--link GameScoreManager to Entry--><g class="link" data-entity-1="GameScoreManager" data-entity-2="Entry" data-source-line="71" data-uid="lnk30" id="link_GameScoreManager_Entry"><path codeLine="71" d="M789.33,369.51 C768.99,352.32 746.21,336.91 722,326.97 C695.88,316.24 493.57,330.95 468,318.97 C428.17,300.3 399.663,265.5187 379.883,235.1287" fill="none" id="GameScoreManager-to-Entry" style="stroke:#181818;stroke-width:1;"/><polygon fill="#181818" points="376.61,230.1,378.1671,239.825,379.3375,234.2905,384.872,235.461,376.61,230.1" style="stroke:#181818;stroke-width:1;"/></g><!--link GameScoreManager to Bonus--><g class="link" data-entity-1="GameScoreManager" data-entity-2="Bonus" data-source-line="72" data-uid="lnk31" id="link_GameScoreManager_Bonus"><path codeLine="72" d="M789.88,369.61 C769.42,352.3 746.45,336.81 722,326.97 C674.78,307.97 310.37,339.95 264,318.97 C226.89,302.19 199.8352,272.2753 179.2952,243.1153" fill="none" id="GameScoreManager-to-Bonus" style="stroke:#181818;stroke-width:1;"/><polygon fill="#181818" points="175.84,238.21,177.7526,247.8714,178.7193,242.2977,184.293,243.2644,175.84,238.21" style="stroke:#181818;stroke-width:1;"/></g><!--link GameScoreManager to Score--><g class="link" data-entity-1="GameScoreManager" data-entity-2="Score" data-source-line="73" data-uid="lnk32" id="link_GameScoreManager_Score"><path codeLine="73" d="M991.57,369.69 C1007.62,353.15 1023.57,335.9 1038,318.97 C1059.71,293.5 1078.2308,268.0711 1095.2208,243.2511" fill="none" id="GameScoreManager-to-Score" style="stroke:#181818;stroke-width:1;"/><polygon fill="#181818" points="1098.61,238.3,1090.2255,243.4672,1095.7857,242.4259,1096.827,247.9861,1098.61,238.3" style="stroke:#181818;stroke-width:1;"/></g><!--link GameScoreManager to Leaderboard--><g class="link" data-entity-1="GameScoreManager" data-entity-2="Leaderboard" data-source-line="74" data-uid="lnk33" id="link_GameScoreManager_Leaderboard"><path codeLine="74" d="M772.68,369.75 C756.08,354.95 738.85,340.26 722,326.97 C716.97,323 714.84,323.17 710,318.97 C678.9,292 651.8378,261.5768 629.9278,234.8968" fill="none" id="GameScoreManager-to-Leaderboard" style="stroke:#181818;stroke-width:1;"/><polygon fill="#181818" points="626.12,230.26,628.7405,239.7538,629.2932,234.124,634.923,234.6767,626.12,230.26" style="stroke:#181818;stroke-width:1;"/></g><!--reverse link Bonus to GameBonus--><g class="link" data-entity-1="Bonus" data-entity-2="GameBonus" data-source-line="75" data-uid="lnk35" id="link_Bonus_GameBonus"><path codeLine="75" d="M147,256.34 C147,306.13 147,366.03 147,418.6" fill="none" id="Bonus-backto-GameBonus" style="stroke:#181818;stroke-width:1;stroke-dasharray:7.0,7.0;"/><polygon fill="none" points="147,238.34,141,256.34,153,256.34,147,238.34" style="stroke:#181818;stroke-width:1;"/></g><!--reverse link Entry to ScoreEntry--><g class="link" data-entity-1="Entry" data-entity-2="ScoreEntry" data-source-line="76" data-uid="lnk37" id="link_Entry_ScoreEntry"><path codeLine="76" d="M354,248.27 C354,297.34 354,363.07 354,418.58" fill="none" id="Entry-backto-ScoreEntry" style="stroke:#181818;stroke-width:1;stroke-dasharray:7.0,7.0;"/><polygon fill="none" points="354,230.27,348,248.27,360,248.27,354,230.27" style="stroke:#181818;stroke-width:1;"/></g><!--reverse link Leaderboard to GameLeaderboard--><g class="link" data-entity-1="Leaderboard" data-entity-2="GameLeaderboard" data-source-line="77" data-uid="lnk39" id="link_Leaderboard_GameLeaderboard"><path codeLine="77" d="M595,248.27 C595,299.86 595,371.75 595,426.89" fill="none" id="Leaderboard-backto-GameLeaderboard" style="stroke:#181818;stroke-width:1;stroke-dasharray:7.0,7.0;"/><polygon fill="none" points="595,230.27,589,248.27,601,248.27,595,230.27" style="stroke:#181818;stroke-width:1;"/></g><!--link GameLeaderboard to Entry--><g class="link" data-entity-1="GameLeaderboard" data-entity-2="Entry" data-source-line="78" data-uid="lnk40" id="link_GameLeaderboard_Entry"><path codeLine="78" d="M554.64,426.89 C507.84,371.75 435.4327,286.4343 391.6427,234.8443" fill="none" id="GameLeaderboard-to-Entry" style="stroke:#181818;stroke-width:1;"/><polygon fill="#181818" points="387.76,230.27,390.5345,239.72,390.9956,234.0819,396.6336,234.543,387.76,230.27" style="stroke:#181818;stroke-width:1;"/></g><!--SRC=[jLN1Rjim3BtdAxISCWpL5mm1sY7O0ZHPiMJ0RW5jqvvGMp8akS3GzTzdouwhs98df-WbX_1HV7paep-K4h82IALmopNA0XC66XyWVeGC5KaXLxXOi2QMGenaUOY5n2K1HPYc5MUHeB58KumamYCjH88vXP9HrU2eGPFd1I6Vo3D4Iak8zKlz7CbGc-3guo3u95X268_hznIkQgWJ856XhdDVHjnsm6lgSXx5Bid7z4ib9N8FuKlCdU2L6c7kcTAVDrpBF-i6Uu-GeBmJ81FVSzzOzXlLb4Onv76LrzDgIwQv0BTM298_YFfTvPLJQP1w1wKNW3nfmiuO98bfRSljlWvQCfuD4o8XSWHE53oXwKqDXsYw2PvUrA2foV4DppsHjkrprDTsh_6GfMauc2KsQ6foHYnRdHgYUoYystNUWmiIhTnH8tSmbVmrXrhv8rg3ZJsAiX-NUwBdBLYPtuPfd8DIPFcrRYlaQh2Yp3kIVKfBQtmlt4TYS1c6zSCkWul6nNdmtWJl8VYV-xsMd_QvpznkHuzi7EPTZs4jRKCCQudQEhPFF2zUpLUpsApxxUxxp_sn_ljqijInz7Hxrs7OZgNX7U9OYsPhsTVCbgVBhEFjx53y0g9w1rlQXJlOecPRUF28GytTxQ_JPd_yiTqSUacdpUrtz4ppqeh-NOT_X1VNcN9cbIxjoc8tD-kv5_-TArbVm7Ukz9OXXTRmV9uMLvsMyCsOBUBeF8JNchqQKtuFB_icPQSeN669Vm00]--></g></svg>