<svg xmlns="http://www.w3.org/2000/svg" xmlns:xlink="http://www.w3.org/1999/xlink" contentStyleType="text/css" data-diagram-type="CLASS" height="1093px" preserveAspectRatio="none" style="width:980px;height:1093px;background:#FFFFFF;" version="1.1" viewBox="0 0 980 1093" width="980px" zoomAndPan="magnify"><defs/><g><!--cluster coffebreak--><g class="cluster" data-entity="coffebreak" data-source-line="3" data-uid="ent0005" id="cluster_coffebreak"><path d="M8.5,6 L160.7725,6 A3.75,3.75 0 0 1 163.2725,8.5 L170.2725,28.2969 L970.5,28.2969 A2.5,2.5 0 0 1 973,30.7969 L973,1083.55 A2.5,2.5 0 0 1 970.5,1086.05 L8.5,1086.05 A2.5,2.5 0 0 1 6,1083.55 L6,8.5 A2.5,2.5 0 0 1 8.5,6" fill="none" style="stroke:#000000;stroke-width:1.5;"/><line style="stroke:#000000;stroke-width:1.5;" x1="6" x2="170.2725" y1="28.2969" y2="28.2969"/><text fill="#000000" font-family="sans-serif" font-size="14" font-weight="bold" lengthAdjust="spacing" textLength="151.2725" x="10" y="20.9951">it.unibo.coffebreak</text></g><!--cluster controller--><g class="cluster" data-entity="controller" data-source-line="3" data-uid="ent0006" id="cluster_controller"><path d="M32.5,394.6 L110.5957,394.6 A3.75,3.75 0 0 1 113.0957,397.1 L120.0957,416.8969 L946.5,416.8969 A2.5,2.5 0 0 1 949,419.3969 L949,1059.55 A2.5,2.5 0 0 1 946.5,1062.05 L32.5,1062.05 A2.5,2.5 0 0 1 30,1059.55 L30,397.1 A2.5,2.5 0 0 1 32.5,394.6" fill="none" style="stroke:#000000;stroke-width:1.5;"/><line style="stroke:#000000;stroke-width:1.5;" x1="30" x2="120.0957" y1="416.8969" y2="416.8969"/><text fill="#000000" font-family="sans-serif" font-size="14" font-weight="bold" lengthAdjust="spacing" textLength="77.0957" x="34" y="409.5951">controller</text></g><!--cluster api--><g class="cluster" data-entity="api" data-source-line="3" data-uid="ent0007" id="cluster_api"><path d="M56.5,437.6 L81.7676,437.6 A3.75,3.75 0 0 1 84.2676,440.1 L91.2676,459.8969 L922.5,459.8969 A2.5,2.5 0 0 1 925,462.3969 L925,764.07 A2.5,2.5 0 0 1 922.5,766.57 L56.5,766.57 A2.5,2.5 0 0 1 54,764.07 L54,440.1 A2.5,2.5 0 0 1 56.5,437.6" fill="none" style="stroke:#000000;stroke-width:1.5;"/><line style="stroke:#000000;stroke-width:1.5;" x1="54" x2="91.2676" y1="459.8969" y2="459.8969"/><text fill="#000000" font-family="sans-serif" font-size="14" font-weight="bold" lengthAdjust="spacing" textLength="24.2676" x="58" y="452.5951">api</text></g><!--cluster command--><g class="cluster" data-entity="command" data-source-line="10" data-uid="ent0009" id="cluster_command"><path d="M80.5,480.6 L158.0283,480.6 A3.75,3.75 0 0 1 160.5283,483.1 L167.5283,502.8969 L359.5,502.8969 A2.5,2.5 0 0 1 362,505.3969 L362,740.07 A2.5,2.5 0 0 1 359.5,742.57 L80.5,742.57 A2.5,2.5 0 0 1 78,740.07 L78,483.1 A2.5,2.5 0 0 1 80.5,480.6" fill="none" style="stroke:#000000;stroke-width:1.5;"/><line style="stroke:#000000;stroke-width:1.5;" x1="78" x2="167.5283" y1="502.8969" y2="502.8969"/><text fill="#000000" font-family="sans-serif" font-size="14" font-weight="bold" lengthAdjust="spacing" textLength="76.5283" x="82" y="495.5951">command</text></g><!--cluster input--><g class="cluster" data-entity="input" data-source-line="23" data-uid="ent0011" id="cluster_input"><path d="M388.5,521.34 L430.9463,521.34 A3.75,3.75 0 0 1 433.4463,523.84 L440.4463,543.6369 L685.5,543.6369 A2.5,2.5 0 0 1 688,546.1369 L688,699.32 A2.5,2.5 0 0 1 685.5,701.82 L388.5,701.82 A2.5,2.5 0 0 1 386,699.32 L386,523.84 A2.5,2.5 0 0 1 388.5,521.34" fill="none" style="stroke:#000000;stroke-width:1.5;"/><line style="stroke:#000000;stroke-width:1.5;" x1="386" x2="440.4463" y1="543.6369" y2="543.6369"/><text fill="#000000" font-family="sans-serif" font-size="14" font-weight="bold" lengthAdjust="spacing" textLength="41.4463" x="390" y="536.3351">input</text></g><!--cluster impl--><g class="cluster" data-entity="impl" data-source-line="30" data-uid="ent0013" id="cluster_impl"><path d="M228.5,790.57 L263.707,790.57 A3.75,3.75 0 0 1 266.207,793.07 L273.207,812.8669 L786.5,812.8669 A2.5,2.5 0 0 1 789,815.3669 L789,1035.55 A2.5,2.5 0 0 1 786.5,1038.05 L228.5,1038.05 A2.5,2.5 0 0 1 226,1035.55 L226,793.07 A2.5,2.5 0 0 1 228.5,790.57" fill="none" style="stroke:#000000;stroke-width:1.5;"/><line style="stroke:#000000;stroke-width:1.5;" x1="226" x2="273.207" y1="812.8669" y2="812.8669"/><text fill="#000000" font-family="sans-serif" font-size="14" font-weight="bold" lengthAdjust="spacing" textLength="34.207" x="230" y="805.5651">impl</text></g><!--cluster input--><g class="cluster" data-entity="input" data-source-line="37" data-uid="ent0015" id="cluster_input"><path d="M252.5,833.57 L294.9463,833.57 A3.75,3.75 0 0 1 297.4463,836.07 L304.4463,855.8669 L549.5,855.8669 A2.5,2.5 0 0 1 552,858.3669 L552,1011.55 A2.5,2.5 0 0 1 549.5,1014.05 L252.5,1014.05 A2.5,2.5 0 0 1 250,1011.55 L250,836.07 A2.5,2.5 0 0 1 252.5,833.57" fill="none" style="stroke:#000000;stroke-width:1.5;"/><line style="stroke:#000000;stroke-width:1.5;" x1="250" x2="304.4463" y1="855.8669" y2="855.8669"/><text fill="#000000" font-family="sans-serif" font-size="14" font-weight="bold" lengthAdjust="spacing" textLength="41.4463" x="254" y="848.5651">input</text></g><!--cluster core--><g class="cluster" data-entity="core" data-source-line="44" data-uid="ent0017" id="cluster_core"><path d="M709.5,49 L744.8164,49 A3.75,3.75 0 0 1 747.3164,51.5 L754.3164,71.2969 L906.5,71.2969 A2.5,2.5 0 0 1 909,73.7969 L909,368.1 A2.5,2.5 0 0 1 906.5,370.6 L709.5,370.6 A2.5,2.5 0 0 1 707,368.1 L707,51.5 A2.5,2.5 0 0 1 709.5,49" fill="none" style="stroke:#000000;stroke-width:1.5;"/><line style="stroke:#000000;stroke-width:1.5;" x1="707" x2="754.3164" y1="71.2969" y2="71.2969"/><text fill="#000000" font-family="sans-serif" font-size="14" font-weight="bold" lengthAdjust="spacing" textLength="34.3164" x="711" y="63.9951">core</text></g><!--cluster api--><g class="cluster" data-entity="api" data-source-line="44" data-uid="ent0018" id="cluster_api"><path d="M747.5,92 L772.7676,92 A3.75,3.75 0 0 1 775.2676,94.5 L782.2676,114.2969 L868.5,114.2969 A2.5,2.5 0 0 1 871,116.7969 L871,204.8 A2.5,2.5 0 0 1 868.5,207.3 L747.5,207.3 A2.5,2.5 0 0 1 745,204.8 L745,94.5 A2.5,2.5 0 0 1 747.5,92" fill="none" style="stroke:#000000;stroke-width:1.5;"/><line style="stroke:#000000;stroke-width:1.5;" x1="745" x2="782.2676" y1="114.2969" y2="114.2969"/><text fill="#000000" font-family="sans-serif" font-size="14" font-weight="bold" lengthAdjust="spacing" textLength="24.2676" x="749" y="106.9951">api</text></g><!--cluster impl--><g class="cluster" data-entity="impl" data-source-line="47" data-uid="ent0020" id="cluster_impl"><path d="M733.5,231.3 L768.707,231.3 A3.75,3.75 0 0 1 771.207,233.8 L778.207,253.5969 L882.5,253.5969 A2.5,2.5 0 0 1 885,256.0969 L885,344.1 A2.5,2.5 0 0 1 882.5,346.6 L733.5,346.6 A2.5,2.5 0 0 1 731,344.1 L731,233.8 A2.5,2.5 0 0 1 733.5,231.3" fill="none" style="stroke:#000000;stroke-width:1.5;"/><line style="stroke:#000000;stroke-width:1.5;" x1="731" x2="778.207" y1="253.5969" y2="253.5969"/><text fill="#000000" font-family="sans-serif" font-size="14" font-weight="bold" lengthAdjust="spacing" textLength="34.207" x="735" y="246.2951">impl</text></g><!--class Controller--><g class="entity" data-entity="Controller" data-source-line="3" data-uid="ent0002" id="entity_Controller"><rect fill="#F1F1F1" height="129.4844" rx="2.5" ry="2.5" style="stroke:#181818;stroke-width:0.5;" width="202.7158" x="706.64" y="556.34"/><ellipse cx="769.1615" cy="572.34" fill="#B4A7E5" rx="11" ry="11" style="stroke:#181818;stroke-width:1;"/><path d="M765.0834,568.1056 L765.0834,565.9494 L772.474,565.9494 L772.474,568.1056 L770.0052,568.1056 L770.0052,576.1837 L772.474,576.1837 L772.474,578.34 L765.0834,578.34 L765.0834,576.1837 L767.5521,576.1837 L767.5521,568.1056 L765.0834,568.1056 Z " fill="#000000"/><text fill="#000000" font-family="sans-serif" font-size="14" font-style="italic" lengthAdjust="spacing" textLength="69.1729" x="789.6615" y="577.1867">Controller</text><line style="stroke:#181818;stroke-width:0.5;" x1="707.64" x2="908.3558" y1="588.34" y2="588.34"/><line style="stroke:#181818;stroke-width:0.5;" x1="707.64" x2="908.3558" y1="596.34" y2="596.34"/><ellipse cx="717.64" cy="609.9884" fill="#84BE84" rx="3" ry="3" style="stroke:#038048;stroke-width:1;"/><text fill="#000000" font-family="sans-serif" font-size="14" font-style="italic" lengthAdjust="spacing" textLength="176.7158" x="726.64" y="613.3351">void handleKeyDown(int)</text><ellipse cx="717.64" cy="626.2853" fill="#84BE84" rx="3" ry="3" style="stroke:#038048;stroke-width:1;"/><text fill="#000000" font-family="sans-serif" font-size="14" font-style="italic" lengthAdjust="spacing" textLength="156.1807" x="726.64" y="629.632">void handleKeyUp(int)</text><ellipse cx="717.64" cy="642.5822" fill="#84BE84" rx="3" ry="3" style="stroke:#038048;stroke-width:1;"/><text fill="#000000" font-family="sans-serif" font-size="14" font-style="italic" lengthAdjust="spacing" textLength="135.3584" x="726.64" y="645.9289">void processInput()</text><ellipse cx="717.64" cy="658.8791" fill="#84BE84" rx="3" ry="3" style="stroke:#038048;stroke-width:1;"/><text fill="#000000" font-family="sans-serif" font-size="14" font-style="italic" lengthAdjust="spacing" textLength="167.8154" x="726.64" y="662.2257">void updateModel(float)</text><ellipse cx="717.64" cy="675.1759" fill="#84BE84" rx="3" ry="3" style="stroke:#038048;stroke-width:1;"/><text fill="#000000" font-family="sans-serif" font-size="14" font-style="italic" lengthAdjust="spacing" textLength="167.7607" x="726.64" y="678.5226">boolean isGameActive()</text></g><!--class Command--><g class="entity" data-entity="Command" data-source-line="10" data-uid="ent0008" id="entity_Command"><rect fill="#F1F1F1" height="210.9688" rx="2.5" ry="2.5" style="stroke:#181818;stroke-width:0.5;" width="251.4355" x="94.28" y="515.6"/><ellipse cx="179.7702" cy="531.6" fill="#EB937F" rx="11" ry="11" style="stroke:#181818;stroke-width:1;"/><path d="M183.8796,537.6 L176.1609,537.6 L176.1609,525.2094 L183.8796,525.2094 L183.8796,527.3656 L178.614,527.3656 L178.614,530.0375 L183.3796,530.0375 L183.3796,532.1937 L178.614,532.1937 L178.614,535.4437 L183.8796,535.4437 L183.8796,537.6 Z " fill="#000000"/><text fill="#000000" font-family="sans-serif" font-size="14" lengthAdjust="spacing" textLength="71.9551" x="200.2702" y="536.4467">Command</text><line style="stroke:#181818;stroke-width:0.5;" x1="95.28" x2="344.7155" y1="547.6" y2="547.6"/><text fill="#000000" font-family="sans-serif" font-size="14" lengthAdjust="spacing" textLength="46.4434" x="100.28" y="564.5951">ENTER</text><text fill="#000000" font-family="sans-serif" font-size="14" lengthAdjust="spacing" textLength="33.9473" x="100.28" y="580.892">QUIT</text><text fill="#000000" font-family="sans-serif" font-size="14" lengthAdjust="spacing" textLength="54.373" x="100.28" y="597.1889">ESCAPE</text><text fill="#000000" font-family="sans-serif" font-size="14" lengthAdjust="spacing" textLength="67.2109" x="100.28" y="613.4857">MOVE_UP</text><text fill="#000000" font-family="sans-serif" font-size="14" lengthAdjust="spacing" textLength="94.6367" x="100.28" y="629.7826">MOVE_DOWN</text><text fill="#000000" font-family="sans-serif" font-size="14" lengthAdjust="spacing" textLength="92.3057" x="100.28" y="646.0795">MOVE_RIGHT</text><text fill="#000000" font-family="sans-serif" font-size="14" lengthAdjust="spacing" textLength="81.7715" x="100.28" y="662.3764">MOVE_LEFT</text><text fill="#000000" font-family="sans-serif" font-size="14" lengthAdjust="spacing" textLength="34.8975" x="100.28" y="678.6732">JUMP</text><text fill="#000000" font-family="sans-serif" font-size="14" lengthAdjust="spacing" textLength="40.8105" x="100.28" y="694.9701">NONE</text><line style="stroke:#181818;stroke-width:0.5;" x1="95.28" x2="344.7155" y1="702.2719" y2="702.2719"/><ellipse cx="105.28" cy="715.9203" fill="#84BE84" rx="3" ry="3" style="stroke:#038048;stroke-width:1;"/><text fill="#000000" font-family="sans-serif" font-size="14" lengthAdjust="spacing" textLength="225.4355" x="114.28" y="719.267">Command getInverseDirection()</text></g><!--class Input--><g class="entity" data-entity="Input" data-source-line="23" data-uid="ent0010" id="entity_Input"><rect fill="#F1F1F1" height="129.4844" rx="2.5" ry="2.5" style="stroke:#181818;stroke-width:0.5;" width="269.0518" x="402.47" y="556.34"/><ellipse cx="514.6204" cy="572.34" fill="#B4A7E5" rx="11" ry="11" style="stroke:#181818;stroke-width:1;"/><path d="M510.5423,568.1056 L510.5423,565.9494 L517.9329,565.9494 L517.9329,568.1056 L515.4641,568.1056 L515.4641,576.1837 L517.9329,576.1837 L517.9329,578.34 L510.5423,578.34 L510.5423,576.1837 L513.011,576.1837 L513.011,568.1056 L510.5423,568.1056 Z " fill="#000000"/><text fill="#000000" font-family="sans-serif" font-size="14" font-style="italic" lengthAdjust="spacing" textLength="36.251" x="535.1204" y="577.1867">Input</text><line style="stroke:#181818;stroke-width:0.5;" x1="403.47" x2="670.5218" y1="588.34" y2="588.34"/><line style="stroke:#181818;stroke-width:0.5;" x1="403.47" x2="670.5218" y1="596.34" y2="596.34"/><ellipse cx="413.47" cy="609.9884" fill="#84BE84" rx="3" ry="3" style="stroke:#038048;stroke-width:1;"/><text fill="#000000" font-family="sans-serif" font-size="14" font-style="italic" lengthAdjust="spacing" textLength="182.2734" x="422.47" y="613.3351">Command getCommand()</text><ellipse cx="413.47" cy="626.2853" fill="#84BE84" rx="3" ry="3" style="stroke:#038048;stroke-width:1;"/><text fill="#000000" font-family="sans-serif" font-size="14" font-style="italic" lengthAdjust="spacing" textLength="181.0293" x="422.47" y="629.632">void registerKeyPress(int)</text><ellipse cx="413.47" cy="642.5822" fill="#84BE84" rx="3" ry="3" style="stroke:#038048;stroke-width:1;"/><text fill="#000000" font-family="sans-serif" font-size="14" font-style="italic" lengthAdjust="spacing" textLength="198.96" x="422.47" y="645.9289">void registerKeyRelease(int)</text><ellipse cx="413.47" cy="658.8791" fill="#84BE84" rx="3" ry="3" style="stroke:#038048;stroke-width:1;"/><text fill="#000000" font-family="sans-serif" font-size="14" font-style="italic" lengthAdjust="spacing" textLength="243.0518" x="422.47" y="662.2257">Command bindKey(int, Command)</text><ellipse cx="413.47" cy="675.1759" fill="#84BE84" rx="3" ry="3" style="stroke:#038048;stroke-width:1;"/><text fill="#000000" font-family="sans-serif" font-size="14" font-style="italic" lengthAdjust="spacing" textLength="125.5283" x="422.47" y="678.5226">void clearQueue()</text></g><!--class GameController--><g class="entity" data-entity="GameController" data-source-line="30" data-uid="ent0012" id="entity_GameController"><rect fill="#F1F1F1" height="129.4844" rx="2.5" ry="2.5" style="stroke:#181818;stroke-width:0.5;" width="202.7158" x="570.64" y="868.57"/><ellipse cx="612.5789" cy="884.57" fill="#ADD1B2" rx="11" ry="11" style="stroke:#181818;stroke-width:1;"/><path d="M615.5477,890.2106 Q614.9695,890.5075 614.3289,890.6481 Q613.6883,890.8044 612.9852,890.8044 Q610.4852,890.8044 609.157,889.1637 Q607.8445,887.5075 607.8445,884.3825 Q607.8445,881.2575 609.157,879.6012 Q610.4852,877.945 612.9852,877.945 Q613.6883,877.945 614.3289,878.1012 Q614.9852,878.2575 615.5477,878.5544 L615.5477,881.2731 Q614.9227,880.695 614.3289,880.4294 Q613.7352,880.1481 613.1102,880.1481 Q611.7664,880.1481 611.0789,881.2262 Q610.3914,882.2887 610.3914,884.3825 Q610.3914,886.4762 611.0789,887.5544 Q611.7664,888.6169 613.1102,888.6169 Q613.7352,888.6169 614.3289,888.3512 Q614.9227,888.07 615.5477,887.4919 L615.5477,890.2106 Z " fill="#000000"/><text fill="#000000" font-family="sans-serif" font-size="14" lengthAdjust="spacing" textLength="110.8516" x="632.5653" y="889.4167">GameController</text><line style="stroke:#181818;stroke-width:0.5;" x1="571.64" x2="772.3558" y1="900.57" y2="900.57"/><line style="stroke:#181818;stroke-width:0.5;" x1="571.64" x2="772.3558" y1="908.57" y2="908.57"/><ellipse cx="581.64" cy="922.2184" fill="#84BE84" rx="3" ry="3" style="stroke:#038048;stroke-width:1;"/><text fill="#000000" font-family="sans-serif" font-size="14" lengthAdjust="spacing" textLength="176.7158" x="590.64" y="925.5651">void handleKeyDown(int)</text><ellipse cx="581.64" cy="938.5153" fill="#84BE84" rx="3" ry="3" style="stroke:#038048;stroke-width:1;"/><text fill="#000000" font-family="sans-serif" font-size="14" lengthAdjust="spacing" textLength="156.1807" x="590.64" y="941.862">void handleKeyUp(int)</text><ellipse cx="581.64" cy="954.8122" fill="#84BE84" rx="3" ry="3" style="stroke:#038048;stroke-width:1;"/><text fill="#000000" font-family="sans-serif" font-size="14" lengthAdjust="spacing" textLength="135.3584" x="590.64" y="958.1589">void processInput()</text><ellipse cx="581.64" cy="971.1091" fill="#84BE84" rx="3" ry="3" style="stroke:#038048;stroke-width:1;"/><text fill="#000000" font-family="sans-serif" font-size="14" lengthAdjust="spacing" textLength="167.8154" x="590.64" y="974.4557">void updateModel(float)</text><ellipse cx="581.64" cy="987.4059" fill="#84BE84" rx="3" ry="3" style="stroke:#038048;stroke-width:1;"/><text fill="#000000" font-family="sans-serif" font-size="14" lengthAdjust="spacing" textLength="167.7607" x="590.64" y="990.7526">boolean isGameActive()</text></g><!--class InputManager--><g class="entity" data-entity="InputManager" data-source-line="37" data-uid="ent0014" id="entity_InputManager"><rect fill="#F1F1F1" height="129.4844" rx="2.5" ry="2.5" style="stroke:#181818;stroke-width:0.5;" width="269.0518" x="266.47" y="868.57"/><ellipse cx="347.9373" cy="884.57" fill="#ADD1B2" rx="11" ry="11" style="stroke:#181818;stroke-width:1;"/><path d="M350.906,890.2106 Q350.3279,890.5075 349.6873,890.6481 Q349.0467,890.8044 348.3435,890.8044 Q345.8435,890.8044 344.5154,889.1637 Q343.2029,887.5075 343.2029,884.3825 Q343.2029,881.2575 344.5154,879.6012 Q345.8435,877.945 348.3435,877.945 Q349.0467,877.945 349.6873,878.1012 Q350.3435,878.2575 350.906,878.5544 L350.906,881.2731 Q350.281,880.695 349.6873,880.4294 Q349.0935,880.1481 348.4685,880.1481 Q347.1248,880.1481 346.4373,881.2262 Q345.7498,882.2887 345.7498,884.3825 Q345.7498,886.4762 346.4373,887.5544 Q347.1248,888.6169 348.4685,888.6169 Q349.0935,888.6169 349.6873,888.3512 Q350.281,888.07 350.906,887.4919 L350.906,890.2106 Z " fill="#000000"/><text fill="#000000" font-family="sans-serif" font-size="14" lengthAdjust="spacing" textLength="97.6172" x="368.4373" y="889.4167">InputManager</text><line style="stroke:#181818;stroke-width:0.5;" x1="267.47" x2="534.5218" y1="900.57" y2="900.57"/><line style="stroke:#181818;stroke-width:0.5;" x1="267.47" x2="534.5218" y1="908.57" y2="908.57"/><ellipse cx="277.47" cy="922.2184" fill="#84BE84" rx="3" ry="3" style="stroke:#038048;stroke-width:1;"/><text fill="#000000" font-family="sans-serif" font-size="14" lengthAdjust="spacing" textLength="182.2734" x="286.47" y="925.5651">Command getCommand()</text><ellipse cx="277.47" cy="938.5153" fill="#84BE84" rx="3" ry="3" style="stroke:#038048;stroke-width:1;"/><text fill="#000000" font-family="sans-serif" font-size="14" lengthAdjust="spacing" textLength="181.0293" x="286.47" y="941.862">void registerKeyPress(int)</text><ellipse cx="277.47" cy="954.8122" fill="#84BE84" rx="3" ry="3" style="stroke:#038048;stroke-width:1;"/><text fill="#000000" font-family="sans-serif" font-size="14" lengthAdjust="spacing" textLength="198.96" x="286.47" y="958.1589">void registerKeyRelease(int)</text><ellipse cx="277.47" cy="971.1091" fill="#84BE84" rx="3" ry="3" style="stroke:#038048;stroke-width:1;"/><text fill="#000000" font-family="sans-serif" font-size="14" lengthAdjust="spacing" textLength="243.0518" x="286.47" y="974.4557">Command bindKey(int, Command)</text><ellipse cx="277.47" cy="987.4059" fill="#84BE84" rx="3" ry="3" style="stroke:#038048;stroke-width:1;"/><text fill="#000000" font-family="sans-serif" font-size="14" lengthAdjust="spacing" textLength="125.5283" x="286.47" y="990.7526">void clearQueue()</text></g><!--class Engine--><g class="entity" data-entity="Engine" data-source-line="44" data-uid="ent0016" id="entity_Engine"><rect fill="#F1F1F1" height="64.2969" rx="2.5" ry="2.5" style="stroke:#181818;stroke-width:0.5;" width="94.5029" x="760.75" y="127"/><ellipse cx="782.2847" cy="143" fill="#B4A7E5" rx="11" ry="11" style="stroke:#181818;stroke-width:1;"/><path d="M778.2065,138.7656 L778.2065,136.6094 L785.5972,136.6094 L785.5972,138.7656 L783.1284,138.7656 L783.1284,146.8438 L785.5972,146.8438 L785.5972,149 L778.2065,149 L778.2065,146.8438 L780.6753,146.8438 L780.6753,138.7656 L778.2065,138.7656 Z " fill="#000000"/><text fill="#000000" font-family="sans-serif" font-size="14" font-style="italic" lengthAdjust="spacing" textLength="47.9814" x="797.7368" y="147.8467">Engine</text><line style="stroke:#181818;stroke-width:0.5;" x1="761.75" x2="854.2529" y1="159" y2="159"/><line style="stroke:#181818;stroke-width:0.5;" x1="761.75" x2="854.2529" y1="167" y2="167"/><ellipse cx="771.75" cy="180.6484" fill="#84BE84" rx="3" ry="3" style="stroke:#038048;stroke-width:1;"/><text fill="#000000" font-family="sans-serif" font-size="14" font-style="italic" lengthAdjust="spacing" textLength="68.5029" x="780.75" y="183.9951">void run()</text></g><!--class GameEngine--><g class="entity" data-entity="GameEngine" data-source-line="47" data-uid="ent0019" id="entity_GameEngine"><rect fill="#F1F1F1" height="64.2969" rx="2.5" ry="2.5" style="stroke:#181818;stroke-width:0.5;" width="121.6602" x="747.17" y="266.3"/><ellipse cx="762.17" cy="282.3" fill="#ADD1B2" rx="11" ry="11" style="stroke:#181818;stroke-width:1;"/><path d="M765.1388,287.9406 Q764.5606,288.2375 763.92,288.3781 Q763.2794,288.5344 762.5763,288.5344 Q760.0763,288.5344 758.7481,286.8937 Q757.4356,285.2375 757.4356,282.1125 Q757.4356,278.9875 758.7481,277.3312 Q760.0763,275.675 762.5763,275.675 Q763.2794,275.675 763.92,275.8312 Q764.5763,275.9875 765.1388,276.2844 L765.1388,279.0031 Q764.5138,278.425 763.92,278.1594 Q763.3263,277.8781 762.7013,277.8781 Q761.3575,277.8781 760.67,278.9562 Q759.9825,280.0187 759.9825,282.1125 Q759.9825,284.2062 760.67,285.2844 Q761.3575,286.3469 762.7013,286.3469 Q763.3263,286.3469 763.92,286.0812 Q764.5138,285.8 765.1388,285.2219 L765.1388,287.9406 Z " fill="#000000"/><text fill="#000000" font-family="sans-serif" font-size="14" lengthAdjust="spacing" textLength="89.6602" x="776.17" y="287.1467">GameEngine</text><line style="stroke:#181818;stroke-width:0.5;" x1="748.17" x2="867.8302" y1="298.3" y2="298.3"/><line style="stroke:#181818;stroke-width:0.5;" x1="748.17" x2="867.8302" y1="306.3" y2="306.3"/><ellipse cx="758.17" cy="319.9484" fill="#84BE84" rx="3" ry="3" style="stroke:#038048;stroke-width:1;"/><text fill="#000000" font-family="sans-serif" font-size="14" lengthAdjust="spacing" textLength="68.5029" x="767.17" y="323.2951">void run()</text></g><!--reverse link Controller to GameController--><g class="link" data-entity-1="Controller" data-entity-2="GameController" data-source-line="50" data-uid="lnk22" id="link_Controller_GameController"><path codeLine="50" d="M772.762,702.465 C749.392,755.765 723.48,814.87 700.09,868.22" fill="none" id="Controller-backto-GameController" style="stroke:#181818;stroke-width:1;stroke-dasharray:7.0,7.0;"/><polygon fill="none" points="779.99,685.98,767.267,700.0557,778.257,704.8744,779.99,685.98" style="stroke:#181818;stroke-width:1;"/></g><!--link GameController to Input--><g class="link" data-entity-1="GameController" data-entity-2="Input" data-source-line="51" data-uid="lnk23" id="link_GameController_Input"><path codeLine="51" d="M644.11,868.22 C620.9,814.87 590.3938,744.7818 567.2038,691.4818" fill="none" id="GameController-to-Input" style="stroke:#181818;stroke-width:1;"/><polygon fill="#181818" points="564.81,685.98,564.7328,695.8286,566.8048,690.5648,572.0685,692.6369,564.81,685.98" style="stroke:#181818;stroke-width:1;"/></g><!--reverse link Input to InputManager--><g class="link" data-entity-1="Input" data-entity-2="InputManager" data-source-line="52" data-uid="lnk25" id="link_Input_InputManager"><path codeLine="52" d="M501.762,702.465 C478.392,755.765 452.48,814.87 429.09,868.22" fill="none" id="Input-backto-InputManager" style="stroke:#181818;stroke-width:1;stroke-dasharray:7.0,7.0;"/><polygon fill="none" points="508.99,685.98,496.267,700.0557,507.257,704.8744,508.99,685.98" style="stroke:#181818;stroke-width:1;"/></g><!--link InputManager to Command--><g class="link" data-entity-1="InputManager" data-entity-2="Command" data-source-line="53" data-uid="lnk26" id="link_InputManager_Command"><path codeLine="53" d="M363.7,868.38 C339.88,827.55 311.4538,778.8224 284.0538,731.8624" fill="none" id="InputManager-to-Command" style="stroke:#181818;stroke-width:1;"/><polygon fill="#181818" points="281.03,726.68,282.1108,736.4694,283.5498,730.9986,289.0206,732.4377,281.03,726.68" style="stroke:#181818;stroke-width:1;"/></g><!--reverse link Engine to GameEngine--><g class="link" data-entity-1="Engine" data-entity-2="GameEngine" data-source-line="54" data-uid="lnk28" id="link_Engine_GameEngine"><path codeLine="54" d="M808,209.65 C808,231.98 808,243.8 808,266.1" fill="none" id="Engine-backto-GameEngine" style="stroke:#181818;stroke-width:1;stroke-dasharray:7.0,7.0;"/><polygon fill="none" points="808,191.65,802,209.65,814,209.65,808,191.65" style="stroke:#181818;stroke-width:1;"/></g><!--link GameEngine to Controller--><g class="link" data-entity-1="GameEngine" data-entity-2="Controller" data-source-line="55" data-uid="lnk29" id="link_GameEngine_Controller"><path codeLine="55" d="M808,331.07 C808,383.13 808,481.88 808,549.94" fill="none" id="GameEngine-to-Controller" style="stroke:#181818;stroke-width:1;"/><polygon fill="#181818" points="808,555.94,812,546.94,808,550.94,804,546.94,808,555.94" style="stroke:#181818;stroke-width:1;"/></g><!--SRC=[hLJRKjim57ptLwXv2jEYJs268Iwua0jfGXypidpiQf0bZoI7wL3-lP8lnG7RA1cUV6plsQFLhlIbK2JB2IerHCA0oY5XnC2Aq4UIWKOfuHg2WBb_AQ609bTI62Kv1pL1H2DcS2bOB36LQGgn0l9eonQ2IS7mQmTw3X3wYfv9h8qYrBpi9KlGRo8I3hVmPoQVnDIEEXj5ROj1JA4a1QqZKPHcseieYyJAcyi4-3JbahpZYQNaG0HY-fhaS4aDsuEbUWb0bBbJd-Ts8RxIQGt7JLkbFrnimhLztc-ZZNlzUNMv2cqnNpw4k-sghMRBNuksNaVNDvlsvIxyxkeVsxd3BfOBrxpREHtjc0nC9FQWDCoO0gj1Yaf3nyPgZtnbC0V6LSix2pipcx9_vnLaJDlnri6LiYODcjW1hi5weQ4FsewDcKWiqa6-eUPZBosrLEg-XBAsatAYDPeuauzBDCiBZW_RwZqPoV9WW0TIEnBLmNmsWYgMEH7szFhBwVZRjDQIXhmTD_GZ5p-qhi-lJdH3aJ418-8KLAcjSVrtZYh5snZuqFutlyjzG7X2Ud29_ruSTv6UCkRy_EB8inwSc1rlGPymorFLcuiuy7PuJCj1plmfFPVyQjq_]--></g></svg>