<svg xmlns="http://www.w3.org/2000/svg" xmlns:xlink="http://www.w3.org/1999/xlink" contentStyleType="text/css" data-diagram-type="CLASS" height="582px" preserveAspectRatio="none" style="width:962px;height:582px;background:#FFFFFF;" version="1.1" viewBox="0 0 962 582" width="962px" zoomAndPan="magnify"><defs/><g><!--cluster view--><g class="cluster" data-entity="view" data-source-line="3" data-uid="ent0006" id="cluster_view"><path d="M8.5,6 L202.4443,6 A3.75,3.75 0 0 1 204.9443,8.5 L211.9443,28.2969 L952.5,28.2969 A2.5,2.5 0 0 1 955,30.7969 L955,573.17 A2.5,2.5 0 0 1 952.5,575.67 L8.5,575.67 A2.5,2.5 0 0 1 6,573.17 L6,8.5 A2.5,2.5 0 0 1 8.5,6" fill="none" style="stroke:#000000;stroke-width:1.5;"/><line style="stroke:#000000;stroke-width:1.5;" x1="6" x2="211.9443" y1="28.2969" y2="28.2969"/><text fill="#000000" font-family="sans-serif" font-size="14" font-weight="bold" lengthAdjust="spacing" textLength="192.9443" x="10" y="20.9951">it.unibo.coffebreak.view</text></g><!--cluster api--><g class="cluster" data-entity="api" data-source-line="3" data-uid="ent0007" id="cluster_api"><path d="M212.5,49 L237.7676,49 A3.75,3.75 0 0 1 240.2676,51.5 L247.2676,71.2969 L712.5,71.2969 A2.5,2.5 0 0 1 715,73.7969 L715,261.39 A2.5,2.5 0 0 1 712.5,263.89 L212.5,263.89 A2.5,2.5 0 0 1 210,261.39 L210,51.5 A2.5,2.5 0 0 1 212.5,49" fill="none" style="stroke:#000000;stroke-width:1.5;"/><line style="stroke:#000000;stroke-width:1.5;" x1="210" x2="247.2676" y1="71.2969" y2="71.2969"/><text fill="#000000" font-family="sans-serif" font-size="14" font-weight="bold" lengthAdjust="spacing" textLength="24.2676" x="214" y="63.9951">api</text></g><!--cluster resources--><g class="cluster" data-entity="resources" data-source-line="7" data-uid="ent0009" id="cluster_resources"><path d="M236.5,92 L314.8486,92 A3.75,3.75 0 0 1 317.3486,94.5 L324.3486,114.2969 L523.5,114.2969 A2.5,2.5 0 0 1 526,116.7969 L526,237.39 A2.5,2.5 0 0 1 523.5,239.89 L236.5,239.89 A2.5,2.5 0 0 1 234,237.39 L234,94.5 A2.5,2.5 0 0 1 236.5,92" fill="none" style="stroke:#000000;stroke-width:1.5;"/><line style="stroke:#000000;stroke-width:1.5;" x1="234" x2="324.3486" y1="114.2969" y2="114.2969"/><text fill="#000000" font-family="sans-serif" font-size="14" font-weight="bold" lengthAdjust="spacing" textLength="77.3486" x="238" y="106.9951">resources</text></g><!--cluster impl--><g class="cluster" data-entity="impl" data-source-line="12" data-uid="ent0011" id="cluster_impl"><path d="M32.5,287.89 L67.707,287.89 A3.75,3.75 0 0 1 70.207,290.39 L77.207,310.1869 L928.5,310.1869 A2.5,2.5 0 0 1 931,312.6869 L931,549.17 A2.5,2.5 0 0 1 928.5,551.67 L32.5,551.67 A2.5,2.5 0 0 1 30,549.17 L30,290.39 A2.5,2.5 0 0 1 32.5,287.89" fill="none" style="stroke:#000000;stroke-width:1.5;"/><line style="stroke:#000000;stroke-width:1.5;" x1="30" x2="77.207" y1="310.1869" y2="310.1869"/><text fill="#000000" font-family="sans-serif" font-size="14" font-weight="bold" lengthAdjust="spacing" textLength="34.207" x="34" y="302.8851">impl</text></g><!--cluster resources--><g class="cluster" data-entity="resources" data-source-line="19" data-uid="ent0013" id="cluster_resources"><path d="M56.5,330.89 L134.8486,330.89 A3.75,3.75 0 0 1 137.3486,333.39 L144.3486,353.1869 L667.5,353.1869 A2.5,2.5 0 0 1 670,355.6869 L670,525.17 A2.5,2.5 0 0 1 667.5,527.67 L56.5,527.67 A2.5,2.5 0 0 1 54,525.17 L54,333.39 A2.5,2.5 0 0 1 56.5,330.89" fill="none" style="stroke:#000000;stroke-width:1.5;"/><line style="stroke:#000000;stroke-width:1.5;" x1="54" x2="144.3486" y1="353.1869" y2="353.1869"/><text fill="#000000" font-family="sans-serif" font-size="14" font-weight="bold" lengthAdjust="spacing" textLength="77.3486" x="58" y="345.8851">resources</text></g><!--class View--><g class="entity" data-entity="View" data-source-line="3" data-uid="ent0002" id="entity_View"><rect fill="#F1F1F1" height="80.5938" rx="2.5" ry="2.5" style="stroke:#181818;stroke-width:0.5;" width="153.8594" x="545.07" y="135.15"/><ellipse cx="600.9846" cy="151.15" fill="#B4A7E5" rx="11" ry="11" style="stroke:#181818;stroke-width:1;"/><path d="M596.9064,146.9156 L596.9064,144.7594 L604.2971,144.7594 L604.2971,146.9156 L601.8283,146.9156 L601.8283,154.9937 L604.2971,154.9937 L604.2971,157.15 L596.9064,157.15 L596.9064,154.9937 L599.3752,154.9937 L599.3752,146.9156 L596.9064,146.9156 Z " fill="#000000"/><text fill="#000000" font-family="sans-serif" font-size="14" font-style="italic" lengthAdjust="spacing" textLength="33.5303" x="621.4846" y="155.9967">View</text><line style="stroke:#181818;stroke-width:0.5;" x1="546.07" x2="697.9294" y1="167.15" y2="167.15"/><line style="stroke:#181818;stroke-width:0.5;" x1="546.07" x2="697.9294" y1="175.15" y2="175.15"/><ellipse cx="556.07" cy="188.7984" fill="#84BE84" rx="3" ry="3" style="stroke:#038048;stroke-width:1;"/><text fill="#000000" font-family="sans-serif" font-size="14" font-style="italic" lengthAdjust="spacing" textLength="81.0605" x="565.07" y="192.1451">void close()</text><ellipse cx="556.07" cy="205.0953" fill="#84BE84" rx="3" ry="3" style="stroke:#038048;stroke-width:1;"/><text fill="#000000" font-family="sans-serif" font-size="14" font-style="italic" lengthAdjust="spacing" textLength="127.8594" x="565.07" y="208.442">void updateView()</text></g><!--class Resource--><g class="entity" data-entity="Resource" data-source-line="7" data-uid="ent0008" id="entity_Resource"><rect fill="#F1F1F1" height="96.8906" rx="2.5" ry="2.5" style="stroke:#181818;stroke-width:0.5;" width="260.9717" x="249.51" y="127"/><ellipse cx="343.176" cy="143" fill="#B4A7E5" rx="11" ry="11" style="stroke:#181818;stroke-width:1;"/><path d="M339.0979,138.7656 L339.0979,136.6094 L346.4885,136.6094 L346.4885,138.7656 L344.0198,138.7656 L344.0198,146.8437 L346.4885,146.8437 L346.4885,149 L339.0979,149 L339.0979,146.8437 L341.5666,146.8437 L341.5666,138.7656 L339.0979,138.7656 Z " fill="#000000"/><text fill="#000000" font-family="sans-serif" font-size="14" font-style="italic" lengthAdjust="spacing" textLength="65.1396" x="363.676" y="147.8467">Resource</text><line style="stroke:#181818;stroke-width:0.5;" x1="250.51" x2="509.4817" y1="159" y2="159"/><line style="stroke:#181818;stroke-width:0.5;" x1="250.51" x2="509.4817" y1="167" y2="167"/><ellipse cx="260.51" cy="180.6484" fill="#84BE84" rx="3" ry="3" style="stroke:#038048;stroke-width:1;"/><text fill="#000000" font-family="sans-serif" font-size="14" font-style="italic" lengthAdjust="spacing" textLength="234.9717" x="269.51" y="183.9951">BufferedImage loadImage(String)</text><ellipse cx="260.51" cy="196.9453" fill="#84BE84" rx="3" ry="3" style="stroke:#038048;stroke-width:1;"/><text fill="#000000" font-family="sans-serif" font-size="14" font-style="italic" lengthAdjust="spacing" textLength="149.0371" x="269.51" y="200.292">Font loadFont(String)</text><ellipse cx="260.51" cy="213.2422" fill="#84BE84" rx="3" ry="3" style="stroke:#038048;stroke-width:1;"/><text fill="#000000" font-family="sans-serif" font-size="14" font-style="italic" lengthAdjust="spacing" textLength="139.959" x="269.51" y="216.5889">Clip loadClip(String)</text></g><!--class GameView--><g class="entity" data-entity="GameView" data-source-line="12" data-uid="ent0010" id="entity_GameView"><rect fill="#F1F1F1" height="129.4844" rx="2.5" ry="2.5" style="stroke:#181818;stroke-width:0.5;" width="226.4092" x="688.8" y="374.04"/><ellipse cx="760.1501" cy="390.04" fill="#ADD1B2" rx="11" ry="11" style="stroke:#181818;stroke-width:1;"/><path d="M763.1188,395.6806 Q762.5407,395.9775 761.9001,396.1181 Q761.2595,396.2744 760.5563,396.2744 Q758.0563,396.2744 756.7282,394.6337 Q755.4157,392.9775 755.4157,389.8525 Q755.4157,386.7275 756.7282,385.0712 Q758.0563,383.415 760.5563,383.415 Q761.2595,383.415 761.9001,383.5712 Q762.5563,383.7275 763.1188,384.0244 L763.1188,386.7431 Q762.4938,386.165 761.9001,385.8994 Q761.3063,385.6181 760.6813,385.6181 Q759.3376,385.6181 758.6501,386.6962 Q757.9626,387.7587 757.9626,389.8525 Q757.9626,391.9462 758.6501,393.0244 Q759.3376,394.0869 760.6813,394.0869 Q761.3063,394.0869 761.9001,393.8212 Q762.4938,393.54 763.1188,392.9619 L763.1188,395.6806 Z " fill="#000000"/><text fill="#000000" font-family="sans-serif" font-size="14" lengthAdjust="spacing" textLength="75.209" x="780.6501" y="394.8867">GameView</text><line style="stroke:#181818;stroke-width:0.5;" x1="689.8" x2="914.2092" y1="406.04" y2="406.04"/><line style="stroke:#181818;stroke-width:0.5;" x1="689.8" x2="914.2092" y1="414.04" y2="414.04"/><ellipse cx="699.8" cy="427.6884" fill="#84BE84" rx="3" ry="3" style="stroke:#038048;stroke-width:1;"/><text fill="#000000" font-family="sans-serif" font-size="14" lengthAdjust="spacing" textLength="81.0605" x="708.8" y="431.0351">void close()</text><ellipse cx="699.8" cy="443.9853" fill="#84BE84" rx="3" ry="3" style="stroke:#038048;stroke-width:1;"/><text fill="#000000" font-family="sans-serif" font-size="14" lengthAdjust="spacing" textLength="127.8594" x="708.8" y="447.332">void updateView()</text><ellipse cx="699.8" cy="460.2822" fill="#84BE84" rx="3" ry="3" style="stroke:#038048;stroke-width:1;"/><text fill="#000000" font-family="sans-serif" font-size="14" lengthAdjust="spacing" textLength="179.416" x="708.8" y="463.6289">void keyTyped(KeyEvent)</text><ellipse cx="699.8" cy="476.5791" fill="#84BE84" rx="3" ry="3" style="stroke:#038048;stroke-width:1;"/><text fill="#000000" font-family="sans-serif" font-size="14" lengthAdjust="spacing" textLength="191.0918" x="708.8" y="479.9257">void keyPressed(KeyEvent)</text><ellipse cx="699.8" cy="492.8759" fill="#84BE84" rx="3" ry="3" style="stroke:#038048;stroke-width:1;"/><text fill="#000000" font-family="sans-serif" font-size="14" lengthAdjust="spacing" textLength="200.4092" x="708.8" y="496.2226">void keyReleased(KeyEvent)</text></g><!--class ResourceLoader--><g class="entity" data-entity="ResourceLoader" data-source-line="19" data-uid="ent0012" id="entity_ResourceLoader"><rect fill="#F1F1F1" height="145.7813" rx="2.5" ry="2.5" style="stroke:#181818;stroke-width:0.5;" width="260.9717" x="69.51" y="365.89"/><ellipse cx="139.0759" cy="381.89" fill="#ADD1B2" rx="11" ry="11" style="stroke:#181818;stroke-width:1;"/><path d="M142.0447,387.5306 Q141.4665,387.8275 140.8259,387.9681 Q140.1853,388.1244 139.4822,388.1244 Q136.9822,388.1244 135.654,386.4838 Q134.3415,384.8275 134.3415,381.7025 Q134.3415,378.5775 135.654,376.9213 Q136.9822,375.265 139.4822,375.265 Q140.1853,375.265 140.8259,375.4213 Q141.4822,375.5775 142.0447,375.8744 L142.0447,378.5931 Q141.4197,378.015 140.8259,377.7494 Q140.2322,377.4681 139.6072,377.4681 Q138.2634,377.4681 137.5759,378.5463 Q136.8884,379.6088 136.8884,381.7025 Q136.8884,383.7963 137.5759,384.8744 Q138.2634,385.9369 139.6072,385.9369 Q140.2322,385.9369 140.8259,385.6713 Q141.4197,385.39 142.0447,384.8119 L142.0447,387.5306 Z " fill="#000000"/><text fill="#000000" font-family="sans-serif" font-size="14" lengthAdjust="spacing" textLength="113.3398" x="159.5759" y="386.7367">ResourceLoader</text><line style="stroke:#181818;stroke-width:0.5;" x1="70.51" x2="329.4817" y1="397.89" y2="397.89"/><ellipse cx="80.51" cy="411.5384" fill="none" rx="3" ry="3" style="stroke:#038048;stroke-width:1;"/><text fill="#000000" font-family="sans-serif" font-size="14" lengthAdjust="spacing" text-decoration="underline" textLength="128.4268" x="89.51" y="414.8851">String FONT_PATH</text><ellipse cx="80.51" cy="427.8353" fill="none" rx="3" ry="3" style="stroke:#038048;stroke-width:1;"/><text fill="#000000" font-family="sans-serif" font-size="14" lengthAdjust="spacing" text-decoration="underline" textLength="139.5352" x="89.51" y="431.182">String JUMP_SOUND</text><line style="stroke:#181818;stroke-width:0.5;" x1="70.51" x2="329.4817" y1="438.4838" y2="438.4838"/><ellipse cx="80.51" cy="452.1322" fill="#84BE84" rx="3" ry="3" style="stroke:#038048;stroke-width:1;"/><text fill="#000000" font-family="sans-serif" font-size="14" lengthAdjust="spacing" textLength="234.9717" x="89.51" y="455.4789">BufferedImage loadImage(String)</text><ellipse cx="80.51" cy="468.4291" fill="#84BE84" rx="3" ry="3" style="stroke:#038048;stroke-width:1;"/><text fill="#000000" font-family="sans-serif" font-size="14" lengthAdjust="spacing" textLength="149.0371" x="89.51" y="471.7757">Font loadFont(String)</text><ellipse cx="80.51" cy="484.7259" fill="#84BE84" rx="3" ry="3" style="stroke:#038048;stroke-width:1;"/><text fill="#000000" font-family="sans-serif" font-size="14" lengthAdjust="spacing" textLength="139.959" x="89.51" y="488.0726">Clip loadClip(String)</text><ellipse cx="80.51" cy="501.0228" fill="#84BE84" rx="3" ry="3" style="stroke:#038048;stroke-width:1;"/><text fill="#000000" font-family="sans-serif" font-size="14" lengthAdjust="spacing" text-decoration="underline" textLength="123.0742" x="89.51" y="504.3695">void clearCache()</text></g><!--class ResourceLoader$ResourceException--><g class="entity" data-entity="ResourceLoader$ResourceException" data-source-line="28" data-uid="ent0014" id="entity_ResourceLoader$ResourceException"><rect fill="#F1F1F1" height="48" rx="2.5" ry="2.5" style="stroke:#181818;stroke-width:0.5;" width="288.5322" x="365.73" y="414.78"/><ellipse cx="380.73" cy="430.78" fill="#ADD1B2" rx="11" ry="11" style="stroke:#181818;stroke-width:1;"/><path d="M383.6988,436.4206 Q383.1206,436.7175 382.48,436.8581 Q381.8394,437.0144 381.1363,437.0144 Q378.6363,437.0144 377.3081,435.3738 Q375.9956,433.7175 375.9956,430.5925 Q375.9956,427.4675 377.3081,425.8113 Q378.6363,424.155 381.1363,424.155 Q381.8394,424.155 382.48,424.3113 Q383.1363,424.4675 383.6988,424.7644 L383.6988,427.4831 Q383.0738,426.905 382.48,426.6394 Q381.8863,426.3581 381.2613,426.3581 Q379.9175,426.3581 379.23,427.4363 Q378.5425,428.4988 378.5425,430.5925 Q378.5425,432.6863 379.23,433.7644 Q379.9175,434.8269 381.2613,434.8269 Q381.8863,434.8269 382.48,434.5613 Q383.0738,434.28 383.6988,433.7019 L383.6988,436.4206 Z " fill="#000000"/><text fill="#000000" font-family="sans-serif" font-size="14" lengthAdjust="spacing" textLength="256.5322" x="394.73" y="435.6267">ResourceLoader$ResourceException</text><line style="stroke:#181818;stroke-width:0.5;" x1="366.73" x2="653.2622" y1="446.78" y2="446.78"/><line style="stroke:#181818;stroke-width:0.5;" x1="366.73" x2="653.2622" y1="454.78" y2="454.78"/></g><!--reverse link View to GameView--><g class="link" data-entity-1="View" data-entity-2="GameView" data-source-line="30" data-uid="lnk16" id="link_View_GameView"><path codeLine="30" d="M659.5483,230.9553 C688.3583,272.7953 723.98,324.51 757.92,373.78" fill="none" id="View-backto-GameView" style="stroke:#181818;stroke-width:1;stroke-dasharray:7.0,7.0;"/><polygon fill="none" points="649.34,216.13,654.6066,234.3581,664.4901,227.5525,649.34,216.13" style="stroke:#181818;stroke-width:1;"/></g><!--reverse link Resource to ResourceLoader--><g class="link" data-entity-1="Resource" data-entity-2="ResourceLoader" data-source-line="31" data-uid="lnk18" id="link_Resource_ResourceLoader"><path codeLine="31" d="M336.7796,239.2039 C309.5796,278.6939 280.79,320.49 249.8,365.48" fill="none" id="Resource-backto-ResourceLoader" style="stroke:#181818;stroke-width:1;stroke-dasharray:7.0,7.0;"/><polygon fill="none" points="346.99,224.38,331.8383,235.8004,341.7209,242.6074,346.99,224.38" style="stroke:#181818;stroke-width:1;"/></g><!--SRC=[fPFBRi8m44Nt-GeNTP6gaZ-XKakXfG-8U7GR3Sw4MZYnPJkqYERVwn22W10HjRknxntF-8nzfJGi4Y2PmK5gKISOSR0O05l20Ws9GHZqF5veCJ0adG-ENnq2Xd1BivJF9MKoZd6k4PPqvKGAYjF2HJOU8RTa0tDZDJ2RhoIF21FIe7zpJifKv6eNgKxF3ukEqSXCCxnSME-SXbOvjJOUCfUcCHeaxef4I2WZVs8rJnUddVLbQhUc8cZmT0LNMqyHx3svnmGOGpfFaE1bR3nHWbRMikbJO7LArUOIrzErmiX_nNLlXQazaW97nJI9OnG8n-g-yuhXcxiRwXRzr_6NgTKGZ0NBMLuY8ltHS1e6zzFdS-BBx3q89wFPyD6fOLXOMaokSLpdPtHOTqSRGNU1VQBVoE6wMlQ-6IhBPVeFClN372lt-Diz4vhHdxlBNz7xuzHQ75_F_GK0]--></g></svg>